<svg id="visual" viewBox="0 0 1920 1080" width="1920" height="1080" xmlns="http://www.w3.org/2000/svg" xmlns:xlink="http://www.w3.org/1999/xlink" version="1.1"><rect x="0" y="0" width="1920" height="1080" fill="#6C567B"></rect><defs><linearGradient id="grad1_0" x1="43.8%" y1="100%" x2="100%" y2="0%"><stop offset="14.444444444444446%" stop-color="#f39f5a" stop-opacity="1"></stop><stop offset="85.55555555555554%" stop-color="#f39f5a" stop-opacity="1"></stop></linearGradient></defs><defs><linearGradient id="grad1_1" x1="43.8%" y1="100%" x2="100%" y2="0%"><stop offset="14.444444444444446%" stop-color="#f39f5a" stop-opacity="1"></stop><stop offset="85.55555555555554%" stop-color="#e77f6e" stop-opacity="1"></stop></linearGradient></defs><defs><linearGradient id="grad1_2" x1="43.8%" y1="100%" x2="100%" y2="0%"><stop offset="14.444444444444446%" stop-color="#c76b7f" stop-opacity="1"></stop><stop offset="85.55555555555554%" stop-color="#e77f6e" stop-opacity="1"></stop></linearGradient></defs><defs><linearGradient id="grad1_3" x1="43.8%" y1="100%" x2="100%" y2="0%"><stop offset="14.444444444444446%" stop-color="#c76b7f" stop-opacity="1"></stop><stop offset="85.55555555555554%" stop-color="#9b5f85" stop-opacity="1"></stop></linearGradient></defs><defs><linearGradient id="grad1_4" x1="43.8%" y1="100%" x2="100%" y2="0%"><stop offset="14.444444444444446%" stop-color="#6c567b" stop-opacity="1"></stop><stop offset="85.55555555555554%" stop-color="#9b5f85" stop-opacity="1"></stop></linearGradient></defs><defs><linearGradient id="grad2_0" x1="0%" y1="100%" x2="56.3%" y2="0%"><stop offset="14.444444444444446%" stop-color="#f39f5a" stop-opacity="1"></stop><stop offset="85.55555555555554%" stop-color="#f39f5a" stop-opacity="1"></stop></linearGradient></defs><defs><linearGradient id="grad2_1" x1="0%" y1="100%" x2="56.3%" y2="0%"><stop offset="14.444444444444446%" stop-color="#e77f6e" stop-opacity="1"></stop><stop offset="85.55555555555554%" stop-color="#f39f5a" stop-opacity="1"></stop></linearGradient></defs><defs><linearGradient id="grad2_2" x1="0%" y1="100%" x2="56.3%" y2="0%"><stop offset="14.444444444444446%" stop-color="#e77f6e" stop-opacity="1"></stop><stop offset="85.55555555555554%" stop-color="#c76b7f" stop-opacity="1"></stop></linearGradient></defs><defs><linearGradient id="grad2_3" x1="0%" y1="100%" x2="56.3%" y2="0%"><stop offset="14.444444444444446%" stop-color="#9b5f85" stop-opacity="1"></stop><stop offset="85.55555555555554%" stop-color="#c76b7f" stop-opacity="1"></stop></linearGradient></defs><defs><linearGradient id="grad2_4" x1="0%" y1="100%" x2="56.3%" y2="0%"><stop offset="14.444444444444446%" stop-color="#9b5f85" stop-opacity="1"></stop><stop offset="85.55555555555554%" stop-color="#6c567b" stop-opacity="1"></stop></linearGradient></defs><g transform="translate(1920, 1080)"><path d="M-451 0C-464 -19.9 -477.1 -39.8 -472.5 -57.4C-468 -74.9 -445.9 -90.2 -436.9 -107.7C-427.9 -125.2 -431.9 -145 -425.4 -161.3C-418.9 -177.7 -401.9 -190.8 -388.7 -204C-375.6 -217.3 -366.3 -230.7 -362.1 -249.9C-357.9 -269.2 -358.7 -294.2 -346.6 -307C-334.4 -319.9 -309.4 -320.6 -295.8 -333.8C-282.1 -347.1 -279.8 -372.8 -270.4 -391.7C-261 -410.7 -244.4 -422.7 -225.9 -430.3C-207.4 -437.9 -187 -441.1 -166.3 -438.5C-145.7 -436 -124.7 -427.7 -106.7 -433C-88.7 -438.4 -73.6 -457.5 -56.3 -463.6C-39 -469.7 -19.5 -462.9 0 -456L0 0Z" fill="#835b82"></path><path d="M-360.8 0C-371.2 -15.9 -381.6 -31.8 -378 -45.9C-374.4 -60 -356.8 -72.2 -349.5 -86.2C-342.3 -100.2 -345.6 -116 -340.3 -129.1C-335.1 -142.2 -321.5 -152.6 -311 -163.2C-300.5 -173.8 -293.1 -184.6 -289.7 -200C-286.3 -215.3 -286.9 -235.3 -277.2 -245.6C-267.6 -255.9 -247.5 -256.5 -236.6 -267.1C-225.7 -277.7 -223.9 -298.3 -216.3 -313.4C-208.8 -328.5 -195.5 -338.2 -180.7 -344.3C-165.9 -350.4 -149.6 -352.9 -133 -350.8C-116.5 -348.8 -99.8 -342.1 -85.4 -346.4C-71 -350.7 -58.9 -366 -45 -370.9C-31.2 -375.8 -15.6 -370.3 0 -364.8L0 0Z" fill="#b26484"></path><path d="M-270.6 0C-278.4 -11.9 -286.2 -23.9 -283.5 -34.4C-280.8 -45 -267.6 -54.1 -262.2 -64.6C-256.7 -75.1 -259.2 -87 -255.3 -96.8C-251.4 -106.6 -241.1 -114.5 -233.2 -122.4C-225.3 -130.4 -219.8 -138.4 -217.3 -150C-214.7 -161.5 -215.2 -176.5 -207.9 -184.2C-200.7 -191.9 -185.6 -192.4 -177.5 -200.3C-169.3 -208.2 -167.9 -223.7 -162.2 -235C-156.6 -246.4 -146.6 -253.6 -135.5 -258.2C-124.4 -262.8 -112.2 -264.7 -99.8 -263.1C-87.4 -261.6 -74.8 -256.6 -64 -259.8C-53.2 -263.1 -44.2 -274.5 -33.8 -278.2C-23.4 -281.8 -11.7 -277.7 0 -273.6L0 0Z" fill="#d97478"></path><path d="M-180.4 0C-185.6 -8 -190.8 -15.9 -189 -23C-187.2 -30 -178.4 -36.1 -174.8 -43.1C-171.2 -50.1 -172.8 -58 -170.2 -64.5C-167.6 -71.1 -160.7 -76.3 -155.5 -81.6C-150.2 -86.9 -146.5 -92.3 -144.8 -100C-143.2 -107.7 -143.5 -117.7 -138.6 -122.8C-133.8 -128 -123.8 -128.2 -118.3 -133.5C-112.8 -138.8 -111.9 -149.1 -108.2 -156.7C-104.4 -164.3 -97.7 -169.1 -90.3 -172.1C-82.9 -175.2 -74.8 -176.4 -66.5 -175.4C-58.3 -174.4 -49.9 -171.1 -42.7 -173.2C-35.5 -175.4 -29.4 -183 -22.5 -185.4C-15.6 -187.9 -7.8 -185.1 0 -182.4L0 0Z" fill="#f08e64"></path><path d="M-90.2 0C-92.8 -4 -95.4 -8 -94.5 -11.5C-93.6 -15 -89.2 -18 -87.4 -21.5C-85.6 -25 -86.4 -29 -85.1 -32.3C-83.8 -35.5 -80.4 -38.2 -77.7 -40.8C-75.1 -43.5 -73.3 -46.1 -72.4 -50C-71.6 -53.8 -71.7 -58.8 -69.3 -61.4C-66.9 -64 -61.9 -64.1 -59.2 -66.8C-56.4 -69.4 -56 -74.6 -54.1 -78.3C-52.2 -82.1 -48.9 -84.5 -45.2 -86.1C-41.5 -87.6 -37.4 -88.2 -33.3 -87.7C-29.1 -87.2 -24.9 -85.5 -21.3 -86.6C-17.7 -87.7 -14.7 -91.5 -11.3 -92.7C-7.8 -93.9 -3.9 -92.6 0 -91.2L0 0Z" fill="#f39f5a"></path></g><g transform="translate(0, 0)"><path d="M471 0C472.4 19.7 473.9 39.3 464.6 56.4C455.3 73.5 435.2 88 429.2 105.8C423.1 123.6 430.9 144.7 425.4 161.3C419.9 178 401.1 190.3 386.9 203.1C372.8 215.9 363.3 229.2 360.5 248.8C357.6 268.5 361.5 294.5 357.8 317C354.1 339.4 342.9 358.4 322.3 363.8C301.7 369.2 271.6 361.1 250.5 362.9C229.4 364.8 217.1 376.5 203.5 387.8C190 399.1 175 410 159.9 421.7C144.8 433.4 129.5 446 112.7 457.3C95.9 468.6 77.5 478.7 58.5 481.5C39.4 484.2 19.7 479.6 0 475L0 0Z" fill="#835b82"></path><path d="M376.8 0C378 15.7 379.1 31.5 371.7 45.1C364.2 58.8 348.2 70.4 343.3 84.6C338.5 98.9 344.7 115.7 340.3 129.1C336 142.4 320.9 152.2 309.6 162.5C298.2 172.7 290.6 183.3 288.4 199C286.1 214.8 289.2 235.6 286.2 253.6C283.3 271.6 274.3 286.7 257.8 291C241.3 295.4 217.3 288.9 200.4 290.3C183.5 291.8 173.7 301.2 162.8 310.3C152 319.3 140 328 127.9 337.4C115.9 346.7 103.6 356.8 90.2 365.9C76.7 374.9 62 383 46.8 385.2C31.5 387.4 15.8 383.7 0 380L0 0Z" fill="#b26484"></path><path d="M282.6 0C283.5 11.8 284.3 23.6 278.8 33.8C273.2 44.1 261.1 52.8 257.5 63.5C253.8 74.1 258.6 86.8 255.3 96.8C252 106.8 240.7 114.2 232.2 121.9C223.7 129.5 218 137.5 216.3 149.3C214.6 161.1 216.9 176.7 214.7 190.2C212.5 203.7 205.7 215 193.4 218.3C181 221.5 163 216.7 150.3 217.8C137.6 218.9 130.3 225.9 122.1 232.7C114 239.5 105 246 96 253C86.9 260 77.7 267.6 67.6 274.4C57.5 281.2 46.5 287.2 35.1 288.9C23.6 290.5 11.8 287.8 0 285L0 0Z" fill="#d97478"></path><path d="M188.4 0C189 7.9 189.6 15.7 185.8 22.6C182.1 29.4 174.1 35.2 171.7 42.3C169.2 49.4 172.4 57.9 170.2 64.5C168 71.2 160.4 76.1 154.8 81.2C149.1 86.3 145.3 91.7 144.2 99.5C143.1 107.4 144.6 117.8 143.1 126.8C141.6 135.8 137.2 143.3 128.9 145.5C120.7 147.7 108.7 144.4 100.2 145.2C91.8 145.9 86.9 150.6 81.4 155.1C76 159.7 70 164 64 168.7C57.9 173.4 51.8 178.4 45.1 182.9C38.4 187.5 31 191.5 23.4 192.6C15.8 193.7 7.9 191.8 0 190L0 0Z" fill="#f08e64"></path><path d="M94.2 0C94.5 3.9 94.8 7.9 92.9 11.3C91.1 14.7 87 17.6 85.8 21.2C84.6 24.7 86.2 28.9 85.1 32.3C84 35.6 80.2 38.1 77.4 40.6C74.6 43.2 72.7 45.8 72.1 49.8C71.5 53.7 72.3 58.9 71.6 63.4C70.8 67.9 68.6 71.7 64.5 72.8C60.3 73.8 54.3 72.2 50.1 72.6C45.9 73 43.4 75.3 40.7 77.6C38 79.8 35 82 32 84.3C29 86.7 25.9 89.2 22.5 91.5C19.2 93.7 15.5 95.7 11.7 96.3C7.9 96.8 3.9 95.9 0 95L0 0Z" fill="#f39f5a"></path></g></svg>