<svg id="visual" viewBox="0 0 1920 1080" width="1920" height="1080" xmlns="http://www.w3.org/2000/svg" xmlns:xlink="http://www.w3.org/1999/xlink" version="1.1"><rect x="0" y="0" width="1920" height="1080" fill="#6C567B"></rect><defs><linearGradient id="grad1_0" x1="43.8%" y1="0%" x2="100%" y2="100%"><stop offset="14.444444444444446%" stop-color="#f39f5a" stop-opacity="1"></stop><stop offset="85.55555555555554%" stop-color="#f39f5a" stop-opacity="1"></stop></linearGradient></defs><defs><linearGradient id="grad1_1" x1="43.8%" y1="0%" x2="100%" y2="100%"><stop offset="14.444444444444446%" stop-color="#f39f5a" stop-opacity="1"></stop><stop offset="85.55555555555554%" stop-color="#e77f6e" stop-opacity="1"></stop></linearGradient></defs><defs><linearGradient id="grad1_2" x1="43.8%" y1="0%" x2="100%" y2="100%"><stop offset="14.444444444444446%" stop-color="#c76b7f" stop-opacity="1"></stop><stop offset="85.55555555555554%" stop-color="#e77f6e" stop-opacity="1"></stop></linearGradient></defs><defs><linearGradient id="grad1_3" x1="43.8%" y1="0%" x2="100%" y2="100%"><stop offset="14.444444444444446%" stop-color="#c76b7f" stop-opacity="1"></stop><stop offset="85.55555555555554%" stop-color="#9b5f85" stop-opacity="1"></stop></linearGradient></defs><defs><linearGradient id="grad1_4" x1="43.8%" y1="0%" x2="100%" y2="100%"><stop offset="14.444444444444446%" stop-color="#6c567b" stop-opacity="1"></stop><stop offset="85.55555555555554%" stop-color="#9b5f85" stop-opacity="1"></stop></linearGradient></defs><defs><linearGradient id="grad2_0" x1="0%" y1="0%" x2="56.3%" y2="100%"><stop offset="14.444444444444446%" stop-color="#f39f5a" stop-opacity="1"></stop><stop offset="85.55555555555554%" stop-color="#f39f5a" stop-opacity="1"></stop></linearGradient></defs><defs><linearGradient id="grad2_1" x1="0%" y1="0%" x2="56.3%" y2="100%"><stop offset="14.444444444444446%" stop-color="#e77f6e" stop-opacity="1"></stop><stop offset="85.55555555555554%" stop-color="#f39f5a" stop-opacity="1"></stop></linearGradient></defs><defs><linearGradient id="grad2_2" x1="0%" y1="0%" x2="56.3%" y2="100%"><stop offset="14.444444444444446%" stop-color="#e77f6e" stop-opacity="1"></stop><stop offset="85.55555555555554%" stop-color="#c76b7f" stop-opacity="1"></stop></linearGradient></defs><defs><linearGradient id="grad2_3" x1="0%" y1="0%" x2="56.3%" y2="100%"><stop offset="14.444444444444446%" stop-color="#9b5f85" stop-opacity="1"></stop><stop offset="85.55555555555554%" stop-color="#c76b7f" stop-opacity="1"></stop></linearGradient></defs><defs><linearGradient id="grad2_4" x1="0%" y1="0%" x2="56.3%" y2="100%"><stop offset="14.444444444444446%" stop-color="#9b5f85" stop-opacity="1"></stop><stop offset="85.55555555555554%" stop-color="#6c567b" stop-opacity="1"></stop></linearGradient></defs><g transform="translate(1920, 0)"><path d="M0 447C-19.5 457.2 -39 467.5 -56.3 463.6C-73.6 459.7 -88.8 441.8 -108.2 438.9C-127.5 436 -151 448.1 -168.1 443.2C-185.2 438.2 -195.8 416.2 -214.2 408.2C-232.6 400.2 -258.7 406.3 -273.2 395.9C-287.7 385.4 -290.7 358.3 -304.4 343.6C-318.1 328.9 -342.6 326.5 -350.3 310.3C-358 294.2 -349 264.2 -360.5 248.8C-371.9 233.5 -403.8 232.7 -422.4 221.7C-441 210.6 -446.3 189.2 -442.3 167.7C-438.2 146.2 -424.7 124.6 -434 107C-443.3 89.4 -475.5 75.7 -482.5 58.6C-489.4 41.4 -471.2 20.7 -453 0L0 0Z" fill="#835b82"></path><path d="M0 357.6C-15.6 365.8 -31.2 374 -45 370.9C-58.9 367.8 -71.1 353.4 -86.5 351.1C-102 348.8 -120.8 358.5 -134.5 354.6C-148.1 350.6 -156.7 332.9 -171.4 326.6C-186.1 320.2 -207 325.1 -218.6 316.7C-230.2 308.3 -232.5 286.6 -243.5 274.9C-254.5 263.1 -274 261.2 -280.2 248.3C-286.4 235.3 -279.2 211.3 -288.4 199C-297.5 186.8 -323 186.2 -337.9 177.3C-352.8 168.5 -357.1 151.4 -353.8 134.2C-350.6 117 -339.7 99.7 -347.2 85.6C-354.7 71.5 -380.4 60.6 -386 46.9C-391.5 33.1 -377 16.6 -362.4 0L0 0Z" fill="#b26484"></path><path d="M0 268.2C-11.7 274.3 -23.4 280.5 -33.8 278.2C-44.2 275.8 -53.3 265.1 -64.9 263.3C-76.5 261.6 -90.6 268.9 -100.8 265.9C-111.1 262.9 -117.5 249.7 -128.5 244.9C-139.6 240.1 -155.2 243.8 -163.9 237.5C-172.6 231.2 -174.4 215 -182.6 206.1C-190.8 197.3 -205.5 195.9 -210.2 186.2C-214.8 176.5 -209.4 158.5 -216.3 149.3C-223.1 140.1 -242.3 139.6 -253.4 133C-264.6 126.4 -267.8 113.5 -265.4 100.6C-262.9 87.7 -254.8 74.8 -260.4 64.2C-266 53.6 -285.3 45.4 -289.5 35.1C-293.7 24.9 -282.7 12.4 -271.8 0L0 0Z" fill="#d97478"></path><path d="M0 178.8C-7.8 182.9 -15.6 187 -22.5 185.4C-29.5 183.9 -35.5 176.7 -43.3 175.5C-51 174.4 -60.4 179.3 -67.2 177.3C-74.1 175.3 -78.3 166.5 -85.7 163.3C-93.1 160.1 -103.5 162.5 -109.3 158.3C-115.1 154.1 -116.3 143.3 -121.7 137.4C-127.2 131.5 -137 130.6 -140.1 124.1C-143.2 117.7 -139.6 105.7 -144.2 99.5C-148.8 93.4 -161.5 93.1 -168.9 88.7C-176.4 84.2 -178.5 75.7 -176.9 67.1C-175.3 58.5 -169.9 49.8 -173.6 42.8C-177.3 35.7 -190.2 30.3 -193 23.4C-195.8 16.6 -188.5 8.3 -181.2 0L0 0Z" fill="#f08e64"></path><path d="M0 89.4C-3.9 91.4 -7.8 93.5 -11.3 92.7C-14.7 91.9 -17.8 88.4 -21.6 87.8C-25.5 87.2 -30.2 89.6 -33.6 88.6C-37 87.6 -39.2 83.2 -42.8 81.6C-46.5 80 -51.7 81.3 -54.6 79.2C-57.5 77.1 -58.1 71.7 -60.9 68.7C-63.6 65.8 -68.5 65.3 -70.1 62.1C-71.6 58.8 -69.8 52.8 -72.1 49.8C-74.4 46.7 -80.8 46.5 -84.5 44.3C-88.2 42.1 -89.3 37.8 -88.5 33.5C-87.6 29.2 -84.9 24.9 -86.8 21.4C-88.7 17.9 -95.1 15.1 -96.5 11.7C-97.9 8.3 -94.2 4.1 -90.6 0L0 0Z" fill="#f39f5a"></path></g><g transform="translate(0, 1080)"><path d="M0 -476C19.6 -479.4 39.3 -482.8 58 -477.5C76.7 -472.1 94.4 -458 109.1 -442.7C123.9 -427.5 135.6 -411 155.7 -410.5C175.8 -410 204.3 -425.4 218 -415.3C231.6 -405.1 230.4 -369.4 249.4 -361.3C268.4 -353.2 307.6 -372.8 321 -362.3C334.3 -351.8 321.7 -311.3 327.1 -289.8C332.5 -268.3 356 -265.7 368.7 -254.5C381.4 -243.3 383.5 -223.3 399.3 -209.6C415.2 -195.8 444.9 -188.2 454.4 -172.3C464 -156.4 453.4 -132.3 454.4 -112C455.4 -91.7 467.8 -75.4 472.5 -57.4C477.2 -39.4 474.1 -19.7 471 0L0 0Z" fill="#835b82"></path><path d="M0 -380.8C15.7 -383.5 31.4 -386.3 46.4 -382C61.3 -377.7 75.5 -366.4 87.3 -354.2C99.1 -342 108.4 -328.8 124.5 -328.4C140.6 -328 163.4 -340.3 174.4 -332.2C185.3 -324.1 184.3 -295.5 199.5 -289C214.7 -282.6 246.1 -298.2 256.8 -289.8C267.4 -281.4 257.3 -249 261.7 -231.8C266 -214.6 284.8 -212.6 295 -203.6C305.2 -194.6 306.8 -178.7 319.5 -167.7C332.2 -156.7 355.9 -150.6 363.5 -137.9C371.2 -125.2 362.7 -105.8 363.5 -89.6C364.3 -73.4 374.3 -60.3 378 -45.9C381.8 -31.5 379.3 -15.7 376.8 0L0 0Z" fill="#b26484"></path><path d="M0 -285.6C11.8 -287.7 23.6 -289.7 34.8 -286.5C46 -283.3 56.6 -274.8 65.5 -265.6C74.3 -256.5 81.3 -246.6 93.4 -246.3C105.5 -246 122.6 -255.3 130.8 -249.2C139 -243.1 138.2 -221.6 149.6 -216.8C161 -211.9 184.6 -223.7 192.6 -217.4C200.6 -211.1 193 -186.8 196.3 -173.9C199.5 -161 213.6 -159.4 221.2 -152.7C228.9 -146 230.1 -134 239.6 -125.8C249.1 -117.5 266.9 -112.9 272.7 -103.4C278.4 -93.9 272.1 -79.4 272.6 -67.2C273.2 -55 280.7 -45.2 283.5 -34.4C286.3 -23.6 284.5 -11.8 282.6 0L0 0Z" fill="#d97478"></path><path d="M0 -190.4C7.9 -191.8 15.7 -193.1 23.2 -191C30.7 -188.9 37.8 -183.2 43.7 -177.1C49.5 -171 54.2 -164.4 62.3 -164.2C70.3 -164 81.7 -170.2 87.2 -166.1C92.6 -162.1 92.1 -147.8 99.8 -144.5C107.4 -141.3 123.1 -149.1 128.4 -144.9C133.7 -140.7 128.7 -124.5 130.8 -115.9C133 -107.3 142.4 -106.3 147.5 -101.8C152.6 -97.3 153.4 -89.3 159.7 -83.8C166.1 -78.3 177.9 -75.3 181.8 -68.9C185.6 -62.6 181.4 -52.9 181.8 -44.8C182.1 -36.7 187.1 -30.2 189 -23C190.9 -15.7 189.6 -7.9 188.4 0L0 0Z" fill="#f08e64"></path><path d="M0 -95.2C3.9 -95.9 7.9 -96.6 11.6 -95.5C15.3 -94.4 18.9 -91.6 21.8 -88.5C24.8 -85.5 27.1 -82.2 31.1 -82.1C35.2 -82 40.9 -85.1 43.6 -83.1C46.3 -81 46.1 -73.9 49.9 -72.3C53.7 -70.6 61.5 -74.6 64.2 -72.5C66.9 -70.4 64.3 -62.3 65.4 -58C66.5 -53.7 71.2 -53.1 73.7 -50.9C76.3 -48.7 76.7 -44.7 79.9 -41.9C83 -39.2 89 -37.6 90.9 -34.5C92.8 -31.3 90.7 -26.5 90.9 -22.4C91.1 -18.3 93.6 -15.1 94.5 -11.5C95.4 -7.9 94.8 -3.9 94.2 0L0 0Z" fill="#f39f5a"></path></g></svg>