<svg id="visual" viewBox="0 0 1920 1080" width="1920" height="1080" xmlns="http://www.w3.org/2000/svg" xmlns:xlink="http://www.w3.org/1999/xlink" version="1.1"><rect x="0" y="0" width="1920" height="1080" fill="#001220"></rect><defs><linearGradient id="grad1_0" x1="43.8%" y1="0%" x2="100%" y2="100%"><stop offset="14.444444444444446%" stop-color="#fbae3c" stop-opacity="1"></stop><stop offset="85.55555555555554%" stop-color="#fbae3c" stop-opacity="1"></stop></linearGradient></defs><defs><linearGradient id="grad1_1" x1="43.8%" y1="0%" x2="100%" y2="100%"><stop offset="14.444444444444446%" stop-color="#fbae3c" stop-opacity="1"></stop><stop offset="85.55555555555554%" stop-color="#f17c53" stop-opacity="1"></stop></linearGradient></defs><defs><linearGradient id="grad1_2" x1="43.8%" y1="0%" x2="100%" y2="100%"><stop offset="14.444444444444446%" stop-color="#cc5867" stop-opacity="1"></stop><stop offset="85.55555555555554%" stop-color="#f17c53" stop-opacity="1"></stop></linearGradient></defs><defs><linearGradient id="grad1_3" x1="43.8%" y1="0%" x2="100%" y2="100%"><stop offset="14.444444444444446%" stop-color="#cc5867" stop-opacity="1"></stop><stop offset="85.55555555555554%" stop-color="#96446e" stop-opacity="1"></stop></linearGradient></defs><defs><linearGradient id="grad1_4" x1="43.8%" y1="0%" x2="100%" y2="100%"><stop offset="14.444444444444446%" stop-color="#593762" stop-opacity="1"></stop><stop offset="85.55555555555554%" stop-color="#96446e" stop-opacity="1"></stop></linearGradient></defs><defs><linearGradient id="grad1_5" x1="43.8%" y1="0%" x2="100%" y2="100%"><stop offset="14.444444444444446%" stop-color="#593762" stop-opacity="1"></stop><stop offset="85.55555555555554%" stop-color="#232745" stop-opacity="1"></stop></linearGradient></defs><defs><linearGradient id="grad1_6" x1="43.8%" y1="0%" x2="100%" y2="100%"><stop offset="14.444444444444446%" stop-color="#001220" stop-opacity="1"></stop><stop offset="85.55555555555554%" stop-color="#232745" stop-opacity="1"></stop></linearGradient></defs><defs><linearGradient id="grad2_0" x1="0%" y1="0%" x2="56.3%" y2="100%"><stop offset="14.444444444444446%" stop-color="#fbae3c" stop-opacity="1"></stop><stop offset="85.55555555555554%" stop-color="#fbae3c" stop-opacity="1"></stop></linearGradient></defs><defs><linearGradient id="grad2_1" x1="0%" y1="0%" x2="56.3%" y2="100%"><stop offset="14.444444444444446%" stop-color="#f17c53" stop-opacity="1"></stop><stop offset="85.55555555555554%" stop-color="#fbae3c" stop-opacity="1"></stop></linearGradient></defs><defs><linearGradient id="grad2_2" x1="0%" y1="0%" x2="56.3%" y2="100%"><stop offset="14.444444444444446%" stop-color="#f17c53" stop-opacity="1"></stop><stop offset="85.55555555555554%" stop-color="#cc5867" stop-opacity="1"></stop></linearGradient></defs><defs><linearGradient id="grad2_3" x1="0%" y1="0%" x2="56.3%" y2="100%"><stop offset="14.444444444444446%" stop-color="#96446e" stop-opacity="1"></stop><stop offset="85.55555555555554%" stop-color="#cc5867" stop-opacity="1"></stop></linearGradient></defs><defs><linearGradient id="grad2_4" x1="0%" y1="0%" x2="56.3%" y2="100%"><stop offset="14.444444444444446%" stop-color="#96446e" stop-opacity="1"></stop><stop offset="85.55555555555554%" stop-color="#593762" stop-opacity="1"></stop></linearGradient></defs><defs><linearGradient id="grad2_5" x1="0%" y1="0%" x2="56.3%" y2="100%"><stop offset="14.444444444444446%" stop-color="#232745" stop-opacity="1"></stop><stop offset="85.55555555555554%" stop-color="#593762" stop-opacity="1"></stop></linearGradient></defs><defs><linearGradient id="grad2_6" x1="0%" y1="0%" x2="56.3%" y2="100%"><stop offset="14.444444444444446%" stop-color="#232745" stop-opacity="1"></stop><stop offset="85.55555555555554%" stop-color="#001220" stop-opacity="1"></stop></linearGradient></defs><g transform="translate(1920, 0)"><path d="M0 594C-35.3 594.2 -70.5 594.4 -102.8 583C-135.1 571.6 -164.3 548.5 -192.6 529C-220.8 509.6 -248 493.8 -277.5 480.6C-307 467.5 -339 456.9 -369.6 440.5C-400.2 424 -429.6 401.6 -440.5 369.6C-451.3 337.6 -443.6 295.9 -465.9 269C-488.2 242.1 -540.4 230 -558.2 203.2C-575.9 176.4 -559.2 134.9 -559.4 98.6C-559.6 62.3 -576.8 31.2 -594 0L0 0Z" fill="#0f1d33"></path><path d="M0 509.1C-30.2 509.3 -60.5 509.5 -88.1 499.7C-115.8 489.9 -140.9 470.1 -165 453.5C-189.2 436.8 -212.5 423.3 -237.9 412C-263.2 400.7 -290.5 391.7 -316.8 377.6C-343.1 363.4 -368.3 344.3 -377.6 316.8C-386.8 289.4 -380.3 253.6 -399.4 230.6C-418.5 207.5 -463.2 197.1 -478.4 174.1C-493.6 151.2 -479.3 115.7 -479.5 84.5C-479.6 53.4 -494.4 26.7 -509.1 0L0 0Z" fill="#3d3056"></path><path d="M0 424.3C-25.2 424.4 -50.4 424.6 -73.4 416.4C-96.5 408.3 -117.4 391.8 -137.5 377.9C-157.7 364 -177.1 352.7 -198.2 343.3C-219.3 333.9 -242.1 326.4 -264 314.6C-285.9 302.9 -306.9 286.9 -314.6 264C-322.4 241.1 -316.9 211.4 -332.8 192.1C-348.7 172.9 -386 164.3 -398.7 145.1C-411.4 126 -399.4 96.4 -399.6 70.5C-399.7 44.5 -412 22.3 -424.3 0L0 0Z" fill="#773d6b"></path><path d="M0 339.4C-20.2 339.6 -40.3 339.7 -58.7 333.1C-77.2 326.6 -93.9 313.4 -110 302.3C-126.2 291.2 -141.7 282.2 -158.6 274.7C-175.5 267.1 -193.7 261.1 -211.2 251.7C-228.7 242.3 -245.5 229.5 -251.7 211.2C-257.9 192.9 -253.5 169.1 -266.2 153.7C-279 138.3 -308.8 131.4 -319 116.1C-329.1 100.8 -319.5 77.1 -319.6 56.4C-319.8 35.6 -329.6 17.8 -339.4 0L0 0Z" fill="#b34c6d"></path><path d="M0 254.6C-15.1 254.7 -30.2 254.8 -44.1 249.9C-57.9 245 -70.4 235.1 -82.5 226.7C-94.6 218.4 -106.3 211.6 -118.9 206C-131.6 200.3 -145.3 195.8 -158.4 188.8C-171.5 181.7 -184.1 172.1 -188.8 158.4C-193.4 144.7 -190.1 126.8 -199.7 115.3C-209.2 103.8 -231.6 98.6 -239.2 87.1C-246.8 75.6 -239.6 57.8 -239.7 42.3C-239.8 26.7 -247.2 13.4 -254.6 0L0 0Z" fill="#e1685e"></path><path d="M0 169.7C-10.1 169.8 -20.2 169.8 -29.4 166.6C-38.6 163.3 -47 156.7 -55 151.2C-63.1 145.6 -70.8 141.1 -79.3 137.3C-87.7 133.6 -96.8 130.6 -105.6 125.9C-114.4 121.1 -122.8 114.8 -125.9 105.6C-128.9 96.5 -126.8 84.5 -133.1 76.9C-139.5 69.2 -154.4 65.7 -159.5 58C-164.5 50.4 -159.8 38.6 -159.8 28.2C-159.9 17.8 -164.8 8.9 -169.7 0L0 0Z" fill="#f99447"></path><path d="M0 84.9C-5 84.9 -10.1 84.9 -14.7 83.3C-19.3 81.7 -23.5 78.4 -27.5 75.6C-31.5 72.8 -35.4 70.5 -39.6 68.7C-43.9 66.8 -48.4 65.3 -52.8 62.9C-57.2 60.6 -61.4 57.4 -62.9 52.8C-64.5 48.2 -63.4 42.3 -66.6 38.4C-69.7 34.6 -77.2 32.9 -79.7 29C-82.3 25.2 -79.9 19.3 -79.9 14.1C-79.9 8.9 -82.4 4.5 -84.9 0L0 0Z" fill="#fbae3c"></path></g><g transform="translate(0, 1080)"><path d="M0 -594C31.4 -571.7 62.8 -549.5 95.2 -539.7C127.5 -529.9 160.8 -532.5 189.8 -521.5C218.9 -510.6 243.7 -486.1 270.5 -468.5C297.3 -451 326.1 -440.3 360.6 -429.8C395.1 -419.2 435.3 -408.6 455 -381.8C474.8 -355 474.2 -312 479.8 -277C485.4 -242 497.3 -215 515 -187.4C532.6 -159.9 556.1 -131.9 570.2 -100.5C584.3 -69.2 589.2 -34.6 594 0L0 0Z" fill="#0f1d33"></path><path d="M0 -509.1C26.9 -490.1 53.8 -471 81.6 -462.6C109.3 -454.2 137.8 -456.4 162.7 -447C187.6 -437.6 208.9 -416.6 231.9 -401.6C254.8 -386.5 279.5 -377.4 309.1 -368.4C338.7 -359.3 373.1 -350.2 390 -327.3C407 -304.3 406.4 -267.4 411.2 -237.4C416.1 -207.4 426.2 -184.2 441.4 -160.7C456.5 -137.1 476.6 -113 488.7 -86.2C500.9 -59.3 505 -29.7 509.1 0L0 0Z" fill="#3d3056"></path><path d="M0 -424.3C22.4 -408.4 44.9 -392.5 68 -385.5C91.1 -378.5 114.8 -380.3 135.6 -372.5C156.3 -364.7 174.1 -347.2 193.2 -334.7C212.4 -322.1 232.9 -314.5 257.6 -307C282.2 -299.4 310.9 -291.9 325 -272.7C339.1 -253.6 338.7 -222.9 342.7 -197.9C346.7 -172.8 355.2 -153.5 367.8 -133.9C380.4 -114.2 397.2 -94.2 407.3 -71.8C417.4 -49.4 420.8 -24.7 424.3 0L0 0Z" fill="#773d6b"></path><path d="M0 -339.4C17.9 -326.7 35.9 -314 54.4 -308.4C72.9 -302.8 91.9 -304.3 108.5 -298C125.1 -291.8 139.3 -277.8 154.6 -267.7C169.9 -257.7 186.4 -251.6 206.1 -245.6C225.8 -239.5 248.7 -233.5 260 -218.2C271.3 -202.9 270.9 -178.3 274.2 -158.3C277.4 -138.3 284.2 -122.8 294.3 -107.1C304.4 -91.4 317.8 -75.4 325.8 -57.5C333.9 -39.6 336.7 -19.8 339.4 0L0 0Z" fill="#b34c6d"></path><path d="M0 -254.6C13.5 -245 26.9 -235.5 40.8 -231.3C54.6 -227.1 68.9 -228.2 81.4 -223.5C93.8 -218.8 104.4 -208.3 115.9 -200.8C127.4 -193.3 139.8 -188.7 154.5 -184.2C169.3 -179.6 186.5 -175.1 195 -163.6C203.5 -152.2 203.2 -133.7 205.6 -118.7C208 -103.7 213.1 -92.1 220.7 -80.3C228.3 -68.5 238.3 -56.5 244.4 -43.1C250.4 -29.7 252.5 -14.8 254.6 0L0 0Z" fill="#e1685e"></path><path d="M0 -169.7C9 -163.4 17.9 -157 27.2 -154.2C36.4 -151.4 45.9 -152.1 54.2 -149C62.5 -145.9 69.6 -138.9 77.3 -133.9C84.9 -128.8 93.2 -125.8 103 -122.8C112.9 -119.8 124.4 -116.7 130 -109.1C135.7 -101.4 135.5 -89.1 137.1 -79.1C138.7 -69.1 142.1 -61.4 147.1 -53.6C152.2 -45.7 158.9 -37.7 162.9 -28.7C167 -19.8 168.3 -9.9 169.7 0L0 0Z" fill="#f99447"></path><path d="M0 -84.9C4.5 -81.7 9 -78.5 13.6 -77.1C18.2 -75.7 23 -76.1 27.1 -74.5C31.3 -72.9 34.8 -69.4 38.6 -66.9C42.5 -64.4 46.6 -62.9 51.5 -61.4C56.4 -59.9 62.2 -58.4 65 -54.5C67.8 -50.7 67.7 -44.6 68.5 -39.6C69.3 -34.6 71 -30.7 73.6 -26.8C76.1 -22.8 79.4 -18.8 81.5 -14.4C83.5 -9.9 84.2 -4.9 84.9 0L0 0Z" fill="#fbae3c"></path></g></svg>