<svg id="visual" viewBox="0 0 1920 1080" width="1920" height="1080" xmlns="http://www.w3.org/2000/svg" xmlns:xlink="http://www.w3.org/1999/xlink" version="1.1"><rect x="0" y="0" width="1920" height="1080" fill="#001220"></rect><defs><linearGradient id="grad1_0" x1="43.8%" y1="100%" x2="100%" y2="0%"><stop offset="14.444444444444446%" stop-color="#fbae3c" stop-opacity="1"></stop><stop offset="85.55555555555554%" stop-color="#fbae3c" stop-opacity="1"></stop></linearGradient></defs><defs><linearGradient id="grad1_1" x1="43.8%" y1="100%" x2="100%" y2="0%"><stop offset="14.444444444444446%" stop-color="#fbae3c" stop-opacity="1"></stop><stop offset="85.55555555555554%" stop-color="#f17c53" stop-opacity="1"></stop></linearGradient></defs><defs><linearGradient id="grad1_2" x1="43.8%" y1="100%" x2="100%" y2="0%"><stop offset="14.444444444444446%" stop-color="#cc5867" stop-opacity="1"></stop><stop offset="85.55555555555554%" stop-color="#f17c53" stop-opacity="1"></stop></linearGradient></defs><defs><linearGradient id="grad1_3" x1="43.8%" y1="100%" x2="100%" y2="0%"><stop offset="14.444444444444446%" stop-color="#cc5867" stop-opacity="1"></stop><stop offset="85.55555555555554%" stop-color="#96446e" stop-opacity="1"></stop></linearGradient></defs><defs><linearGradient id="grad1_4" x1="43.8%" y1="100%" x2="100%" y2="0%"><stop offset="14.444444444444446%" stop-color="#593762" stop-opacity="1"></stop><stop offset="85.55555555555554%" stop-color="#96446e" stop-opacity="1"></stop></linearGradient></defs><defs><linearGradient id="grad1_5" x1="43.8%" y1="100%" x2="100%" y2="0%"><stop offset="14.444444444444446%" stop-color="#593762" stop-opacity="1"></stop><stop offset="85.55555555555554%" stop-color="#232745" stop-opacity="1"></stop></linearGradient></defs><defs><linearGradient id="grad1_6" x1="43.8%" y1="100%" x2="100%" y2="0%"><stop offset="14.444444444444446%" stop-color="#001220" stop-opacity="1"></stop><stop offset="85.55555555555554%" stop-color="#232745" stop-opacity="1"></stop></linearGradient></defs><defs><linearGradient id="grad2_0" x1="0%" y1="100%" x2="56.3%" y2="0%"><stop offset="14.444444444444446%" stop-color="#fbae3c" stop-opacity="1"></stop><stop offset="85.55555555555554%" stop-color="#fbae3c" stop-opacity="1"></stop></linearGradient></defs><defs><linearGradient id="grad2_1" x1="0%" y1="100%" x2="56.3%" y2="0%"><stop offset="14.444444444444446%" stop-color="#f17c53" stop-opacity="1"></stop><stop offset="85.55555555555554%" stop-color="#fbae3c" stop-opacity="1"></stop></linearGradient></defs><defs><linearGradient id="grad2_2" x1="0%" y1="100%" x2="56.3%" y2="0%"><stop offset="14.444444444444446%" stop-color="#f17c53" stop-opacity="1"></stop><stop offset="85.55555555555554%" stop-color="#cc5867" stop-opacity="1"></stop></linearGradient></defs><defs><linearGradient id="grad2_3" x1="0%" y1="100%" x2="56.3%" y2="0%"><stop offset="14.444444444444446%" stop-color="#96446e" stop-opacity="1"></stop><stop offset="85.55555555555554%" stop-color="#cc5867" stop-opacity="1"></stop></linearGradient></defs><defs><linearGradient id="grad2_4" x1="0%" y1="100%" x2="56.3%" y2="0%"><stop offset="14.444444444444446%" stop-color="#96446e" stop-opacity="1"></stop><stop offset="85.55555555555554%" stop-color="#593762" stop-opacity="1"></stop></linearGradient></defs><defs><linearGradient id="grad2_5" x1="0%" y1="100%" x2="56.3%" y2="0%"><stop offset="14.444444444444446%" stop-color="#232745" stop-opacity="1"></stop><stop offset="85.55555555555554%" stop-color="#593762" stop-opacity="1"></stop></linearGradient></defs><defs><linearGradient id="grad2_6" x1="0%" y1="100%" x2="56.3%" y2="0%"><stop offset="14.444444444444446%" stop-color="#232745" stop-opacity="1"></stop><stop offset="85.55555555555554%" stop-color="#001220" stop-opacity="1"></stop></linearGradient></defs><g transform="translate(1920, 1080)"><path d="M-594 0C-594.2 -35.3 -594.4 -70.5 -583 -102.8C-571.6 -135.1 -548.5 -164.3 -529 -192.6C-509.6 -220.8 -493.8 -248 -480.6 -277.5C-467.5 -307 -456.9 -339 -440.5 -369.6C-424 -400.2 -401.6 -429.6 -369.6 -440.5C-337.6 -451.3 -295.9 -443.6 -269 -465.9C-242.1 -488.2 -230 -540.4 -203.2 -558.2C-176.4 -575.9 -134.9 -559.2 -98.6 -559.4C-62.3 -559.6 -31.2 -576.8 0 -594L0 0Z" fill="#0f1d33"></path><path d="M-509.1 0C-509.3 -30.2 -509.5 -60.5 -499.7 -88.1C-489.9 -115.8 -470.1 -140.9 -453.5 -165C-436.8 -189.2 -423.3 -212.5 -412 -237.9C-400.7 -263.2 -391.7 -290.5 -377.6 -316.8C-363.4 -343.1 -344.3 -368.3 -316.8 -377.6C-289.4 -386.8 -253.6 -380.3 -230.6 -399.4C-207.5 -418.5 -197.1 -463.2 -174.1 -478.4C-151.2 -493.6 -115.7 -479.3 -84.5 -479.5C-53.4 -479.6 -26.7 -494.4 0 -509.1L0 0Z" fill="#3d3056"></path><path d="M-424.3 0C-424.4 -25.2 -424.6 -50.4 -416.4 -73.4C-408.3 -96.5 -391.8 -117.4 -377.9 -137.5C-364 -157.7 -352.7 -177.1 -343.3 -198.2C-333.9 -219.3 -326.4 -242.1 -314.6 -264C-302.9 -285.9 -286.9 -306.9 -264 -314.6C-241.1 -322.4 -211.4 -316.9 -192.1 -332.8C-172.9 -348.7 -164.3 -386 -145.1 -398.7C-126 -411.4 -96.4 -399.4 -70.5 -399.6C-44.5 -399.7 -22.3 -412 0 -424.3L0 0Z" fill="#773d6b"></path><path d="M-339.4 0C-339.6 -20.2 -339.7 -40.3 -333.1 -58.7C-326.6 -77.2 -313.4 -93.9 -302.3 -110C-291.2 -126.2 -282.2 -141.7 -274.7 -158.6C-267.1 -175.5 -261.1 -193.7 -251.7 -211.2C-242.3 -228.7 -229.5 -245.5 -211.2 -251.7C-192.9 -257.9 -169.1 -253.5 -153.7 -266.2C-138.3 -279 -131.4 -308.8 -116.1 -319C-100.8 -329.1 -77.1 -319.5 -56.4 -319.6C-35.6 -319.8 -17.8 -329.6 0 -339.4L0 0Z" fill="#b34c6d"></path><path d="M-254.6 0C-254.7 -15.1 -254.8 -30.2 -249.9 -44.1C-245 -57.9 -235.1 -70.4 -226.7 -82.5C-218.4 -94.6 -211.6 -106.3 -206 -118.9C-200.3 -131.6 -195.8 -145.3 -188.8 -158.4C-181.7 -171.5 -172.1 -184.1 -158.4 -188.8C-144.7 -193.4 -126.8 -190.1 -115.3 -199.7C-103.8 -209.2 -98.6 -231.6 -87.1 -239.2C-75.6 -246.8 -57.8 -239.6 -42.3 -239.7C-26.7 -239.8 -13.4 -247.2 0 -254.6L0 0Z" fill="#e1685e"></path><path d="M-169.7 0C-169.8 -10.1 -169.8 -20.2 -166.6 -29.4C-163.3 -38.6 -156.7 -47 -151.2 -55C-145.6 -63.1 -141.1 -70.8 -137.3 -79.3C-133.6 -87.7 -130.6 -96.8 -125.9 -105.6C-121.1 -114.4 -114.8 -122.8 -105.6 -125.9C-96.5 -128.9 -84.5 -126.8 -76.9 -133.1C-69.2 -139.5 -65.7 -154.4 -58 -159.5C-50.4 -164.5 -38.6 -159.8 -28.2 -159.8C-17.8 -159.9 -8.9 -164.8 0 -169.7L0 0Z" fill="#f99447"></path><path d="M-84.9 0C-84.9 -5 -84.9 -10.1 -83.3 -14.7C-81.7 -19.3 -78.4 -23.5 -75.6 -27.5C-72.8 -31.5 -70.5 -35.4 -68.7 -39.6C-66.8 -43.9 -65.3 -48.4 -62.9 -52.8C-60.6 -57.2 -57.4 -61.4 -52.8 -62.9C-48.2 -64.5 -42.3 -63.4 -38.4 -66.6C-34.6 -69.7 -32.9 -77.2 -29 -79.7C-25.2 -82.3 -19.3 -79.9 -14.1 -79.9C-8.9 -79.9 -4.5 -82.4 0 -84.9L0 0Z" fill="#fbae3c"></path></g><g transform="translate(0, 0)"><path d="M594 0C571.7 31.4 549.5 62.8 539.7 95.2C529.9 127.5 532.5 160.8 521.5 189.8C510.6 218.9 486.1 243.7 468.5 270.5C451 297.3 440.3 326.1 429.8 360.6C419.2 395.1 408.6 435.3 381.8 455C355 474.8 312 474.2 277 479.8C242 485.4 215 497.3 187.4 515C159.9 532.6 131.9 556.1 100.5 570.2C69.2 584.3 34.6 589.2 0 594L0 0Z" fill="#0f1d33"></path><path d="M509.1 0C490.1 26.9 471 53.8 462.6 81.6C454.2 109.3 456.4 137.8 447 162.7C437.6 187.6 416.6 208.9 401.6 231.9C386.5 254.8 377.4 279.5 368.4 309.1C359.3 338.7 350.2 373.1 327.3 390C304.3 407 267.4 406.4 237.4 411.2C207.4 416.1 184.2 426.2 160.7 441.4C137.1 456.5 113 476.6 86.2 488.7C59.3 500.9 29.7 505 0 509.1L0 0Z" fill="#3d3056"></path><path d="M424.3 0C408.4 22.4 392.5 44.9 385.5 68C378.5 91.1 380.3 114.8 372.5 135.6C364.7 156.3 347.2 174.1 334.7 193.2C322.1 212.4 314.5 232.9 307 257.6C299.4 282.2 291.9 310.9 272.7 325C253.6 339.1 222.9 338.7 197.9 342.7C172.8 346.7 153.5 355.2 133.9 367.8C114.2 380.4 94.2 397.2 71.8 407.3C49.4 417.4 24.7 420.8 0 424.3L0 0Z" fill="#773d6b"></path><path d="M339.4 0C326.7 17.9 314 35.9 308.4 54.4C302.8 72.9 304.3 91.9 298 108.5C291.8 125.1 277.8 139.3 267.7 154.6C257.7 169.9 251.6 186.4 245.6 206.1C239.5 225.8 233.5 248.7 218.2 260C202.9 271.3 178.3 270.9 158.3 274.2C138.3 277.4 122.8 284.2 107.1 294.3C91.4 304.4 75.4 317.8 57.5 325.8C39.6 333.9 19.8 336.7 0 339.4L0 0Z" fill="#b34c6d"></path><path d="M254.6 0C245 13.5 235.5 26.9 231.3 40.8C227.1 54.6 228.2 68.9 223.5 81.4C218.8 93.8 208.3 104.4 200.8 115.9C193.3 127.4 188.7 139.8 184.2 154.5C179.6 169.3 175.1 186.5 163.6 195C152.2 203.5 133.7 203.2 118.7 205.6C103.7 208 92.1 213.1 80.3 220.7C68.5 228.3 56.5 238.3 43.1 244.4C29.7 250.4 14.8 252.5 0 254.6L0 0Z" fill="#e1685e"></path><path d="M169.7 0C163.4 9 157 17.9 154.2 27.2C151.4 36.4 152.1 45.9 149 54.2C145.9 62.5 138.9 69.6 133.9 77.3C128.8 84.9 125.8 93.2 122.8 103C119.8 112.9 116.7 124.4 109.1 130C101.4 135.7 89.1 135.5 79.1 137.1C69.1 138.7 61.4 142.1 53.6 147.1C45.7 152.2 37.7 158.9 28.7 162.9C19.8 167 9.9 168.3 0 169.7L0 0Z" fill="#f99447"></path><path d="M84.9 0C81.7 4.5 78.5 9 77.1 13.6C75.7 18.2 76.1 23 74.5 27.1C72.9 31.3 69.4 34.8 66.9 38.6C64.4 42.5 62.9 46.6 61.4 51.5C59.9 56.4 58.4 62.2 54.5 65C50.7 67.8 44.6 67.7 39.6 68.5C34.6 69.3 30.7 71 26.8 73.6C22.8 76.1 18.8 79.4 14.4 81.5C9.9 83.5 4.9 84.2 0 84.9L0 0Z" fill="#fbae3c"></path></g></svg>