<svg id="visual" viewBox="0 0 675 900" width="675" height="900" xmlns="http://www.w3.org/2000/svg" xmlns:xlink="http://www.w3.org/1999/xlink" version="1.1"><rect width="675" height="900" fill="#1D1A39"></rect><g><g transform="translate(518 392)"><path d="M82 -25.3C93.4 8.3 80.8 51.1 50.7 74C20.6 96.9 -27 99.8 -57.8 77.8C-88.7 55.9 -102.7 9 -90.2 -26.1C-77.8 -61.2 -38.9 -84.6 -1.8 -84C35.3 -83.4 70.7 -58.9 82 -25.3Z" stroke="#E8BCB9" fill="none" stroke-width="20"></path></g><g transform="translate(285 685)"><path d="M57.4 -17.9C65 4.9 55.5 34 36.1 47.6C16.8 61.1 -12.3 59.1 -30.6 45.1C-48.8 31.1 -56.2 5.2 -49.3 -16.6C-42.4 -38.4 -21.2 -56.1 1.8 -56.6C24.9 -57.2 49.7 -40.7 57.4 -17.9Z" stroke="#E8BCB9" fill="none" stroke-width="20"></path></g><g transform="translate(242 138)"><path d="M74.8 -23.6C85.3 7.9 74 47.1 46.6 67.9C19.2 88.6 -24.3 91 -54.1 70.3C-83.8 49.6 -99.9 6 -88.6 -26.6C-77.4 -59.2 -38.7 -80.7 -3.2 -79.6C32.2 -78.6 64.4 -55 74.8 -23.6Z" stroke="#E8BCB9" fill="none" stroke-width="20"></path></g><g transform="translate(173 435)"><path d="M41.4 -12C47.4 4.9 41.6 27.1 27.2 37.6C12.8 48.1 -10.3 47 -26.8 35.4C-43.3 23.7 -53.2 1.6 -47.7 -14.7C-42.1 -31 -21.1 -41.4 -1.7 -40.9C17.7 -40.3 35.5 -28.8 41.4 -12Z" stroke="#E8BCB9" fill="none" stroke-width="20"></path></g></g></svg>