<svg id="visual" viewBox="0 0 675 900" width="675" height="900" xmlns="http://www.w3.org/2000/svg" xmlns:xlink="http://www.w3.org/1999/xlink" version="1.1"><rect width="675" height="900" fill="#1D1A39"></rect><g><g transform="translate(228 566)"><path d="M80 -25.7C91.1 8.2 79 50.1 50.7 70.9C22.4 91.7 -22 91.5 -49.2 71C-76.5 50.4 -86.6 9.5 -75.5 -24.4C-64.5 -58.2 -32.2 -85 1.1 -85.4C34.4 -85.7 68.9 -59.6 80 -25.7Z" stroke="#E8BCB9" fill="none" stroke-width="20"></path></g><g transform="translate(429 163)"><path d="M20 -7.1C22.5 1 18.6 10.7 11.6 15.6C4.7 20.6 -5.4 21 -11.5 16.4C-17.6 11.8 -19.7 2.4 -17.2 -5.9C-14.6 -14.2 -7.3 -21.3 0.8 -21.6C8.8 -21.8 17.6 -15.2 20 -7.1Z" stroke="#E8BCB9" fill="none" stroke-width="20"></path></g><g transform="translate(418 762)"><path d="M74.8 -28.5C84.2 4.5 70.2 40.9 42.1 62.3C14.1 83.8 -28.1 90.2 -55.7 71.4C-83.4 52.5 -96.6 8.4 -84.9 -27.8C-73.2 -64.1 -36.6 -92.5 -2 -91.8C32.7 -91.2 65.4 -61.5 74.8 -28.5Z" stroke="#E8BCB9" fill="none" stroke-width="20"></path></g><g transform="translate(522 469)"><path d="M64.4 -20.8C73.5 7.1 64 41 41.3 57.7C18.7 74.3 -17.1 73.6 -40.1 56.6C-63.1 39.5 -73.3 6.2 -64.5 -21.3C-55.7 -48.8 -27.8 -70.5 -0.1 -70.5C27.6 -70.5 55.3 -48.7 64.4 -20.8Z" stroke="#E8BCB9" fill="none" stroke-width="20"></path></g><g transform="translate(146 239)"><path d="M15.2 -5.5C17.1 0.9 14.3 8.3 8.9 12.2C3.6 16 -4.2 16.3 -9.1 12.7C-14 9.1 -16 1.6 -14 -4.9C-12 -11.5 -6 -17.1 0.3 -17.2C6.6 -17.3 13.3 -11.9 15.2 -5.5Z" stroke="#E8BCB9" fill="none" stroke-width="20"></path></g></g></svg>