<svg id="visual" viewBox="0 0 675 900" width="675" height="900" xmlns="http://www.w3.org/2000/svg" xmlns:xlink="http://www.w3.org/1999/xlink" version="1.1"><rect width="675" height="900" fill="#1D1A39"></rect><g><g transform="translate(349 458)"><path d="M80.6 -26.5C92.6 10.7 82.3 54.9 53.3 76.8C24.4 98.7 -23.3 98.2 -52.4 76.1C-81.4 54.1 -91.8 10.4 -80 -26.6C-68.2 -63.7 -34.1 -94.1 0.1 -94.2C34.3 -94.2 68.6 -63.8 80.6 -26.5Z" stroke="#E8BCB9" fill="none" stroke-width="20"></path></g><g transform="translate(234 174)"><path d="M43.5 -16.1C49.5 4.4 42.8 27 26 40.2C9.3 53.4 -17.5 57.2 -33.2 45.8C-48.9 34.4 -53.4 7.8 -46 -14.5C-38.6 -36.9 -19.3 -54.9 -0.3 -54.8C18.7 -54.7 37.5 -36.5 43.5 -16.1Z" stroke="#E8BCB9" fill="none" stroke-width="20"></path></g><g transform="translate(495 744)"><path d="M64.6 -20.5C71.8 1.1 57.4 30.2 35.6 45.2C13.7 60.2 -15.6 61 -36.9 46.6C-58.2 32.1 -71.4 2.3 -63.9 -19.7C-56.4 -41.7 -28.2 -55.9 0.3 -56C28.7 -56 57.4 -42 64.6 -20.5Z" stroke="#E8BCB9" fill="none" stroke-width="20"></path></g><g transform="translate(540 228)"><path d="M44.2 -14.8C49.6 2.2 41 23.4 26.1 33.7C11.2 43.9 -9.9 43.3 -25.5 32.6C-41 21.9 -51.1 1 -45.9 -15.8C-40.7 -32.5 -20.4 -45.2 -0.5 -45C19.4 -44.9 38.8 -31.9 44.2 -14.8Z" stroke="#E8BCB9" fill="none" stroke-width="20"></path></g><g transform="translate(143 638)"><path d="M38.6 -13C43.4 2.5 36.4 21.4 22.3 31.9C8.2 42.5 -12.9 44.6 -26.3 35.2C-39.7 25.7 -45.3 4.6 -39.6 -12C-33.9 -28.6 -17 -40.7 -0.1 -40.7C16.8 -40.6 33.7 -28.5 38.6 -13Z" stroke="#E8BCB9" fill="none" stroke-width="20"></path></g></g></svg>