<svg id="visual" viewBox="0 0 960 90" width="960" height="90" xmlns="http://www.w3.org/2000/svg" xmlns:xlink="http://www.w3.org/1999/xlink" version="1.1"><path d="M0 53L8 56C16 59 32 65 48 64.8C64 64.7 80 58.3 96 57.2C112 56 128 60 144 58.8C160 57.7 176 51.3 192 50.3C208 49.3 224 53.7 240 54C256 54.3 272 50.7 288 48.7C304 46.7 320 46.3 336 47.7C352 49 368 52 384 54C400 56 416 57 432 55.2C448 53.3 464 48.7 480 49.3C496 50 512 56 528 57.7C544 59.3 560 56.7 576 54C592 51.3 608 48.7 624 48.2C640 47.7 656 49.3 672 51.3C688 53.3 704 55.7 720 56.5C736 57.3 752 56.7 768 58.7C784 60.7 800 65.3 816 67.8C832 70.3 848 70.7 864 70.3C880 70 896 69 912 68.2C928 67.3 944 66.7 952 66.3L960 66L960 91L952 91C944 91 928 91 912 91C896 91 880 91 864 91C848 91 832 91 816 91C800 91 784 91 768 91C752 91 736 91 720 91C704 91 688 91 672 91C656 91 640 91 624 91C608 91 592 91 576 91C560 91 544 91 528 91C512 91 496 91 480 91C464 91 448 91 432 91C416 91 400 91 384 91C368 91 352 91 336 91C320 91 304 91 288 91C272 91 256 91 240 91C224 91 208 91 192 91C176 91 160 91 144 91C128 91 112 91 96 91C80 91 64 91 48 91C32 91 16 91 8 91L0 91Z" fill="#451952"></path><path d="M0 57L8 56.8C16 56.7 32 56.3 48 59.3C64 62.3 80 68.7 96 68.5C112 68.3 128 61.7 144 60C160 58.3 176 61.7 192 63.8C208 66 224 67 240 67.8C256 68.7 272 69.3 288 69.5C304 69.7 320 69.3 336 70.2C352 71 368 73 384 72.5C400 72 416 69 432 65.2C448 61.3 464 56.7 480 55.8C496 55 512 58 528 61.5C544 65 560 69 576 69.7C592 70.3 608 67.7 624 65.8C640 64 656 63 672 64.2C688 65.3 704 68.7 720 67C736 65.3 752 58.7 768 58C784 57.3 800 62.7 816 62.3C832 62 848 56 864 54C880 52 896 54 912 54.7C928 55.3 944 54.7 952 54.3L960 54L960 91L952 91C944 91 928 91 912 91C896 91 880 91 864 91C848 91 832 91 816 91C800 91 784 91 768 91C752 91 736 91 720 91C704 91 688 91 672 91C656 91 640 91 624 91C608 91 592 91 576 91C560 91 544 91 528 91C512 91 496 91 480 91C464 91 448 91 432 91C416 91 400 91 384 91C368 91 352 91 336 91C320 91 304 91 288 91C272 91 256 91 240 91C224 91 208 91 192 91C176 91 160 91 144 91C128 91 112 91 96 91C80 91 64 91 48 91C32 91 16 91 8 91L0 91Z" fill="#3d1b4f"></path><path d="M0 76L8 74.2C16 72.3 32 68.7 48 67.3C64 66 80 67 96 66.3C112 65.7 128 63.3 144 63.5C160 63.7 176 66.3 192 66C208 65.7 224 62.3 240 63.3C256 64.3 272 69.7 288 71C304 72.3 320 69.7 336 68.5C352 67.3 368 67.7 384 66.5C400 65.3 416 62.7 432 64.2C448 65.7 464 71.3 480 70.7C496 70 512 63 528 62C544 61 560 66 576 68C592 70 608 69 624 68.3C640 67.7 656 67.3 672 67.5C688 67.7 704 68.3 720 69.3C736 70.3 752 71.7 768 72.7C784 73.7 800 74.3 816 74.7C832 75 848 75 864 73.5C880 72 896 69 912 68.5C928 68 944 70 952 71L960 72L960 91L952 91C944 91 928 91 912 91C896 91 880 91 864 91C848 91 832 91 816 91C800 91 784 91 768 91C752 91 736 91 720 91C704 91 688 91 672 91C656 91 640 91 624 91C608 91 592 91 576 91C560 91 544 91 528 91C512 91 496 91 480 91C464 91 448 91 432 91C416 91 400 91 384 91C368 91 352 91 336 91C320 91 304 91 288 91C272 91 256 91 240 91C224 91 208 91 192 91C176 91 160 91 144 91C128 91 112 91 96 91C80 91 64 91 48 91C32 91 16 91 8 91L0 91Z" fill="#361c4b"></path><path d="M0 69L8 67.8C16 66.7 32 64.3 48 63.2C64 62 80 62 96 65C112 68 128 74 144 74.7C160 75.3 176 70.7 192 68.8C208 67 224 68 240 69.2C256 70.3 272 71.7 288 71C304 70.3 320 67.7 336 68.3C352 69 368 73 384 73.7C400 74.3 416 71.7 432 71C448 70.3 464 71.7 480 73.7C496 75.7 512 78.3 528 78.2C544 78 560 75 576 72C592 69 608 66 624 66.3C640 66.7 656 70.3 672 72.2C688 74 704 74 720 73.5C736 73 752 72 768 72.2C784 72.3 800 73.7 816 72.3C832 71 848 67 864 66.7C880 66.3 896 69.7 912 70.8C928 72 944 71 952 70.5L960 70L960 91L952 91C944 91 928 91 912 91C896 91 880 91 864 91C848 91 832 91 816 91C800 91 784 91 768 91C752 91 736 91 720 91C704 91 688 91 672 91C656 91 640 91 624 91C608 91 592 91 576 91C560 91 544 91 528 91C512 91 496 91 480 91C464 91 448 91 432 91C416 91 400 91 384 91C368 91 352 91 336 91C320 91 304 91 288 91C272 91 256 91 240 91C224 91 208 91 192 91C176 91 160 91 144 91C128 91 112 91 96 91C80 91 64 91 48 91C32 91 16 91 8 91L0 91Z" fill="#2f1c47"></path><path d="M0 81L8 80.5C16 80 32 79 48 78.3C64 77.7 80 77.3 96 77.7C112 78 128 79 144 78.2C160 77.3 176 74.7 192 73.2C208 71.7 224 71.3 240 71.2C256 71 272 71 288 72C304 73 320 75 336 75C352 75 368 73 384 72.8C400 72.7 416 74.3 432 74.5C448 74.7 464 73.3 480 72.5C496 71.7 512 71.3 528 70.8C544 70.3 560 69.7 576 70.3C592 71 608 73 624 74.5C640 76 656 77 672 77.5C688 78 704 78 720 78.2C736 78.3 752 78.7 768 79.3C784 80 800 81 816 81C832 81 848 80 864 80.2C880 80.3 896 81.7 912 80.7C928 79.7 944 76.3 952 74.7L960 73L960 91L952 91C944 91 928 91 912 91C896 91 880 91 864 91C848 91 832 91 816 91C800 91 784 91 768 91C752 91 736 91 720 91C704 91 688 91 672 91C656 91 640 91 624 91C608 91 592 91 576 91C560 91 544 91 528 91C512 91 496 91 480 91C464 91 448 91 432 91C416 91 400 91 384 91C368 91 352 91 336 91C320 91 304 91 288 91C272 91 256 91 240 91C224 91 208 91 192 91C176 91 160 91 144 91C128 91 112 91 96 91C80 91 64 91 48 91C32 91 16 91 8 91L0 91Z" fill="#281c43"></path><path d="M0 78L8 79C16 80 32 82 48 81.7C64 81.3 80 78.7 96 78.7C112 78.7 128 81.3 144 82C160 82.7 176 81.3 192 80.8C208 80.3 224 80.7 240 81C256 81.3 272 81.7 288 82.2C304 82.7 320 83.3 336 83.7C352 84 368 84 384 83.3C400 82.7 416 81.3 432 80.5C448 79.7 464 79.3 480 79.8C496 80.3 512 81.7 528 80.8C544 80 560 77 576 75.8C592 74.7 608 75.3 624 75.5C640 75.7 656 75.3 672 75.2C688 75 704 75 720 75.3C736 75.7 752 76.3 768 76C784 75.7 800 74.3 816 73.7C832 73 848 73 864 73.3C880 73.7 896 74.3 912 75.5C928 76.7 944 78.3 952 79.2L960 80L960 91L952 91C944 91 928 91 912 91C896 91 880 91 864 91C848 91 832 91 816 91C800 91 784 91 768 91C752 91 736 91 720 91C704 91 688 91 672 91C656 91 640 91 624 91C608 91 592 91 576 91C560 91 544 91 528 91C512 91 496 91 480 91C464 91 448 91 432 91C416 91 400 91 384 91C368 91 352 91 336 91C320 91 304 91 288 91C272 91 256 91 240 91C224 91 208 91 192 91C176 91 160 91 144 91C128 91 112 91 96 91C80 91 64 91 48 91C32 91 16 91 8 91L0 91Z" fill="#221b3e"></path><path d="M0 78L8 79.3C16 80.7 32 83.3 48 85.2C64 87 80 88 96 87C112 86 128 83 144 81.8C160 80.7 176 81.3 192 82.7C208 84 224 86 240 86C256 86 272 84 288 83.7C304 83.3 320 84.7 336 84.5C352 84.3 368 82.7 384 82.5C400 82.3 416 83.7 432 84.3C448 85 464 85 480 84.3C496 83.7 512 82.3 528 82.7C544 83 560 85 576 84.8C592 84.7 608 82.3 624 81.2C640 80 656 80 672 80.5C688 81 704 82 720 82.8C736 83.7 752 84.3 768 84.5C784 84.7 800 84.3 816 84C832 83.7 848 83.3 864 83.7C880 84 896 85 912 84.7C928 84.3 944 82.7 952 81.8L960 81L960 91L952 91C944 91 928 91 912 91C896 91 880 91 864 91C848 91 832 91 816 91C800 91 784 91 768 91C752 91 736 91 720 91C704 91 688 91 672 91C656 91 640 91 624 91C608 91 592 91 576 91C560 91 544 91 528 91C512 91 496 91 480 91C464 91 448 91 432 91C416 91 400 91 384 91C368 91 352 91 336 91C320 91 304 91 288 91C272 91 256 91 240 91C224 91 208 91 192 91C176 91 160 91 144 91C128 91 112 91 96 91C80 91 64 91 48 91C32 91 16 91 8 91L0 91Z" fill="#1d1a39"></path></svg>