<svg id="visual" viewBox="0 0 960 90" width="960" height="90" xmlns="http://www.w3.org/2000/svg" xmlns:xlink="http://www.w3.org/1999/xlink" version="1.1"><path d="M0 70L8 67.7C16 65.3 32 60.7 48 56.3C64 52 80 48 96 48C112 48 128 52 144 54.5C160 57 176 58 192 56.3C208 54.7 224 50.3 240 48.3C256 46.3 272 46.7 288 50.7C304 54.7 320 62.3 336 64.3C352 66.3 368 62.7 384 61.7C400 60.7 416 62.3 432 62.2C448 62 464 60 480 61C496 62 512 66 528 65.8C544 65.7 560 61.3 576 59.5C592 57.7 608 58.3 624 56.7C640 55 656 51 672 53.2C688 55.3 704 63.7 720 66.3C736 69 752 66 768 62.3C784 58.7 800 54.3 816 51.7C832 49 848 48 864 49.3C880 50.7 896 54.3 912 56.5C928 58.7 944 59.3 952 59.7L960 60L960 91L952 91C944 91 928 91 912 91C896 91 880 91 864 91C848 91 832 91 816 91C800 91 784 91 768 91C752 91 736 91 720 91C704 91 688 91 672 91C656 91 640 91 624 91C608 91 592 91 576 91C560 91 544 91 528 91C512 91 496 91 480 91C464 91 448 91 432 91C416 91 400 91 384 91C368 91 352 91 336 91C320 91 304 91 288 91C272 91 256 91 240 91C224 91 208 91 192 91C176 91 160 91 144 91C128 91 112 91 96 91C80 91 64 91 48 91C32 91 16 91 8 91L0 91Z" fill="#451952"></path><path d="M0 70L8 67.5C16 65 32 60 48 59.5C64 59 80 63 96 66C112 69 128 71 144 69C160 67 176 61 192 57.3C208 53.7 224 52.3 240 55.3C256 58.3 272 65.7 288 65.7C304 65.7 320 58.3 336 54.5C352 50.7 368 50.3 384 52C400 53.7 416 57.3 432 57.3C448 57.3 464 53.7 480 54.3C496 55 512 60 528 62.3C544 64.7 560 64.3 576 63.2C592 62 608 60 624 58C640 56 656 54 672 52.8C688 51.7 704 51.3 720 52.2C736 53 752 55 768 55.8C784 56.7 800 56.3 816 59.3C832 62.3 848 68.7 864 68.3C880 68 896 61 912 59.2C928 57.3 944 60.7 952 62.3L960 64L960 91L952 91C944 91 928 91 912 91C896 91 880 91 864 91C848 91 832 91 816 91C800 91 784 91 768 91C752 91 736 91 720 91C704 91 688 91 672 91C656 91 640 91 624 91C608 91 592 91 576 91C560 91 544 91 528 91C512 91 496 91 480 91C464 91 448 91 432 91C416 91 400 91 384 91C368 91 352 91 336 91C320 91 304 91 288 91C272 91 256 91 240 91C224 91 208 91 192 91C176 91 160 91 144 91C128 91 112 91 96 91C80 91 64 91 48 91C32 91 16 91 8 91L0 91Z" fill="#3d1b4f"></path><path d="M0 69L8 69.8C16 70.7 32 72.3 48 72C64 71.7 80 69.3 96 66.3C112 63.3 128 59.7 144 59.3C160 59 176 62 192 62.3C208 62.7 224 60.3 240 59C256 57.7 272 57.3 288 57.3C304 57.3 320 57.7 336 60.3C352 63 368 68 384 69.5C400 71 416 69 432 67C448 65 464 63 480 63.2C496 63.3 512 65.7 528 64.8C544 64 560 60 576 61.3C592 62.7 608 69.3 624 70.3C640 71.3 656 66.7 672 65.5C688 64.3 704 66.7 720 68.8C736 71 752 73 768 73.8C784 74.7 800 74.3 816 73.2C832 72 848 70 864 68.7C880 67.3 896 66.7 912 67.7C928 68.7 944 71.3 952 72.7L960 74L960 91L952 91C944 91 928 91 912 91C896 91 880 91 864 91C848 91 832 91 816 91C800 91 784 91 768 91C752 91 736 91 720 91C704 91 688 91 672 91C656 91 640 91 624 91C608 91 592 91 576 91C560 91 544 91 528 91C512 91 496 91 480 91C464 91 448 91 432 91C416 91 400 91 384 91C368 91 352 91 336 91C320 91 304 91 288 91C272 91 256 91 240 91C224 91 208 91 192 91C176 91 160 91 144 91C128 91 112 91 96 91C80 91 64 91 48 91C32 91 16 91 8 91L0 91Z" fill="#361c4b"></path><path d="M0 65L8 66.2C16 67.3 32 69.7 48 70.3C64 71 80 70 96 69C112 68 128 67 144 68.7C160 70.3 176 74.7 192 74C208 73.3 224 67.7 240 66.2C256 64.7 272 67.3 288 69.7C304 72 320 74 336 72.7C352 71.3 368 66.7 384 66.5C400 66.3 416 70.7 432 71.5C448 72.3 464 69.7 480 68.5C496 67.3 512 67.7 528 67C544 66.3 560 64.7 576 65C592 65.3 608 67.7 624 70.5C640 73.3 656 76.7 672 76.8C688 77 704 74 720 74C736 74 752 77 768 76C784 75 800 70 816 68.5C832 67 848 69 864 69.7C880 70.3 896 69.7 912 68.5C928 67.3 944 65.7 952 64.8L960 64L960 91L952 91C944 91 928 91 912 91C896 91 880 91 864 91C848 91 832 91 816 91C800 91 784 91 768 91C752 91 736 91 720 91C704 91 688 91 672 91C656 91 640 91 624 91C608 91 592 91 576 91C560 91 544 91 528 91C512 91 496 91 480 91C464 91 448 91 432 91C416 91 400 91 384 91C368 91 352 91 336 91C320 91 304 91 288 91C272 91 256 91 240 91C224 91 208 91 192 91C176 91 160 91 144 91C128 91 112 91 96 91C80 91 64 91 48 91C32 91 16 91 8 91L0 91Z" fill="#2f1c47"></path><path d="M0 75L8 75.8C16 76.7 32 78.3 48 77C64 75.7 80 71.3 96 71.7C112 72 128 77 144 77.7C160 78.3 176 74.7 192 73.8C208 73 224 75 240 74.8C256 74.7 272 72.3 288 73C304 73.7 320 77.3 336 78.8C352 80.3 368 79.7 384 77.3C400 75 416 71 432 71.2C448 71.3 464 75.7 480 76.5C496 77.3 512 74.7 528 74.7C544 74.7 560 77.3 576 76.7C592 76 608 72 624 70C640 68 656 68 672 70.2C688 72.3 704 76.7 720 76.8C736 77 752 73 768 73.2C784 73.3 800 77.7 816 79.5C832 81.3 848 80.7 864 79.3C880 78 896 76 912 74.8C928 73.7 944 73.3 952 73.2L960 73L960 91L952 91C944 91 928 91 912 91C896 91 880 91 864 91C848 91 832 91 816 91C800 91 784 91 768 91C752 91 736 91 720 91C704 91 688 91 672 91C656 91 640 91 624 91C608 91 592 91 576 91C560 91 544 91 528 91C512 91 496 91 480 91C464 91 448 91 432 91C416 91 400 91 384 91C368 91 352 91 336 91C320 91 304 91 288 91C272 91 256 91 240 91C224 91 208 91 192 91C176 91 160 91 144 91C128 91 112 91 96 91C80 91 64 91 48 91C32 91 16 91 8 91L0 91Z" fill="#281c43"></path><path d="M0 81L8 81.2C16 81.3 32 81.7 48 80.8C64 80 80 78 96 77.3C112 76.7 128 77.3 144 77.2C160 77 176 76 192 75.5C208 75 224 75 240 76C256 77 272 79 288 80C304 81 320 81 336 81.3C352 81.7 368 82.3 384 81.7C400 81 416 79 432 78.8C448 78.7 464 80.3 480 81C496 81.7 512 81.3 528 81C544 80.7 560 80.3 576 80.2C592 80 608 80 624 79C640 78 656 76 672 76.2C688 76.3 704 78.7 720 79.8C736 81 752 81 768 80.5C784 80 800 79 816 79C832 79 848 80 864 81C880 82 896 83 912 81.8C928 80.7 944 77.3 952 75.7L960 74L960 91L952 91C944 91 928 91 912 91C896 91 880 91 864 91C848 91 832 91 816 91C800 91 784 91 768 91C752 91 736 91 720 91C704 91 688 91 672 91C656 91 640 91 624 91C608 91 592 91 576 91C560 91 544 91 528 91C512 91 496 91 480 91C464 91 448 91 432 91C416 91 400 91 384 91C368 91 352 91 336 91C320 91 304 91 288 91C272 91 256 91 240 91C224 91 208 91 192 91C176 91 160 91 144 91C128 91 112 91 96 91C80 91 64 91 48 91C32 91 16 91 8 91L0 91Z" fill="#221b3e"></path><path d="M0 83L8 82.3C16 81.7 32 80.3 48 80.2C64 80 80 81 96 82.7C112 84.3 128 86.7 144 86.2C160 85.7 176 82.3 192 81.2C208 80 224 81 240 82.7C256 84.3 272 86.7 288 87.5C304 88.3 320 87.7 336 86.8C352 86 368 85 384 84.2C400 83.3 416 82.7 432 83C448 83.3 464 84.7 480 84.5C496 84.3 512 82.7 528 82C544 81.3 560 81.7 576 82.3C592 83 608 84 624 83.7C640 83.3 656 81.7 672 81.5C688 81.3 704 82.7 720 84C736 85.3 752 86.7 768 85.7C784 84.7 800 81.3 816 79.8C832 78.3 848 78.7 864 80.3C880 82 896 85 912 85.3C928 85.7 944 83.3 952 82.2L960 81L960 91L952 91C944 91 928 91 912 91C896 91 880 91 864 91C848 91 832 91 816 91C800 91 784 91 768 91C752 91 736 91 720 91C704 91 688 91 672 91C656 91 640 91 624 91C608 91 592 91 576 91C560 91 544 91 528 91C512 91 496 91 480 91C464 91 448 91 432 91C416 91 400 91 384 91C368 91 352 91 336 91C320 91 304 91 288 91C272 91 256 91 240 91C224 91 208 91 192 91C176 91 160 91 144 91C128 91 112 91 96 91C80 91 64 91 48 91C32 91 16 91 8 91L0 91Z" fill="#1d1a39"></path></svg>