<svg id="visual" viewBox="0 0 960 90" width="960" height="90" xmlns="http://www.w3.org/2000/svg" xmlns:xlink="http://www.w3.org/1999/xlink" version="1.1"><path d="M0 40L7 38.8C14 37.7 28 35.3 41.8 40.2C55.7 45 69.3 57 83.2 58.5C97 60 111 51 125 48.5C139 46 153 50 167 47.3C181 44.7 195 35.3 208.8 31.5C222.7 27.7 236.3 29.3 250.2 29.8C264 30.3 278 29.7 292 29.7C306 29.7 320 30.3 334 37.2C348 44 362 57 375.8 62C389.7 67 403.3 64 417.2 57.2C431 50.3 445 39.7 459 38.3C473 37 487 45 501 45.2C515 45.3 529 37.7 542.8 35.3C556.7 33 570.3 36 584.2 41.2C598 46.3 612 53.7 626 56.7C640 59.7 654 58.3 668 54.2C682 50 696 43 709.8 42.2C723.7 41.3 737.3 46.7 751.2 52.3C765 58 779 64 793 61C807 58 821 46 835 40.2C849 34.3 863 34.7 876.8 36.7C890.7 38.7 904.3 42.3 918.2 41.3C932 40.3 946 34.7 953 31.8L960 29L960 0L953 0C946 0 932 0 918.2 0C904.3 0 890.7 0 876.8 0C863 0 849 0 835 0C821 0 807 0 793 0C779 0 765 0 751.2 0C737.3 0 723.7 0 709.8 0C696 0 682 0 668 0C654 0 640 0 626 0C612 0 598 0 584.2 0C570.3 0 556.7 0 542.8 0C529 0 515 0 501 0C487 0 473 0 459 0C445 0 431 0 417.2 0C403.3 0 389.7 0 375.8 0C362 0 348 0 334 0C320 0 306 0 292 0C278 0 264 0 250.2 0C236.3 0 222.7 0 208.8 0C195 0 181 0 167 0C153 0 139 0 125 0C111 0 97 0 83.2 0C69.3 0 55.7 0 41.8 0C28 0 14 0 7 0L0 0Z" fill="#6c567b"></path><path d="M0 21L7 21.2C14 21.3 28 21.7 41.8 27.2C55.7 32.7 69.3 43.3 83.2 43.5C97 43.7 111 33.3 125 33.3C139 33.3 153 43.7 167 49.7C181 55.7 195 57.3 208.8 57C222.7 56.7 236.3 54.3 250.2 51C264 47.7 278 43.3 292 40C306 36.7 320 34.3 334 32.7C348 31 362 30 375.8 32.5C389.7 35 403.3 41 417.2 42.2C431 43.3 445 39.7 459 41.2C473 42.7 487 49.3 501 51C515 52.7 529 49.3 542.8 43.8C556.7 38.3 570.3 30.7 584.2 31.8C598 33 612 43 626 49.8C640 56.7 654 60.3 668 62C682 63.7 696 63.3 709.8 56.5C723.7 49.7 737.3 36.3 751.2 30.5C765 24.7 779 26.3 793 29.8C807 33.3 821 38.7 835 41.8C849 45 863 46 876.8 42.8C890.7 39.7 904.3 32.3 918.2 33.2C932 34 946 43 953 47.5L960 52L960 0L953 0C946 0 932 0 918.2 0C904.3 0 890.7 0 876.8 0C863 0 849 0 835 0C821 0 807 0 793 0C779 0 765 0 751.2 0C737.3 0 723.7 0 709.8 0C696 0 682 0 668 0C654 0 640 0 626 0C612 0 598 0 584.2 0C570.3 0 556.7 0 542.8 0C529 0 515 0 501 0C487 0 473 0 459 0C445 0 431 0 417.2 0C403.3 0 389.7 0 375.8 0C362 0 348 0 334 0C320 0 306 0 292 0C278 0 264 0 250.2 0C236.3 0 222.7 0 208.8 0C195 0 181 0 167 0C153 0 139 0 125 0C111 0 97 0 83.2 0C69.3 0 55.7 0 41.8 0C28 0 14 0 7 0L0 0Z" fill="#5c4a68"></path><path d="M0 18L7 18.8C14 19.7 28 21.3 41.8 21.7C55.7 22 69.3 21 83.2 21C97 21 111 22 125 21.5C139 21 153 19 167 18C181 17 195 17 208.8 18.3C222.7 19.7 236.3 22.3 250.2 27.5C264 32.7 278 40.3 292 43.2C306 46 320 44 334 44.8C348 45.7 362 49.3 375.8 50.2C389.7 51 403.3 49 417.2 46.5C431 44 445 41 459 40.8C473 40.7 487 43.3 501 44.3C515 45.3 529 44.7 542.8 41.7C556.7 38.7 570.3 33.3 584.2 32.5C598 31.7 612 35.3 626 38.7C640 42 654 45 668 46C682 47 696 46 709.8 46.3C723.7 46.7 737.3 48.3 751.2 43.8C765 39.3 779 28.7 793 28.8C807 29 821 40 835 45.7C849 51.3 863 51.7 876.8 51.3C890.7 51 904.3 50 918.2 44.8C932 39.7 946 30.3 953 25.7L960 21L960 0L953 0C946 0 932 0 918.2 0C904.3 0 890.7 0 876.8 0C863 0 849 0 835 0C821 0 807 0 793 0C779 0 765 0 751.2 0C737.3 0 723.7 0 709.8 0C696 0 682 0 668 0C654 0 640 0 626 0C612 0 598 0 584.2 0C570.3 0 556.7 0 542.8 0C529 0 515 0 501 0C487 0 473 0 459 0C445 0 431 0 417.2 0C403.3 0 389.7 0 375.8 0C362 0 348 0 334 0C320 0 306 0 292 0C278 0 264 0 250.2 0C236.3 0 222.7 0 208.8 0C195 0 181 0 167 0C153 0 139 0 125 0C111 0 97 0 83.2 0C69.3 0 55.7 0 41.8 0C28 0 14 0 7 0L0 0Z" fill="#4c3e56"></path><path d="M0 23L7 24.3C14 25.7 28 28.3 41.8 27C55.7 25.7 69.3 20.3 83.2 22.3C97 24.3 111 33.7 125 33.3C139 33 153 23 167 20.7C181 18.3 195 23.7 208.8 28.2C222.7 32.7 236.3 36.3 250.2 36.5C264 36.7 278 33.3 292 31.2C306 29 320 28 334 29.2C348 30.3 362 33.7 375.8 35.2C389.7 36.7 403.3 36.3 417.2 36.3C431 36.3 445 36.7 459 37.2C473 37.7 487 38.3 501 37.5C515 36.7 529 34.3 542.8 35.3C556.7 36.3 570.3 40.7 584.2 42.8C598 45 612 45 626 39.7C640 34.3 654 23.7 668 19.2C682 14.7 696 16.3 709.8 17.5C723.7 18.7 737.3 19.3 751.2 19.8C765 20.3 779 20.7 793 19.7C807 18.7 821 16.3 835 18.2C849 20 863 26 876.8 31C890.7 36 904.3 40 918.2 41.5C932 43 946 42 953 41.5L960 41L960 0L953 0C946 0 932 0 918.2 0C904.3 0 890.7 0 876.8 0C863 0 849 0 835 0C821 0 807 0 793 0C779 0 765 0 751.2 0C737.3 0 723.7 0 709.8 0C696 0 682 0 668 0C654 0 640 0 626 0C612 0 598 0 584.2 0C570.3 0 556.7 0 542.8 0C529 0 515 0 501 0C487 0 473 0 459 0C445 0 431 0 417.2 0C403.3 0 389.7 0 375.8 0C362 0 348 0 334 0C320 0 306 0 292 0C278 0 264 0 250.2 0C236.3 0 222.7 0 208.8 0C195 0 181 0 167 0C153 0 139 0 125 0C111 0 97 0 83.2 0C69.3 0 55.7 0 41.8 0C28 0 14 0 7 0L0 0Z" fill="#3d3344"></path><path d="M0 22L7 24C14 26 28 30 41.8 28.8C55.7 27.7 69.3 21.3 83.2 20.2C97 19 111 23 125 25C139 27 153 27 167 26.8C181 26.7 195 26.3 208.8 26.3C222.7 26.3 236.3 26.7 250.2 26.3C264 26 278 25 292 22C306 19 320 14 334 16C348 18 362 27 375.8 30.5C389.7 34 403.3 32 417.2 28.3C431 24.7 445 19.3 459 20C473 20.7 487 27.3 501 27.5C515 27.7 529 21.3 542.8 21C556.7 20.7 570.3 26.3 584.2 28.3C598 30.3 612 28.7 626 29.3C640 30 654 33 668 32.5C682 32 696 28 709.8 26.8C723.7 25.7 737.3 27.3 751.2 25.2C765 23 779 17 793 15C807 13 821 15 835 15.7C849 16.3 863 15.7 876.8 16.7C890.7 17.7 904.3 20.3 918.2 19.5C932 18.7 946 14.3 953 12.2L960 10L960 0L953 0C946 0 932 0 918.2 0C904.3 0 890.7 0 876.8 0C863 0 849 0 835 0C821 0 807 0 793 0C779 0 765 0 751.2 0C737.3 0 723.7 0 709.8 0C696 0 682 0 668 0C654 0 640 0 626 0C612 0 598 0 584.2 0C570.3 0 556.7 0 542.8 0C529 0 515 0 501 0C487 0 473 0 459 0C445 0 431 0 417.2 0C403.3 0 389.7 0 375.8 0C362 0 348 0 334 0C320 0 306 0 292 0C278 0 264 0 250.2 0C236.3 0 222.7 0 208.8 0C195 0 181 0 167 0C153 0 139 0 125 0C111 0 97 0 83.2 0C69.3 0 55.7 0 41.8 0C28 0 14 0 7 0L0 0Z" fill="#2f2833"></path><path d="M0 10L7 12.5C14 15 28 20 41.8 20.7C55.7 21.3 69.3 17.7 83.2 14.8C97 12 111 10 125 10.5C139 11 153 14 167 16.5C181 19 195 21 208.8 22.3C222.7 23.7 236.3 24.3 250.2 22C264 19.7 278 14.3 292 11.7C306 9 320 9 334 10C348 11 362 13 375.8 12.8C389.7 12.7 403.3 10.3 417.2 10.7C431 11 445 14 459 14.8C473 15.7 487 14.3 501 14.5C515 14.7 529 16.3 542.8 16.8C556.7 17.3 570.3 16.7 584.2 15.5C598 14.3 612 12.7 626 11.5C640 10.3 654 9.7 668 11.5C682 13.3 696 17.7 709.8 18.2C723.7 18.7 737.3 15.3 751.2 15.3C765 15.3 779 18.7 793 20C807 21.3 821 20.7 835 20.5C849 20.3 863 20.7 876.8 21.7C890.7 22.7 904.3 24.3 918.2 22C932 19.7 946 13.3 953 10.2L960 7L960 0L953 0C946 0 932 0 918.2 0C904.3 0 890.7 0 876.8 0C863 0 849 0 835 0C821 0 807 0 793 0C779 0 765 0 751.2 0C737.3 0 723.7 0 709.8 0C696 0 682 0 668 0C654 0 640 0 626 0C612 0 598 0 584.2 0C570.3 0 556.7 0 542.8 0C529 0 515 0 501 0C487 0 473 0 459 0C445 0 431 0 417.2 0C403.3 0 389.7 0 375.8 0C362 0 348 0 334 0C320 0 306 0 292 0C278 0 264 0 250.2 0C236.3 0 222.7 0 208.8 0C195 0 181 0 167 0C153 0 139 0 125 0C111 0 97 0 83.2 0C69.3 0 55.7 0 41.8 0C28 0 14 0 7 0L0 0Z" fill="#211e23"></path><path d="M0 4L7 5.7C14 7.3 28 10.7 41.8 12C55.7 13.3 69.3 12.7 83.2 11.8C97 11 111 10 125 9.3C139 8.7 153 8.3 167 8.2C181 8 195 8 208.8 8.8C222.7 9.7 236.3 11.3 250.2 10.7C264 10 278 7 292 7C306 7 320 10 334 11C348 12 362 11 375.8 11.7C389.7 12.3 403.3 14.7 417.2 13.2C431 11.7 445 6.3 459 6C473 5.7 487 10.3 501 12.3C515 14.3 529 13.7 542.8 13.5C556.7 13.3 570.3 13.7 584.2 13.3C598 13 612 12 626 11.7C640 11.3 654 11.7 668 11.3C682 11 696 10 709.8 9.3C723.7 8.7 737.3 8.3 751.2 7.5C765 6.7 779 5.3 793 4.3C807 3.3 821 2.7 835 4.2C849 5.7 863 9.3 876.8 9.3C890.7 9.3 904.3 5.7 918.2 4.7C932 3.7 946 5.3 953 6.2L960 7L960 0L953 0C946 0 932 0 918.2 0C904.3 0 890.7 0 876.8 0C863 0 849 0 835 0C821 0 807 0 793 0C779 0 765 0 751.2 0C737.3 0 723.7 0 709.8 0C696 0 682 0 668 0C654 0 640 0 626 0C612 0 598 0 584.2 0C570.3 0 556.7 0 542.8 0C529 0 515 0 501 0C487 0 473 0 459 0C445 0 431 0 417.2 0C403.3 0 389.7 0 375.8 0C362 0 348 0 334 0C320 0 306 0 292 0C278 0 264 0 250.2 0C236.3 0 222.7 0 208.8 0C195 0 181 0 167 0C153 0 139 0 125 0C111 0 97 0 83.2 0C69.3 0 55.7 0 41.8 0C28 0 14 0 7 0L0 0Z" fill="#131313"></path></svg>