<svg id="visual" viewBox="0 0 900 50" width="900" height="50" xmlns="http://www.w3.org/2000/svg" xmlns:xlink="http://www.w3.org/1999/xlink" version="1.1"><rect x="0" y="0" width="900" height="50" fill="#6C567B"></rect><path d="M705 0L681 0L681 5L727 5L727 10L655 10L655 15L662 15L662 20L736 20L736 25L724 25L724 30L664 30L664 35L620 35L620 40L764 40L764 45L714 45L714 50L0 50L0 45L0 45L0 40L0 40L0 35L0 35L0 30L0 30L0 25L0 25L0 20L0 20L0 15L0 15L0 10L0 10L0 5L0 5L0 0L0 0Z" fill="#f39f5a"></path><path d="M630 0L537 0L537 5L558 5L558 10L646 10L646 15L631 15L631 20L697 20L697 25L695 25L695 30L561 30L561 35L590 35L590 40L667 40L667 45L651 45L651 50L0 50L0 45L0 45L0 40L0 40L0 35L0 35L0 30L0 30L0 25L0 25L0 20L0 20L0 15L0 15L0 10L0 10L0 5L0 5L0 0L0 0Z" fill="#ef8e64"></path><path d="M578 0L494 0L494 5L601 5L601 10L621 10L621 15L470 15L470 20L489 20L489 25L561 25L561 30L492 30L492 35L512 35L512 40L633 40L633 45L589 45L589 50L0 50L0 45L0 45L0 40L0 40L0 35L0 35L0 30L0 30L0 25L0 25L0 20L0 20L0 15L0 15L0 10L0 10L0 5L0 5L0 0L0 0Z" fill="#e77f6e"></path><path d="M414 0L418 0L418 5L510 5L510 10L511 10L511 15L530 15L530 20L447 20L447 25L545 25L545 30L504 30L504 35L494 35L494 40L550 40L550 45L519 45L519 50L0 50L0 45L0 45L0 40L0 40L0 35L0 35L0 30L0 30L0 25L0 25L0 20L0 20L0 15L0 15L0 10L0 10L0 5L0 5L0 0L0 0Z" fill="#d97478"></path><path d="M329 0L345 0L345 5L408 5L408 10L387 10L387 15L456 15L456 20L348 20L348 25L389 25L389 30L430 30L430 35L393 35L393 40L415 40L415 45L402 45L402 50L0 50L0 45L0 45L0 40L0 40L0 35L0 35L0 30L0 30L0 25L0 25L0 20L0 20L0 15L0 15L0 10L0 10L0 5L0 5L0 0L0 0Z" fill="#c76b7f"></path><path d="M336 0L354 0L354 5L290 5L290 10L370 10L370 15L332 15L332 20L266 20L266 25L324 25L324 30L328 30L328 35L311 35L311 40L333 40L333 45L304 45L304 50L0 50L0 45L0 45L0 40L0 40L0 35L0 35L0 30L0 30L0 25L0 25L0 20L0 20L0 15L0 15L0 10L0 10L0 5L0 5L0 0L0 0Z" fill="#b26483"></path><path d="M249 0L217 0L217 5L189 5L189 10L299 10L299 15L292 15L292 20L255 20L255 25L218 25L218 30L262 30L262 35L275 35L275 40L271 40L271 45L190 45L190 50L0 50L0 45L0 45L0 40L0 40L0 35L0 35L0 30L0 30L0 25L0 25L0 20L0 20L0 15L0 15L0 10L0 10L0 5L0 5L0 0L0 0Z" fill="#9b5f84"></path><path d="M207 0L163 0L163 5L116 5L116 10L218 10L218 15L127 15L127 20L134 20L134 25L167 25L167 30L156 30L156 35L186 35L186 40L150 40L150 45L131 45L131 50L0 50L0 45L0 45L0 40L0 40L0 35L0 35L0 30L0 30L0 25L0 25L0 20L0 20L0 15L0 15L0 10L0 10L0 5L0 5L0 0L0 0Z" fill="#835b82"></path><path d="M60 0L77 0L77 5L49 5L49 10L51 10L51 15L117 15L117 20L78 20L78 25L71 25L71 30L77 30L77 35L76 35L76 40L115 40L115 45L67 45L67 50L0 50L0 45L0 45L0 40L0 40L0 35L0 35L0 30L0 30L0 25L0 25L0 20L0 20L0 15L0 15L0 10L0 10L0 5L0 5L0 0L0 0Z" fill="#6c567b"></path></svg>