<svg id="visual" viewBox="0 0 960 90" width="960" height="90" xmlns="http://www.w3.org/2000/svg" xmlns:xlink="http://www.w3.org/1999/xlink" version="1.1"><path d="M0 45L7 42.2C14 39.3 28 33.7 41.8 29.5C55.7 25.3 69.3 22.7 83.2 20.8C97 19 111 18 125 20.7C139 23.3 153 29.7 167 27.8C181 26 195 16 208.8 15.8C222.7 15.7 236.3 25.3 250.2 25.5C264 25.7 278 16.3 292 16.5C306 16.7 320 26.3 334 29.7C348 33 362 30 375.8 27C389.7 24 403.3 21 417.2 22.7C431 24.3 445 30.7 459 30.7C473 30.7 487 24.3 501 20.3C515 16.3 529 14.7 542.8 18.5C556.7 22.3 570.3 31.7 584.2 31.7C598 31.7 612 22.3 626 20.5C640 18.7 654 24.3 668 27.2C682 30 696 30 709.8 29.2C723.7 28.3 737.3 26.7 751.2 24.5C765 22.3 779 19.7 793 20C807 20.3 821 23.7 835 25.7C849 27.7 863 28.3 876.8 29.7C890.7 31 904.3 33 918.2 33.8C932 34.7 946 34.3 953 34.2L960 34L960 91L953 91C946 91 932 91 918.2 91C904.3 91 890.7 91 876.8 91C863 91 849 91 835 91C821 91 807 91 793 91C779 91 765 91 751.2 91C737.3 91 723.7 91 709.8 91C696 91 682 91 668 91C654 91 640 91 626 91C612 91 598 91 584.2 91C570.3 91 556.7 91 542.8 91C529 91 515 91 501 91C487 91 473 91 459 91C445 91 431 91 417.2 91C403.3 91 389.7 91 375.8 91C362 91 348 91 334 91C320 91 306 91 292 91C278 91 264 91 250.2 91C236.3 91 222.7 91 208.8 91C195 91 181 91 167 91C153 91 139 91 125 91C111 91 97 91 83.2 91C69.3 91 55.7 91 41.8 91C28 91 14 91 7 91L0 91Z" fill="#6c567b"></path><path d="M0 36L7 33.5C14 31 28 26 41.8 28C55.7 30 69.3 39 83.2 39C97 39 111 30 125 24C139 18 153 15 167 19C181 23 195 34 208.8 34.3C222.7 34.7 236.3 24.3 250.2 24.8C264 25.3 278 36.7 292 37.5C306 38.3 320 28.7 334 25.7C348 22.7 362 26.3 375.8 27.3C389.7 28.3 403.3 26.7 417.2 26.3C431 26 445 27 459 28.2C473 29.3 487 30.7 501 32.2C515 33.7 529 35.3 542.8 35C556.7 34.7 570.3 32.3 584.2 28.3C598 24.3 612 18.7 626 20.5C640 22.3 654 31.7 668 36.3C682 41 696 41 709.8 38.8C723.7 36.7 737.3 32.3 751.2 29.5C765 26.7 779 25.3 793 26.5C807 27.7 821 31.3 835 33.2C849 35 863 35 876.8 35.7C890.7 36.3 904.3 37.7 918.2 38C932 38.3 946 37.7 953 37.3L960 37L960 91L953 91C946 91 932 91 918.2 91C904.3 91 890.7 91 876.8 91C863 91 849 91 835 91C821 91 807 91 793 91C779 91 765 91 751.2 91C737.3 91 723.7 91 709.8 91C696 91 682 91 668 91C654 91 640 91 626 91C612 91 598 91 584.2 91C570.3 91 556.7 91 542.8 91C529 91 515 91 501 91C487 91 473 91 459 91C445 91 431 91 417.2 91C403.3 91 389.7 91 375.8 91C362 91 348 91 334 91C320 91 306 91 292 91C278 91 264 91 250.2 91C236.3 91 222.7 91 208.8 91C195 91 181 91 167 91C153 91 139 91 125 91C111 91 97 91 83.2 91C69.3 91 55.7 91 41.8 91C28 91 14 91 7 91L0 91Z" fill="#614e6e"></path><path d="M0 52L7 49.2C14 46.3 28 40.7 41.8 36.8C55.7 33 69.3 31 83.2 33.3C97 35.7 111 42.3 125 42.8C139 43.3 153 37.7 167 34.2C181 30.7 195 29.3 208.8 32.2C222.7 35 236.3 42 250.2 42.5C264 43 278 37 292 35.7C306 34.3 320 37.7 334 37.7C348 37.7 362 34.3 375.8 36C389.7 37.7 403.3 44.3 417.2 46.8C431 49.3 445 47.7 459 45.5C473 43.3 487 40.7 501 36.3C515 32 529 26 542.8 23.8C556.7 21.7 570.3 23.3 584.2 26.3C598 29.3 612 33.7 626 37.2C640 40.7 654 43.3 668 45.8C682 48.3 696 50.7 709.8 51.8C723.7 53 737.3 53 751.2 52.7C765 52.3 779 51.7 793 49.3C807 47 821 43 835 42.7C849 42.3 863 45.7 876.8 48.3C890.7 51 904.3 53 918.2 49.3C932 45.7 946 36.3 953 31.7L960 27L960 91L953 91C946 91 932 91 918.2 91C904.3 91 890.7 91 876.8 91C863 91 849 91 835 91C821 91 807 91 793 91C779 91 765 91 751.2 91C737.3 91 723.7 91 709.8 91C696 91 682 91 668 91C654 91 640 91 626 91C612 91 598 91 584.2 91C570.3 91 556.7 91 542.8 91C529 91 515 91 501 91C487 91 473 91 459 91C445 91 431 91 417.2 91C403.3 91 389.7 91 375.8 91C362 91 348 91 334 91C320 91 306 91 292 91C278 91 264 91 250.2 91C236.3 91 222.7 91 208.8 91C195 91 181 91 167 91C153 91 139 91 125 91C111 91 97 91 83.2 91C69.3 91 55.7 91 41.8 91C28 91 14 91 7 91L0 91Z" fill="#574662"></path><path d="M0 49L7 47C14 45 28 41 41.8 37.8C55.7 34.7 69.3 32.3 83.2 33.2C97 34 111 38 125 38.2C139 38.3 153 34.7 167 37C181 39.3 195 47.7 208.8 49.2C222.7 50.7 236.3 45.3 250.2 44C264 42.7 278 45.3 292 47.3C306 49.3 320 50.7 334 47.7C348 44.7 362 37.3 375.8 37.5C389.7 37.7 403.3 45.3 417.2 48.7C431 52 445 51 459 47.8C473 44.7 487 39.3 501 36.3C515 33.3 529 32.7 542.8 33.8C556.7 35 570.3 38 584.2 40.5C598 43 612 45 626 44.7C640 44.3 654 41.7 668 42.7C682 43.7 696 48.3 709.8 48.5C723.7 48.7 737.3 44.3 751.2 43.5C765 42.7 779 45.3 793 48.7C807 52 821 56 835 53C849 50 863 40 876.8 37.7C890.7 35.3 904.3 40.7 918.2 42.2C932 43.7 946 41.3 953 40.2L960 39L960 91L953 91C946 91 932 91 918.2 91C904.3 91 890.7 91 876.8 91C863 91 849 91 835 91C821 91 807 91 793 91C779 91 765 91 751.2 91C737.3 91 723.7 91 709.8 91C696 91 682 91 668 91C654 91 640 91 626 91C612 91 598 91 584.2 91C570.3 91 556.7 91 542.8 91C529 91 515 91 501 91C487 91 473 91 459 91C445 91 431 91 417.2 91C403.3 91 389.7 91 375.8 91C362 91 348 91 334 91C320 91 306 91 292 91C278 91 264 91 250.2 91C236.3 91 222.7 91 208.8 91C195 91 181 91 167 91C153 91 139 91 125 91C111 91 97 91 83.2 91C69.3 91 55.7 91 41.8 91C28 91 14 91 7 91L0 91Z" fill="#4c3e56"></path><path d="M0 59L7 55.7C14 52.3 28 45.7 41.8 42.2C55.7 38.7 69.3 38.3 83.2 42.5C97 46.7 111 55.3 125 55.7C139 56 153 48 167 46.7C181 45.3 195 50.7 208.8 53.8C222.7 57 236.3 58 250.2 56C264 54 278 49 292 47.3C306 45.7 320 47.3 334 48.7C348 50 362 51 375.8 52.2C389.7 53.3 403.3 54.7 417.2 53C431 51.3 445 46.7 459 47.7C473 48.7 487 55.3 501 55.5C515 55.7 529 49.3 542.8 49C556.7 48.7 570.3 54.3 584.2 54.8C598 55.3 612 50.7 626 50C640 49.3 654 52.7 668 55.8C682 59 696 62 709.8 62.2C723.7 62.3 737.3 59.7 751.2 56.2C765 52.7 779 48.3 793 47.2C807 46 821 48 835 50.2C849 52.3 863 54.7 876.8 55C890.7 55.3 904.3 53.7 918.2 51.3C932 49 946 46 953 44.5L960 43L960 91L953 91C946 91 932 91 918.2 91C904.3 91 890.7 91 876.8 91C863 91 849 91 835 91C821 91 807 91 793 91C779 91 765 91 751.2 91C737.3 91 723.7 91 709.8 91C696 91 682 91 668 91C654 91 640 91 626 91C612 91 598 91 584.2 91C570.3 91 556.7 91 542.8 91C529 91 515 91 501 91C487 91 473 91 459 91C445 91 431 91 417.2 91C403.3 91 389.7 91 375.8 91C362 91 348 91 334 91C320 91 306 91 292 91C278 91 264 91 250.2 91C236.3 91 222.7 91 208.8 91C195 91 181 91 167 91C153 91 139 91 125 91C111 91 97 91 83.2 91C69.3 91 55.7 91 41.8 91C28 91 14 91 7 91L0 91Z" fill="#42374a"></path><path d="M0 60L7 57.3C14 54.7 28 49.3 41.8 48.8C55.7 48.3 69.3 52.7 83.2 54C97 55.3 111 53.7 125 54.7C139 55.7 153 59.3 167 58.2C181 57 195 51 208.8 48.8C222.7 46.7 236.3 48.3 250.2 50.8C264 53.3 278 56.7 292 55.7C306 54.7 320 49.3 334 47.2C348 45 362 46 375.8 47.8C389.7 49.7 403.3 52.3 417.2 54.7C431 57 445 59 459 59.8C473 60.7 487 60.3 501 60.2C515 60 529 60 542.8 59.5C556.7 59 570.3 58 584.2 55.5C598 53 612 49 626 48.2C640 47.3 654 49.7 668 52.3C682 55 696 58 709.8 60.8C723.7 63.7 737.3 66.3 751.2 66.2C765 66 779 63 793 59.2C807 55.3 821 50.7 835 51.7C849 52.7 863 59.3 876.8 62.5C890.7 65.7 904.3 65.3 918.2 63.2C932 61 946 57 953 55L960 53L960 91L953 91C946 91 932 91 918.2 91C904.3 91 890.7 91 876.8 91C863 91 849 91 835 91C821 91 807 91 793 91C779 91 765 91 751.2 91C737.3 91 723.7 91 709.8 91C696 91 682 91 668 91C654 91 640 91 626 91C612 91 598 91 584.2 91C570.3 91 556.7 91 542.8 91C529 91 515 91 501 91C487 91 473 91 459 91C445 91 431 91 417.2 91C403.3 91 389.7 91 375.8 91C362 91 348 91 334 91C320 91 306 91 292 91C278 91 264 91 250.2 91C236.3 91 222.7 91 208.8 91C195 91 181 91 167 91C153 91 139 91 125 91C111 91 97 91 83.2 91C69.3 91 55.7 91 41.8 91C28 91 14 91 7 91L0 91Z" fill="#382f3e"></path><path d="M0 60L7 59.3C14 58.7 28 57.3 41.8 56.5C55.7 55.7 69.3 55.3 83.2 56.3C97 57.3 111 59.7 125 62.3C139 65 153 68 167 69.2C181 70.3 195 69.7 208.8 68.7C222.7 67.7 236.3 66.3 250.2 66.5C264 66.7 278 68.3 292 67.2C306 66 320 62 334 59.5C348 57 362 56 375.8 56.7C389.7 57.3 403.3 59.7 417.2 62.5C431 65.3 445 68.7 459 67.7C473 66.7 487 61.3 501 61.5C515 61.7 529 67.3 542.8 67.3C556.7 67.3 570.3 61.7 584.2 59.3C598 57 612 58 626 57.7C640 57.3 654 55.7 668 54.8C682 54 696 54 709.8 57.2C723.7 60.3 737.3 66.7 751.2 67.8C765 69 779 65 793 64.3C807 63.7 821 66.3 835 67.5C849 68.7 863 68.3 876.8 66.8C890.7 65.3 904.3 62.7 918.2 62.3C932 62 946 64 953 65L960 66L960 91L953 91C946 91 932 91 918.2 91C904.3 91 890.7 91 876.8 91C863 91 849 91 835 91C821 91 807 91 793 91C779 91 765 91 751.2 91C737.3 91 723.7 91 709.8 91C696 91 682 91 668 91C654 91 640 91 626 91C612 91 598 91 584.2 91C570.3 91 556.7 91 542.8 91C529 91 515 91 501 91C487 91 473 91 459 91C445 91 431 91 417.2 91C403.3 91 389.7 91 375.8 91C362 91 348 91 334 91C320 91 306 91 292 91C278 91 264 91 250.2 91C236.3 91 222.7 91 208.8 91C195 91 181 91 167 91C153 91 139 91 125 91C111 91 97 91 83.2 91C69.3 91 55.7 91 41.8 91C28 91 14 91 7 91L0 91Z" fill="#2f2833"></path><path d="M0 70L7 70C14 70 28 70 41.8 69C55.7 68 69.3 66 83.2 67C97 68 111 72 125 73.5C139 75 153 74 167 72.7C181 71.3 195 69.7 208.8 70.5C222.7 71.3 236.3 74.7 250.2 75.8C264 77 278 76 292 73.3C306 70.7 320 66.3 334 65.3C348 64.3 362 66.7 375.8 67.2C389.7 67.7 403.3 66.3 417.2 67.2C431 68 445 71 459 72.7C473 74.3 487 74.7 501 73.8C515 73 529 71 542.8 69.8C556.7 68.7 570.3 68.3 584.2 67.8C598 67.3 612 66.7 626 68C640 69.3 654 72.7 668 74.5C682 76.3 696 76.7 709.8 76.8C723.7 77 737.3 77 751.2 77C765 77 779 77 793 74.3C807 71.7 821 66.3 835 64.3C849 62.3 863 63.7 876.8 64.5C890.7 65.3 904.3 65.7 918.2 64.8C932 64 946 62 953 61L960 60L960 91L953 91C946 91 932 91 918.2 91C904.3 91 890.7 91 876.8 91C863 91 849 91 835 91C821 91 807 91 793 91C779 91 765 91 751.2 91C737.3 91 723.7 91 709.8 91C696 91 682 91 668 91C654 91 640 91 626 91C612 91 598 91 584.2 91C570.3 91 556.7 91 542.8 91C529 91 515 91 501 91C487 91 473 91 459 91C445 91 431 91 417.2 91C403.3 91 389.7 91 375.8 91C362 91 348 91 334 91C320 91 306 91 292 91C278 91 264 91 250.2 91C236.3 91 222.7 91 208.8 91C195 91 181 91 167 91C153 91 139 91 125 91C111 91 97 91 83.2 91C69.3 91 55.7 91 41.8 91C28 91 14 91 7 91L0 91Z" fill="#252128"></path><path d="M0 67L7 69.7C14 72.3 28 77.7 41.8 78.3C55.7 79 69.3 75 83.2 72.7C97 70.3 111 69.7 125 70C139 70.3 153 71.7 167 71.5C181 71.3 195 69.7 208.8 69.8C222.7 70 236.3 72 250.2 72.3C264 72.7 278 71.3 292 70.8C306 70.3 320 70.7 334 70.5C348 70.3 362 69.7 375.8 69.2C389.7 68.7 403.3 68.3 417.2 69.2C431 70 445 72 459 74.2C473 76.3 487 78.7 501 79C515 79.3 529 77.7 542.8 75.7C556.7 73.7 570.3 71.3 584.2 71.3C598 71.3 612 73.7 626 75.7C640 77.7 654 79.3 668 79C682 78.7 696 76.3 709.8 74.2C723.7 72 737.3 70 751.2 69.3C765 68.7 779 69.3 793 69.3C807 69.3 821 68.7 835 69.2C849 69.7 863 71.3 876.8 73.3C890.7 75.3 904.3 77.7 918.2 78.3C932 79 946 78 953 77.5L960 77L960 91L953 91C946 91 932 91 918.2 91C904.3 91 890.7 91 876.8 91C863 91 849 91 835 91C821 91 807 91 793 91C779 91 765 91 751.2 91C737.3 91 723.7 91 709.8 91C696 91 682 91 668 91C654 91 640 91 626 91C612 91 598 91 584.2 91C570.3 91 556.7 91 542.8 91C529 91 515 91 501 91C487 91 473 91 459 91C445 91 431 91 417.2 91C403.3 91 389.7 91 375.8 91C362 91 348 91 334 91C320 91 306 91 292 91C278 91 264 91 250.2 91C236.3 91 222.7 91 208.8 91C195 91 181 91 167 91C153 91 139 91 125 91C111 91 97 91 83.2 91C69.3 91 55.7 91 41.8 91C28 91 14 91 7 91L0 91Z" fill="#1c1a1d"></path><path d="M0 78L7 78.8C14 79.7 28 81.3 41.8 81.2C55.7 81 69.3 79 83.2 78.8C97 78.7 111 80.3 125 81.2C139 82 153 82 167 81.3C181 80.7 195 79.3 208.8 78.5C222.7 77.7 236.3 77.3 250.2 77C264 76.7 278 76.3 292 76C306 75.7 320 75.3 334 76C348 76.7 362 78.3 375.8 79.2C389.7 80 403.3 80 417.2 79.8C431 79.7 445 79.3 459 79.5C473 79.7 487 80.3 501 81.3C515 82.3 529 83.7 542.8 84.7C556.7 85.7 570.3 86.3 584.2 85.5C598 84.7 612 82.3 626 81.2C640 80 654 80 668 79.5C682 79 696 78 709.8 77.8C723.7 77.7 737.3 78.3 751.2 80C765 81.7 779 84.3 793 85.3C807 86.3 821 85.7 835 85.5C849 85.3 863 85.7 876.8 85.8C890.7 86 904.3 86 918.2 85.5C932 85 946 84 953 83.5L960 83L960 91L953 91C946 91 932 91 918.2 91C904.3 91 890.7 91 876.8 91C863 91 849 91 835 91C821 91 807 91 793 91C779 91 765 91 751.2 91C737.3 91 723.7 91 709.8 91C696 91 682 91 668 91C654 91 640 91 626 91C612 91 598 91 584.2 91C570.3 91 556.7 91 542.8 91C529 91 515 91 501 91C487 91 473 91 459 91C445 91 431 91 417.2 91C403.3 91 389.7 91 375.8 91C362 91 348 91 334 91C320 91 306 91 292 91C278 91 264 91 250.2 91C236.3 91 222.7 91 208.8 91C195 91 181 91 167 91C153 91 139 91 125 91C111 91 97 91 83.2 91C69.3 91 55.7 91 41.8 91C28 91 14 91 7 91L0 91Z" fill="#131313"></path></svg>