<svg id="visual" viewBox="0 0 960 90" width="960" height="90" xmlns="http://www.w3.org/2000/svg" xmlns:xlink="http://www.w3.org/1999/xlink" version="1.1"><path d="M0 64L7 61.7C14 59.3 28 54.7 41.8 55.3C55.7 56 69.3 62 83.2 59.2C97 56.3 111 44.7 125 42.2C139 39.7 153 46.3 167 51C181 55.7 195 58.3 208.8 58.5C222.7 58.7 236.3 56.3 250.2 54.8C264 53.3 278 52.7 292 52.3C306 52 320 52 334 52.5C348 53 362 54 375.8 57C389.7 60 403.3 65 417.2 62.8C431 60.7 445 51.3 459 49.5C473 47.7 487 53.3 501 52.7C515 52 529 45 542.8 41.2C556.7 37.3 570.3 36.7 584.2 38.5C598 40.3 612 44.7 626 49C640 53.3 654 57.7 668 54.8C682 52 696 42 709.8 36.8C723.7 31.7 737.3 31.3 751.2 35.5C765 39.7 779 48.3 793 52.5C807 56.7 821 56.3 835 54.5C849 52.7 863 49.3 876.8 51.3C890.7 53.3 904.3 60.7 918.2 62C932 63.3 946 58.7 953 56.3L960 54L960 0L953 0C946 0 932 0 918.2 0C904.3 0 890.7 0 876.8 0C863 0 849 0 835 0C821 0 807 0 793 0C779 0 765 0 751.2 0C737.3 0 723.7 0 709.8 0C696 0 682 0 668 0C654 0 640 0 626 0C612 0 598 0 584.2 0C570.3 0 556.7 0 542.8 0C529 0 515 0 501 0C487 0 473 0 459 0C445 0 431 0 417.2 0C403.3 0 389.7 0 375.8 0C362 0 348 0 334 0C320 0 306 0 292 0C278 0 264 0 250.2 0C236.3 0 222.7 0 208.8 0C195 0 181 0 167 0C153 0 139 0 125 0C111 0 97 0 83.2 0C69.3 0 55.7 0 41.8 0C28 0 14 0 7 0L0 0Z" fill="#6c567b"></path><path d="M0 36L7 39.5C14 43 28 50 41.8 51.7C55.7 53.3 69.3 49.7 83.2 50.7C97 51.7 111 57.3 125 58.2C139 59 153 55 167 50.7C181 46.3 195 41.7 208.8 41.5C222.7 41.3 236.3 45.7 250.2 47.3C264 49 278 48 292 44C306 40 320 33 334 34.8C348 36.7 362 47.3 375.8 49.2C389.7 51 403.3 44 417.2 42.2C431 40.3 445 43.7 459 43.7C473 43.7 487 40.3 501 43C515 45.7 529 54.3 542.8 53.2C556.7 52 570.3 41 584.2 38.3C598 35.7 612 41.3 626 44.8C640 48.3 654 49.7 668 46.5C682 43.3 696 35.7 709.8 33.3C723.7 31 737.3 34 751.2 34.3C765 34.7 779 32.3 793 31.5C807 30.7 821 31.3 835 35.7C849 40 863 48 876.8 53.2C890.7 58.3 904.3 60.7 918.2 55.7C932 50.7 946 38.3 953 32.2L960 26L960 0L953 0C946 0 932 0 918.2 0C904.3 0 890.7 0 876.8 0C863 0 849 0 835 0C821 0 807 0 793 0C779 0 765 0 751.2 0C737.3 0 723.7 0 709.8 0C696 0 682 0 668 0C654 0 640 0 626 0C612 0 598 0 584.2 0C570.3 0 556.7 0 542.8 0C529 0 515 0 501 0C487 0 473 0 459 0C445 0 431 0 417.2 0C403.3 0 389.7 0 375.8 0C362 0 348 0 334 0C320 0 306 0 292 0C278 0 264 0 250.2 0C236.3 0 222.7 0 208.8 0C195 0 181 0 167 0C153 0 139 0 125 0C111 0 97 0 83.2 0C69.3 0 55.7 0 41.8 0C28 0 14 0 7 0L0 0Z" fill="#5c4a68"></path><path d="M0 34L7 33.3C14 32.7 28 31.3 41.8 32C55.7 32.7 69.3 35.3 83.2 34.2C97 33 111 28 125 30.2C139 32.3 153 41.7 167 46.5C181 51.3 195 51.7 208.8 50.3C222.7 49 236.3 46 250.2 46C264 46 278 49 292 50.8C306 52.7 320 53.3 334 53.8C348 54.3 362 54.7 375.8 54.3C389.7 54 403.3 53 417.2 51.3C431 49.7 445 47.3 459 43C473 38.7 487 32.3 501 33C515 33.7 529 41.3 542.8 42.8C556.7 44.3 570.3 39.7 584.2 36.2C598 32.7 612 30.3 626 31.2C640 32 654 36 668 36.7C682 37.3 696 34.7 709.8 31.8C723.7 29 737.3 26 751.2 27C765 28 779 33 793 32.5C807 32 821 26 835 24.2C849 22.3 863 24.7 876.8 25.3C890.7 26 904.3 25 918.2 25.2C932 25.3 946 26.7 953 27.3L960 28L960 0L953 0C946 0 932 0 918.2 0C904.3 0 890.7 0 876.8 0C863 0 849 0 835 0C821 0 807 0 793 0C779 0 765 0 751.2 0C737.3 0 723.7 0 709.8 0C696 0 682 0 668 0C654 0 640 0 626 0C612 0 598 0 584.2 0C570.3 0 556.7 0 542.8 0C529 0 515 0 501 0C487 0 473 0 459 0C445 0 431 0 417.2 0C403.3 0 389.7 0 375.8 0C362 0 348 0 334 0C320 0 306 0 292 0C278 0 264 0 250.2 0C236.3 0 222.7 0 208.8 0C195 0 181 0 167 0C153 0 139 0 125 0C111 0 97 0 83.2 0C69.3 0 55.7 0 41.8 0C28 0 14 0 7 0L0 0Z" fill="#4c3e56"></path><path d="M0 15L7 19.3C14 23.7 28 32.3 41.8 34.3C55.7 36.3 69.3 31.7 83.2 28.3C97 25 111 23 125 25.7C139 28.3 153 35.7 167 36.8C181 38 195 33 208.8 31.8C222.7 30.7 236.3 33.3 250.2 32C264 30.7 278 25.3 292 26.2C306 27 320 34 334 37.7C348 41.3 362 41.7 375.8 42C389.7 42.3 403.3 42.7 417.2 40.2C431 37.7 445 32.3 459 30.3C473 28.3 487 29.7 501 29.8C515 30 529 29 542.8 30.3C556.7 31.7 570.3 35.3 584.2 37.5C598 39.7 612 40.3 626 38.8C640 37.3 654 33.7 668 31.2C682 28.7 696 27.3 709.8 29.8C723.7 32.3 737.3 38.7 751.2 39.7C765 40.7 779 36.3 793 34.2C807 32 821 32 835 29.7C849 27.3 863 22.7 876.8 22.5C890.7 22.3 904.3 26.7 918.2 27.7C932 28.7 946 26.3 953 25.2L960 24L960 0L953 0C946 0 932 0 918.2 0C904.3 0 890.7 0 876.8 0C863 0 849 0 835 0C821 0 807 0 793 0C779 0 765 0 751.2 0C737.3 0 723.7 0 709.8 0C696 0 682 0 668 0C654 0 640 0 626 0C612 0 598 0 584.2 0C570.3 0 556.7 0 542.8 0C529 0 515 0 501 0C487 0 473 0 459 0C445 0 431 0 417.2 0C403.3 0 389.7 0 375.8 0C362 0 348 0 334 0C320 0 306 0 292 0C278 0 264 0 250.2 0C236.3 0 222.7 0 208.8 0C195 0 181 0 167 0C153 0 139 0 125 0C111 0 97 0 83.2 0C69.3 0 55.7 0 41.8 0C28 0 14 0 7 0L0 0Z" fill="#3d3344"></path><path d="M0 17L7 16.5C14 16 28 15 41.8 15.5C55.7 16 69.3 18 83.2 19.2C97 20.3 111 20.7 125 23.3C139 26 153 31 167 31.8C181 32.7 195 29.3 208.8 27.2C222.7 25 236.3 24 250.2 21.8C264 19.7 278 16.3 292 17C306 17.7 320 22.3 334 24.3C348 26.3 362 25.7 375.8 23.7C389.7 21.7 403.3 18.3 417.2 17.8C431 17.3 445 19.7 459 20.3C473 21 487 20 501 22.2C515 24.3 529 29.7 542.8 29.5C556.7 29.3 570.3 23.7 584.2 23C598 22.3 612 26.7 626 28.5C640 30.3 654 29.7 668 28.5C682 27.3 696 25.7 709.8 23.3C723.7 21 737.3 18 751.2 18.8C765 19.7 779 24.3 793 25.5C807 26.7 821 24.3 835 25.5C849 26.7 863 31.3 876.8 32.8C890.7 34.3 904.3 32.7 918.2 30.7C932 28.7 946 26.3 953 25.2L960 24L960 0L953 0C946 0 932 0 918.2 0C904.3 0 890.7 0 876.8 0C863 0 849 0 835 0C821 0 807 0 793 0C779 0 765 0 751.2 0C737.3 0 723.7 0 709.8 0C696 0 682 0 668 0C654 0 640 0 626 0C612 0 598 0 584.2 0C570.3 0 556.7 0 542.8 0C529 0 515 0 501 0C487 0 473 0 459 0C445 0 431 0 417.2 0C403.3 0 389.7 0 375.8 0C362 0 348 0 334 0C320 0 306 0 292 0C278 0 264 0 250.2 0C236.3 0 222.7 0 208.8 0C195 0 181 0 167 0C153 0 139 0 125 0C111 0 97 0 83.2 0C69.3 0 55.7 0 41.8 0C28 0 14 0 7 0L0 0Z" fill="#2f2833"></path><path d="M0 23L7 23.5C14 24 28 25 41.8 23.8C55.7 22.7 69.3 19.3 83.2 18.5C97 17.7 111 19.3 125 20.7C139 22 153 23 167 20.8C181 18.7 195 13.3 208.8 10.3C222.7 7.3 236.3 6.7 250.2 6.7C264 6.7 278 7.3 292 9.5C306 11.7 320 15.3 334 15.8C348 16.3 362 13.7 375.8 14C389.7 14.3 403.3 17.7 417.2 16.8C431 16 445 11 459 11.3C473 11.7 487 17.3 501 19.2C515 21 529 19 542.8 17.5C556.7 16 570.3 15 584.2 15.7C598 16.3 612 18.7 626 20C640 21.3 654 21.7 668 20.2C682 18.7 696 15.3 709.8 12.8C723.7 10.3 737.3 8.7 751.2 9.2C765 9.7 779 12.3 793 14C807 15.7 821 16.3 835 15.7C849 15 863 13 876.8 12.8C890.7 12.7 904.3 14.3 918.2 16.2C932 18 946 20 953 21L960 22L960 0L953 0C946 0 932 0 918.2 0C904.3 0 890.7 0 876.8 0C863 0 849 0 835 0C821 0 807 0 793 0C779 0 765 0 751.2 0C737.3 0 723.7 0 709.8 0C696 0 682 0 668 0C654 0 640 0 626 0C612 0 598 0 584.2 0C570.3 0 556.7 0 542.8 0C529 0 515 0 501 0C487 0 473 0 459 0C445 0 431 0 417.2 0C403.3 0 389.7 0 375.8 0C362 0 348 0 334 0C320 0 306 0 292 0C278 0 264 0 250.2 0C236.3 0 222.7 0 208.8 0C195 0 181 0 167 0C153 0 139 0 125 0C111 0 97 0 83.2 0C69.3 0 55.7 0 41.8 0C28 0 14 0 7 0L0 0Z" fill="#211e23"></path><path d="M0 4L7 5.7C14 7.3 28 10.7 41.8 10.8C55.7 11 69.3 8 83.2 7.8C97 7.7 111 10.3 125 11.8C139 13.3 153 13.7 167 13.7C181 13.7 195 13.3 208.8 12.7C222.7 12 236.3 11 250.2 10.7C264 10.3 278 10.7 292 11.3C306 12 320 13 334 14C348 15 362 16 375.8 16C389.7 16 403.3 15 417.2 12.5C431 10 445 6 459 5.3C473 4.7 487 7.3 501 7.7C515 8 529 6 542.8 6.7C556.7 7.3 570.3 10.7 584.2 10.7C598 10.7 612 7.3 626 6C640 4.7 654 5.3 668 6.8C682 8.3 696 10.7 709.8 10.8C723.7 11 737.3 9 751.2 7.5C765 6 779 5 793 5.3C807 5.7 821 7.3 835 7.3C849 7.3 863 5.7 876.8 5.3C890.7 5 904.3 6 918.2 6.2C932 6.3 946 5.7 953 5.3L960 5L960 0L953 0C946 0 932 0 918.2 0C904.3 0 890.7 0 876.8 0C863 0 849 0 835 0C821 0 807 0 793 0C779 0 765 0 751.2 0C737.3 0 723.7 0 709.8 0C696 0 682 0 668 0C654 0 640 0 626 0C612 0 598 0 584.2 0C570.3 0 556.7 0 542.8 0C529 0 515 0 501 0C487 0 473 0 459 0C445 0 431 0 417.2 0C403.3 0 389.7 0 375.8 0C362 0 348 0 334 0C320 0 306 0 292 0C278 0 264 0 250.2 0C236.3 0 222.7 0 208.8 0C195 0 181 0 167 0C153 0 139 0 125 0C111 0 97 0 83.2 0C69.3 0 55.7 0 41.8 0C28 0 14 0 7 0L0 0Z" fill="#131313"></path></svg>