<svg id="visual" viewBox="0 0 960 90" width="960" height="90" xmlns="http://www.w3.org/2000/svg" xmlns:xlink="http://www.w3.org/1999/xlink" version="1.1"><path d="M0 27L8 28.3C16 29.7 32 32.3 48 34.8C64 37.3 80 39.7 96 38.5C112 37.3 128 32.7 144 31.5C160 30.3 176 32.7 192 35.2C208 37.7 224 40.3 240 38.7C256 37 272 31 288 29.5C304 28 320 31 336 29.7C352 28.3 368 22.7 384 22.3C400 22 416 27 432 29.2C448 31.3 464 30.7 480 32C496 33.3 512 36.7 528 37.5C544 38.3 560 36.7 576 36.8C592 37 608 39 624 36C640 33 656 25 672 24.5C688 24 704 31 720 33C736 35 752 32 768 29.5C784 27 800 25 816 26.2C832 27.3 848 31.7 864 34.2C880 36.7 896 37.3 912 37.8C928 38.3 944 38.7 952 38.8L960 39L960 0L952 0C944 0 928 0 912 0C896 0 880 0 864 0C848 0 832 0 816 0C800 0 784 0 768 0C752 0 736 0 720 0C704 0 688 0 672 0C656 0 640 0 624 0C608 0 592 0 576 0C560 0 544 0 528 0C512 0 496 0 480 0C464 0 448 0 432 0C416 0 400 0 384 0C368 0 352 0 336 0C320 0 304 0 288 0C272 0 256 0 240 0C224 0 208 0 192 0C176 0 160 0 144 0C128 0 112 0 96 0C80 0 64 0 48 0C32 0 16 0 8 0L0 0Z" fill="#451952"></path><path d="M0 25L8 25.3C16 25.7 32 26.3 48 24.8C64 23.3 80 19.7 96 18.8C112 18 128 20 144 21.8C160 23.7 176 25.3 192 26.7C208 28 224 29 240 28.2C256 27.3 272 24.7 288 22.2C304 19.7 320 17.3 336 19C352 20.7 368 26.3 384 30C400 33.7 416 35.3 432 33.2C448 31 464 25 480 22.5C496 20 512 21 528 20.3C544 19.7 560 17.3 576 19.3C592 21.3 608 27.7 624 30.8C640 34 656 34 672 31.8C688 29.7 704 25.3 720 22.3C736 19.3 752 17.7 768 18C784 18.3 800 20.7 816 20.7C832 20.7 848 18.3 864 20C880 21.7 896 27.3 912 30.5C928 33.7 944 34.3 952 34.7L960 35L960 0L952 0C944 0 928 0 912 0C896 0 880 0 864 0C848 0 832 0 816 0C800 0 784 0 768 0C752 0 736 0 720 0C704 0 688 0 672 0C656 0 640 0 624 0C608 0 592 0 576 0C560 0 544 0 528 0C512 0 496 0 480 0C464 0 448 0 432 0C416 0 400 0 384 0C368 0 352 0 336 0C320 0 304 0 288 0C272 0 256 0 240 0C224 0 208 0 192 0C176 0 160 0 144 0C128 0 112 0 96 0C80 0 64 0 48 0C32 0 16 0 8 0L0 0Z" fill="#3d1b4f"></path><path d="M0 22L8 22.3C16 22.7 32 23.3 48 23.8C64 24.3 80 24.7 96 25.3C112 26 128 27 144 26.7C160 26.3 176 24.7 192 23.2C208 21.7 224 20.3 240 20C256 19.7 272 20.3 288 19.2C304 18 320 15 336 14.3C352 13.7 368 15.3 384 16.2C400 17 416 17 432 17.2C448 17.3 464 17.7 480 20C496 22.3 512 26.7 528 29C544 31.3 560 31.7 576 29.7C592 27.7 608 23.3 624 23C640 22.7 656 26.3 672 27.7C688 29 704 28 720 26.7C736 25.3 752 23.7 768 24.2C784 24.7 800 27.3 816 28.2C832 29 848 28 864 26C880 24 896 21 912 20.8C928 20.7 944 23.3 952 24.7L960 26L960 0L952 0C944 0 928 0 912 0C896 0 880 0 864 0C848 0 832 0 816 0C800 0 784 0 768 0C752 0 736 0 720 0C704 0 688 0 672 0C656 0 640 0 624 0C608 0 592 0 576 0C560 0 544 0 528 0C512 0 496 0 480 0C464 0 448 0 432 0C416 0 400 0 384 0C368 0 352 0 336 0C320 0 304 0 288 0C272 0 256 0 240 0C224 0 208 0 192 0C176 0 160 0 144 0C128 0 112 0 96 0C80 0 64 0 48 0C32 0 16 0 8 0L0 0Z" fill="#361c4b"></path><path d="M0 22L8 19.8C16 17.7 32 13.3 48 12.3C64 11.3 80 13.7 96 15.8C112 18 128 20 144 20.5C160 21 176 20 192 18.2C208 16.3 224 13.7 240 14.7C256 15.7 272 20.3 288 20.2C304 20 320 15 336 13.5C352 12 368 14 384 15.8C400 17.7 416 19.3 432 20.7C448 22 464 23 480 23.2C496 23.3 512 22.7 528 20.2C544 17.7 560 13.3 576 14.2C592 15 608 21 624 21.5C640 22 656 17 672 14C688 11 704 10 720 11.2C736 12.3 752 15.7 768 17C784 18.3 800 17.7 816 18.8C832 20 848 23 864 24.7C880 26.3 896 26.7 912 24C928 21.3 944 15.7 952 12.8L960 10L960 0L952 0C944 0 928 0 912 0C896 0 880 0 864 0C848 0 832 0 816 0C800 0 784 0 768 0C752 0 736 0 720 0C704 0 688 0 672 0C656 0 640 0 624 0C608 0 592 0 576 0C560 0 544 0 528 0C512 0 496 0 480 0C464 0 448 0 432 0C416 0 400 0 384 0C368 0 352 0 336 0C320 0 304 0 288 0C272 0 256 0 240 0C224 0 208 0 192 0C176 0 160 0 144 0C128 0 112 0 96 0C80 0 64 0 48 0C32 0 16 0 8 0L0 0Z" fill="#2f1c47"></path><path d="M0 5L8 5.8C16 6.7 32 8.3 48 9C64 9.7 80 9.3 96 10.7C112 12 128 15 144 15C160 15 176 12 192 11.2C208 10.3 224 11.7 240 12.3C256 13 272 13 288 11.7C304 10.3 320 7.7 336 6.3C352 5 368 5 384 7.7C400 10.3 416 15.7 432 17.7C448 19.7 464 18.3 480 17.7C496 17 512 17 528 16.5C544 16 560 15 576 14.3C592 13.7 608 13.3 624 13.2C640 13 656 13 672 12C688 11 704 9 720 9C736 9 752 11 768 11C784 11 800 9 816 10.2C832 11.3 848 15.7 864 17.2C880 18.7 896 17.3 912 16.8C928 16.3 944 16.7 952 16.8L960 17L960 0L952 0C944 0 928 0 912 0C896 0 880 0 864 0C848 0 832 0 816 0C800 0 784 0 768 0C752 0 736 0 720 0C704 0 688 0 672 0C656 0 640 0 624 0C608 0 592 0 576 0C560 0 544 0 528 0C512 0 496 0 480 0C464 0 448 0 432 0C416 0 400 0 384 0C368 0 352 0 336 0C320 0 304 0 288 0C272 0 256 0 240 0C224 0 208 0 192 0C176 0 160 0 144 0C128 0 112 0 96 0C80 0 64 0 48 0C32 0 16 0 8 0L0 0Z" fill="#281c43"></path><path d="M0 9L8 8.5C16 8 32 7 48 6C64 5 80 4 96 4.2C112 4.3 128 5.7 144 6.5C160 7.3 176 7.7 192 7.5C208 7.3 224 6.7 240 6.2C256 5.7 272 5.3 288 6.3C304 7.3 320 9.7 336 11C352 12.3 368 12.7 384 11.3C400 10 416 7 432 7.3C448 7.7 464 11.3 480 12.2C496 13 512 11 528 9.3C544 7.7 560 6.3 576 5.3C592 4.3 608 3.7 624 4.2C640 4.7 656 6.3 672 7.2C688 8 704 8 720 7.7C736 7.3 752 6.7 768 6C784 5.3 800 4.7 816 4.8C832 5 848 6 864 6.5C880 7 896 7 912 8.3C928 9.7 944 12.3 952 13.7L960 15L960 0L952 0C944 0 928 0 912 0C896 0 880 0 864 0C848 0 832 0 816 0C800 0 784 0 768 0C752 0 736 0 720 0C704 0 688 0 672 0C656 0 640 0 624 0C608 0 592 0 576 0C560 0 544 0 528 0C512 0 496 0 480 0C464 0 448 0 432 0C416 0 400 0 384 0C368 0 352 0 336 0C320 0 304 0 288 0C272 0 256 0 240 0C224 0 208 0 192 0C176 0 160 0 144 0C128 0 112 0 96 0C80 0 64 0 48 0C32 0 16 0 8 0L0 0Z" fill="#221b3e"></path><path d="M0 10L8 9.8C16 9.7 32 9.3 48 8C64 6.7 80 4.3 96 4C112 3.7 128 5.3 144 5.3C160 5.3 176 3.7 192 4.2C208 4.7 224 7.3 240 7.5C256 7.7 272 5.3 288 5.2C304 5 320 7 336 6.7C352 6.3 368 3.7 384 2.7C400 1.7 416 2.3 432 3.2C448 4 464 5 480 5.2C496 5.3 512 4.7 528 4.3C544 4 560 4 576 5C592 6 608 8 624 7.3C640 6.7 656 3.3 672 3C688 2.7 704 5.3 720 5.5C736 5.7 752 3.3 768 2C784 0.7 800 0.3 816 1.2C832 2 848 4 864 4.3C880 4.7 896 3.3 912 2.3C928 1.3 944 0.7 952 0.3L960 0L960 0L952 0C944 0 928 0 912 0C896 0 880 0 864 0C848 0 832 0 816 0C800 0 784 0 768 0C752 0 736 0 720 0C704 0 688 0 672 0C656 0 640 0 624 0C608 0 592 0 576 0C560 0 544 0 528 0C512 0 496 0 480 0C464 0 448 0 432 0C416 0 400 0 384 0C368 0 352 0 336 0C320 0 304 0 288 0C272 0 256 0 240 0C224 0 208 0 192 0C176 0 160 0 144 0C128 0 112 0 96 0C80 0 64 0 48 0C32 0 16 0 8 0L0 0Z" fill="#1d1a39"></path></svg>