<svg id="visual" viewBox="0 0 960 90" width="960" height="90" xmlns="http://www.w3.org/2000/svg" xmlns:xlink="http://www.w3.org/1999/xlink" version="1.1"><path d="M0 43L7 43.2C14 43.3 28 43.7 41.8 44C55.7 44.3 69.3 44.7 83.2 44.5C97 44.3 111 43.7 125 44.2C139 44.7 153 46.3 167 46.2C181 46 195 44 208.8 43.8C222.7 43.7 236.3 45.3 250.2 46C264 46.7 278 46.3 292 47.3C306 48.3 320 50.7 334 49.5C348 48.3 362 43.7 375.8 43.3C389.7 43 403.3 47 417.2 49.7C431 52.3 445 53.7 459 52.5C473 51.3 487 47.7 501 45.7C515 43.7 529 43.3 542.8 44.2C556.7 45 570.3 47 584.2 47.7C598 48.3 612 47.7 626 51.5C640 55.3 654 63.7 668 61.8C682 60 696 48 709.8 46.8C723.7 45.7 737.3 55.3 751.2 57C765 58.7 779 52.3 793 52.7C807 53 821 60 835 63C849 66 863 65 876.8 62.5C890.7 60 904.3 56 918.2 57.3C932 58.7 946 65.3 953 68.7L960 72L960 0L953 0C946 0 932 0 918.2 0C904.3 0 890.7 0 876.8 0C863 0 849 0 835 0C821 0 807 0 793 0C779 0 765 0 751.2 0C737.3 0 723.7 0 709.8 0C696 0 682 0 668 0C654 0 640 0 626 0C612 0 598 0 584.2 0C570.3 0 556.7 0 542.8 0C529 0 515 0 501 0C487 0 473 0 459 0C445 0 431 0 417.2 0C403.3 0 389.7 0 375.8 0C362 0 348 0 334 0C320 0 306 0 292 0C278 0 264 0 250.2 0C236.3 0 222.7 0 208.8 0C195 0 181 0 167 0C153 0 139 0 125 0C111 0 97 0 83.2 0C69.3 0 55.7 0 41.8 0C28 0 14 0 7 0L0 0Z" fill="#6c567b"></path><path d="M0 53L7 51.7C14 50.3 28 47.7 41.8 48.7C55.7 49.7 69.3 54.3 83.2 56.7C97 59 111 59 125 56C139 53 153 47 167 46.2C181 45.3 195 49.7 208.8 51C222.7 52.3 236.3 50.7 250.2 48C264 45.3 278 41.7 292 38.7C306 35.7 320 33.3 334 37.2C348 41 362 51 375.8 55.5C389.7 60 403.3 59 417.2 57.2C431 55.3 445 52.7 459 49.5C473 46.3 487 42.7 501 40.8C515 39 529 39 542.8 42.5C556.7 46 570.3 53 584.2 53.7C598 54.3 612 48.7 626 45.7C640 42.7 654 42.3 668 44.7C682 47 696 52 709.8 50.7C723.7 49.3 737.3 41.7 751.2 38.8C765 36 779 38 793 42.5C807 47 821 54 835 55C849 56 863 51 876.8 49.3C890.7 47.7 904.3 49.3 918.2 50.7C932 52 946 53 953 53.5L960 54L960 0L953 0C946 0 932 0 918.2 0C904.3 0 890.7 0 876.8 0C863 0 849 0 835 0C821 0 807 0 793 0C779 0 765 0 751.2 0C737.3 0 723.7 0 709.8 0C696 0 682 0 668 0C654 0 640 0 626 0C612 0 598 0 584.2 0C570.3 0 556.7 0 542.8 0C529 0 515 0 501 0C487 0 473 0 459 0C445 0 431 0 417.2 0C403.3 0 389.7 0 375.8 0C362 0 348 0 334 0C320 0 306 0 292 0C278 0 264 0 250.2 0C236.3 0 222.7 0 208.8 0C195 0 181 0 167 0C153 0 139 0 125 0C111 0 97 0 83.2 0C69.3 0 55.7 0 41.8 0C28 0 14 0 7 0L0 0Z" fill="#614e6e"></path><path d="M0 57L7 52.3C14 47.7 28 38.3 41.8 36.7C55.7 35 69.3 41 83.2 43.2C97 45.3 111 43.7 125 43.3C139 43 153 44 167 42C181 40 195 35 208.8 36.8C222.7 38.7 236.3 47.3 250.2 50.3C264 53.3 278 50.7 292 47C306 43.3 320 38.7 334 35.2C348 31.7 362 29.3 375.8 32.7C389.7 36 403.3 45 417.2 50.2C431 55.3 445 56.7 459 55.3C473 54 487 50 501 49C515 48 529 50 542.8 50.8C556.7 51.7 570.3 51.3 584.2 51.3C598 51.3 612 51.7 626 48.2C640 44.7 654 37.3 668 36.3C682 35.3 696 40.7 709.8 42.5C723.7 44.3 737.3 42.7 751.2 40.3C765 38 779 35 793 37.2C807 39.3 821 46.7 835 48.7C849 50.7 863 47.3 876.8 44.3C890.7 41.3 904.3 38.7 918.2 38.7C932 38.7 946 41.3 953 42.7L960 44L960 0L953 0C946 0 932 0 918.2 0C904.3 0 890.7 0 876.8 0C863 0 849 0 835 0C821 0 807 0 793 0C779 0 765 0 751.2 0C737.3 0 723.7 0 709.8 0C696 0 682 0 668 0C654 0 640 0 626 0C612 0 598 0 584.2 0C570.3 0 556.7 0 542.8 0C529 0 515 0 501 0C487 0 473 0 459 0C445 0 431 0 417.2 0C403.3 0 389.7 0 375.8 0C362 0 348 0 334 0C320 0 306 0 292 0C278 0 264 0 250.2 0C236.3 0 222.7 0 208.8 0C195 0 181 0 167 0C153 0 139 0 125 0C111 0 97 0 83.2 0C69.3 0 55.7 0 41.8 0C28 0 14 0 7 0L0 0Z" fill="#574662"></path><path d="M0 31L7 31.8C14 32.7 28 34.3 41.8 35.2C55.7 36 69.3 36 83.2 35.2C97 34.3 111 32.7 125 30.5C139 28.3 153 25.7 167 28.2C181 30.7 195 38.3 208.8 41.7C222.7 45 236.3 44 250.2 41C264 38 278 33 292 32.3C306 31.7 320 35.3 334 35.3C348 35.3 362 31.7 375.8 30.7C389.7 29.7 403.3 31.3 417.2 34.5C431 37.7 445 42.3 459 43.5C473 44.7 487 42.3 501 41.5C515 40.7 529 41.3 542.8 43C556.7 44.7 570.3 47.3 584.2 46.8C598 46.3 612 42.7 626 39.5C640 36.3 654 33.7 668 31.8C682 30 696 29 709.8 29.8C723.7 30.7 737.3 33.3 751.2 35C765 36.7 779 37.3 793 38.3C807 39.3 821 40.7 835 42.8C849 45 863 48 876.8 49.5C890.7 51 904.3 51 918.2 46.5C932 42 946 33 953 28.5L960 24L960 0L953 0C946 0 932 0 918.2 0C904.3 0 890.7 0 876.8 0C863 0 849 0 835 0C821 0 807 0 793 0C779 0 765 0 751.2 0C737.3 0 723.7 0 709.8 0C696 0 682 0 668 0C654 0 640 0 626 0C612 0 598 0 584.2 0C570.3 0 556.7 0 542.8 0C529 0 515 0 501 0C487 0 473 0 459 0C445 0 431 0 417.2 0C403.3 0 389.7 0 375.8 0C362 0 348 0 334 0C320 0 306 0 292 0C278 0 264 0 250.2 0C236.3 0 222.7 0 208.8 0C195 0 181 0 167 0C153 0 139 0 125 0C111 0 97 0 83.2 0C69.3 0 55.7 0 41.8 0C28 0 14 0 7 0L0 0Z" fill="#4c3e56"></path><path d="M0 41L7 40.7C14 40.3 28 39.7 41.8 38.3C55.7 37 69.3 35 83.2 34.7C97 34.3 111 35.7 125 36.2C139 36.7 153 36.3 167 37.7C181 39 195 42 208.8 40C222.7 38 236.3 31 250.2 28.5C264 26 278 28 292 27.7C306 27.3 320 24.7 334 26.3C348 28 362 34 375.8 34C389.7 34 403.3 28 417.2 26.5C431 25 445 28 459 30C473 32 487 33 501 33.8C515 34.7 529 35.3 542.8 35.3C556.7 35.3 570.3 34.7 584.2 33.7C598 32.7 612 31.3 626 30.2C640 29 654 28 668 29C682 30 696 33 709.8 35.5C723.7 38 737.3 40 751.2 41.2C765 42.3 779 42.7 793 42.7C807 42.7 821 42.3 835 39.5C849 36.7 863 31.3 876.8 30.7C890.7 30 904.3 34 918.2 34.8C932 35.7 946 33.3 953 32.2L960 31L960 0L953 0C946 0 932 0 918.2 0C904.3 0 890.7 0 876.8 0C863 0 849 0 835 0C821 0 807 0 793 0C779 0 765 0 751.2 0C737.3 0 723.7 0 709.8 0C696 0 682 0 668 0C654 0 640 0 626 0C612 0 598 0 584.2 0C570.3 0 556.7 0 542.8 0C529 0 515 0 501 0C487 0 473 0 459 0C445 0 431 0 417.2 0C403.3 0 389.7 0 375.8 0C362 0 348 0 334 0C320 0 306 0 292 0C278 0 264 0 250.2 0C236.3 0 222.7 0 208.8 0C195 0 181 0 167 0C153 0 139 0 125 0C111 0 97 0 83.2 0C69.3 0 55.7 0 41.8 0C28 0 14 0 7 0L0 0Z" fill="#42374a"></path><path d="M0 24L7 23.3C14 22.7 28 21.3 41.8 22.8C55.7 24.3 69.3 28.7 83.2 30.7C97 32.7 111 32.3 125 33C139 33.7 153 35.3 167 34.2C181 33 195 29 208.8 28.2C222.7 27.3 236.3 29.7 250.2 31C264 32.3 278 32.7 292 33.7C306 34.7 320 36.3 334 35.7C348 35 362 32 375.8 29.5C389.7 27 403.3 25 417.2 23.3C431 21.7 445 20.3 459 22.2C473 24 487 29 501 31.2C515 33.3 529 32.7 542.8 32C556.7 31.3 570.3 30.7 584.2 30.7C598 30.7 612 31.3 626 32.5C640 33.7 654 35.3 668 36.2C682 37 696 37 709.8 35.7C723.7 34.3 737.3 31.7 751.2 31.3C765 31 779 33 793 33C807 33 821 31 835 30.3C849 29.7 863 30.3 876.8 31.3C890.7 32.3 904.3 33.7 918.2 31.2C932 28.7 946 22.3 953 19.2L960 16L960 0L953 0C946 0 932 0 918.2 0C904.3 0 890.7 0 876.8 0C863 0 849 0 835 0C821 0 807 0 793 0C779 0 765 0 751.2 0C737.3 0 723.7 0 709.8 0C696 0 682 0 668 0C654 0 640 0 626 0C612 0 598 0 584.2 0C570.3 0 556.7 0 542.8 0C529 0 515 0 501 0C487 0 473 0 459 0C445 0 431 0 417.2 0C403.3 0 389.7 0 375.8 0C362 0 348 0 334 0C320 0 306 0 292 0C278 0 264 0 250.2 0C236.3 0 222.7 0 208.8 0C195 0 181 0 167 0C153 0 139 0 125 0C111 0 97 0 83.2 0C69.3 0 55.7 0 41.8 0C28 0 14 0 7 0L0 0Z" fill="#382f3e"></path><path d="M0 13L7 15.2C14 17.3 28 21.7 41.8 24.7C55.7 27.7 69.3 29.3 83.2 29.2C97 29 111 27 125 26.8C139 26.7 153 28.3 167 26.8C181 25.3 195 20.7 208.8 18.2C222.7 15.7 236.3 15.3 250.2 16.3C264 17.3 278 19.7 292 20.5C306 21.3 320 20.7 334 22.2C348 23.7 362 27.3 375.8 26.7C389.7 26 403.3 21 417.2 20.3C431 19.7 445 23.3 459 23.8C473 24.3 487 21.7 501 20.8C515 20 529 21 542.8 22.7C556.7 24.3 570.3 26.7 584.2 26.2C598 25.7 612 22.3 626 21.8C640 21.3 654 23.7 668 23.2C682 22.7 696 19.3 709.8 17.2C723.7 15 737.3 14 751.2 16.3C765 18.7 779 24.3 793 26C807 27.7 821 25.3 835 23.7C849 22 863 21 876.8 21.3C890.7 21.7 904.3 23.3 918.2 22.7C932 22 946 19 953 17.5L960 16L960 0L953 0C946 0 932 0 918.2 0C904.3 0 890.7 0 876.8 0C863 0 849 0 835 0C821 0 807 0 793 0C779 0 765 0 751.2 0C737.3 0 723.7 0 709.8 0C696 0 682 0 668 0C654 0 640 0 626 0C612 0 598 0 584.2 0C570.3 0 556.7 0 542.8 0C529 0 515 0 501 0C487 0 473 0 459 0C445 0 431 0 417.2 0C403.3 0 389.7 0 375.8 0C362 0 348 0 334 0C320 0 306 0 292 0C278 0 264 0 250.2 0C236.3 0 222.7 0 208.8 0C195 0 181 0 167 0C153 0 139 0 125 0C111 0 97 0 83.2 0C69.3 0 55.7 0 41.8 0C28 0 14 0 7 0L0 0Z" fill="#2f2833"></path><path d="M0 22L7 20.8C14 19.7 28 17.3 41.8 17C55.7 16.7 69.3 18.3 83.2 18.8C97 19.3 111 18.7 125 16.8C139 15 153 12 167 12.7C181 13.3 195 17.7 208.8 18.2C222.7 18.7 236.3 15.3 250.2 14.2C264 13 278 14 292 13.5C306 13 320 11 334 12.3C348 13.7 362 18.3 375.8 20.2C389.7 22 403.3 21 417.2 20.7C431 20.3 445 20.7 459 19.5C473 18.3 487 15.7 501 16C515 16.3 529 19.7 542.8 19.2C556.7 18.7 570.3 14.3 584.2 12C598 9.7 612 9.3 626 9.8C640 10.3 654 11.7 668 13C682 14.3 696 15.7 709.8 17.2C723.7 18.7 737.3 20.3 751.2 19.3C765 18.3 779 14.7 793 14.5C807 14.3 821 17.7 835 19.5C849 21.3 863 21.7 876.8 20.7C890.7 19.7 904.3 17.3 918.2 16.2C932 15 946 15 953 15L960 15L960 0L953 0C946 0 932 0 918.2 0C904.3 0 890.7 0 876.8 0C863 0 849 0 835 0C821 0 807 0 793 0C779 0 765 0 751.2 0C737.3 0 723.7 0 709.8 0C696 0 682 0 668 0C654 0 640 0 626 0C612 0 598 0 584.2 0C570.3 0 556.7 0 542.8 0C529 0 515 0 501 0C487 0 473 0 459 0C445 0 431 0 417.2 0C403.3 0 389.7 0 375.8 0C362 0 348 0 334 0C320 0 306 0 292 0C278 0 264 0 250.2 0C236.3 0 222.7 0 208.8 0C195 0 181 0 167 0C153 0 139 0 125 0C111 0 97 0 83.2 0C69.3 0 55.7 0 41.8 0C28 0 14 0 7 0L0 0Z" fill="#252128"></path><path d="M0 10L7 10.3C14 10.7 28 11.3 41.8 12.7C55.7 14 69.3 16 83.2 15.3C97 14.7 111 11.3 125 9.8C139 8.3 153 8.7 167 10.2C181 11.7 195 14.3 208.8 15.5C222.7 16.7 236.3 16.3 250.2 15.8C264 15.3 278 14.7 292 14C306 13.3 320 12.7 334 11.5C348 10.3 362 8.7 375.8 8.3C389.7 8 403.3 9 417.2 8.8C431 8.7 445 7.3 459 6.8C473 6.3 487 6.7 501 8.2C515 9.7 529 12.3 542.8 13.3C556.7 14.3 570.3 13.7 584.2 12.5C598 11.3 612 9.7 626 10.2C640 10.7 654 13.3 668 15C682 16.7 696 17.3 709.8 17.2C723.7 17 737.3 16 751.2 15.3C765 14.7 779 14.3 793 13.5C807 12.7 821 11.3 835 9.8C849 8.3 863 6.7 876.8 7.2C890.7 7.7 904.3 10.3 918.2 12.3C932 14.3 946 15.7 953 16.3L960 17L960 0L953 0C946 0 932 0 918.2 0C904.3 0 890.7 0 876.8 0C863 0 849 0 835 0C821 0 807 0 793 0C779 0 765 0 751.2 0C737.3 0 723.7 0 709.8 0C696 0 682 0 668 0C654 0 640 0 626 0C612 0 598 0 584.2 0C570.3 0 556.7 0 542.8 0C529 0 515 0 501 0C487 0 473 0 459 0C445 0 431 0 417.2 0C403.3 0 389.7 0 375.8 0C362 0 348 0 334 0C320 0 306 0 292 0C278 0 264 0 250.2 0C236.3 0 222.7 0 208.8 0C195 0 181 0 167 0C153 0 139 0 125 0C111 0 97 0 83.2 0C69.3 0 55.7 0 41.8 0C28 0 14 0 7 0L0 0Z" fill="#1c1a1d"></path><path d="M0 6L7 6.7C14 7.3 28 8.7 41.8 9.5C55.7 10.3 69.3 10.7 83.2 9.8C97 9 111 7 125 6.8C139 6.7 153 8.3 167 7.8C181 7.3 195 4.7 208.8 4C222.7 3.3 236.3 4.7 250.2 5.5C264 6.3 278 6.7 292 6.2C306 5.7 320 4.3 334 4.3C348 4.3 362 5.7 375.8 6.3C389.7 7 403.3 7 417.2 7.5C431 8 445 9 459 8.2C473 7.3 487 4.7 501 4.5C515 4.3 529 6.7 542.8 7.2C556.7 7.7 570.3 6.3 584.2 6C598 5.7 612 6.3 626 6.2C640 6 654 5 668 4.7C682 4.3 696 4.7 709.8 4.3C723.7 4 737.3 3 751.2 3.3C765 3.7 779 5.3 793 5.8C807 6.3 821 5.7 835 5.8C849 6 863 7 876.8 6.8C890.7 6.7 904.3 5.3 918.2 5.3C932 5.3 946 6.7 953 7.3L960 8L960 0L953 0C946 0 932 0 918.2 0C904.3 0 890.7 0 876.8 0C863 0 849 0 835 0C821 0 807 0 793 0C779 0 765 0 751.2 0C737.3 0 723.7 0 709.8 0C696 0 682 0 668 0C654 0 640 0 626 0C612 0 598 0 584.2 0C570.3 0 556.7 0 542.8 0C529 0 515 0 501 0C487 0 473 0 459 0C445 0 431 0 417.2 0C403.3 0 389.7 0 375.8 0C362 0 348 0 334 0C320 0 306 0 292 0C278 0 264 0 250.2 0C236.3 0 222.7 0 208.8 0C195 0 181 0 167 0C153 0 139 0 125 0C111 0 97 0 83.2 0C69.3 0 55.7 0 41.8 0C28 0 14 0 7 0L0 0Z" fill="#131313"></path></svg>