<svg id="visual" viewBox="0 0 960 90" width="960" height="90" xmlns="http://www.w3.org/2000/svg" xmlns:xlink="http://www.w3.org/1999/xlink" version="1.1"><path d="M0 58L7.3 59.3C14.7 60.7 29.3 63.3 43.8 64.5C58.3 65.7 72.7 65.3 87.2 62.8C101.7 60.3 116.3 55.7 131 53.7C145.7 51.7 160.3 52.3 174.8 52.2C189.3 52 203.7 51 218.2 51.8C232.7 52.7 247.3 55.3 261.8 55.3C276.3 55.3 290.7 52.7 305.2 51.2C319.7 49.7 334.3 49.3 349 49.8C363.7 50.3 378.3 51.7 392.8 52C407.3 52.3 421.7 51.7 436.2 53.5C450.7 55.3 465.3 59.7 480 62.2C494.7 64.7 509.3 65.3 523.8 64.5C538.3 63.7 552.7 61.3 567.2 61.7C581.7 62 596.3 65 611 64.7C625.7 64.3 640.3 60.7 654.8 58.7C669.3 56.7 683.7 56.3 698.2 55.2C712.7 54 727.3 52 741.8 51.7C756.3 51.3 770.7 52.7 785.2 55C799.7 57.3 814.3 60.7 829 62.2C843.7 63.7 858.3 63.3 872.8 62C887.3 60.7 901.7 58.3 916.2 59.2C930.7 60 945.3 64 952.7 66L960 68L960 91L952.7 91C945.3 91 930.7 91 916.2 91C901.7 91 887.3 91 872.8 91C858.3 91 843.7 91 829 91C814.3 91 799.7 91 785.2 91C770.7 91 756.3 91 741.8 91C727.3 91 712.7 91 698.2 91C683.7 91 669.3 91 654.8 91C640.3 91 625.7 91 611 91C596.3 91 581.7 91 567.2 91C552.7 91 538.3 91 523.8 91C509.3 91 494.7 91 480 91C465.3 91 450.7 91 436.2 91C421.7 91 407.3 91 392.8 91C378.3 91 363.7 91 349 91C334.3 91 319.7 91 305.2 91C290.7 91 276.3 91 261.8 91C247.3 91 232.7 91 218.2 91C203.7 91 189.3 91 174.8 91C160.3 91 145.7 91 131 91C116.3 91 101.7 91 87.2 91C72.7 91 58.3 91 43.8 91C29.3 91 14.7 91 7.3 91L0 91Z" fill="#451952"></path><path d="M0 63L7.3 63.7C14.7 64.3 29.3 65.7 43.8 66.8C58.3 68 72.7 69 87.2 69.2C101.7 69.3 116.3 68.7 131 66.7C145.7 64.7 160.3 61.3 174.8 58.7C189.3 56 203.7 54 218.2 55.2C232.7 56.3 247.3 60.7 261.8 62C276.3 63.3 290.7 61.7 305.2 61.8C319.7 62 334.3 64 349 63.3C363.7 62.7 378.3 59.3 392.8 60.2C407.3 61 421.7 66 436.2 65.5C450.7 65 465.3 59 480 57.8C494.7 56.7 509.3 60.3 523.8 62.5C538.3 64.7 552.7 65.3 567.2 65.2C581.7 65 596.3 64 611 63.2C625.7 62.3 640.3 61.7 654.8 61C669.3 60.3 683.7 59.7 698.2 60.5C712.7 61.3 727.3 63.7 741.8 64.3C756.3 65 770.7 64 785.2 61.7C799.7 59.3 814.3 55.7 829 54C843.7 52.3 858.3 52.7 872.8 53.7C887.3 54.7 901.7 56.3 916.2 57.7C930.7 59 945.3 60 952.7 60.5L960 61L960 91L952.7 91C945.3 91 930.7 91 916.2 91C901.7 91 887.3 91 872.8 91C858.3 91 843.7 91 829 91C814.3 91 799.7 91 785.2 91C770.7 91 756.3 91 741.8 91C727.3 91 712.7 91 698.2 91C683.7 91 669.3 91 654.8 91C640.3 91 625.7 91 611 91C596.3 91 581.7 91 567.2 91C552.7 91 538.3 91 523.8 91C509.3 91 494.7 91 480 91C465.3 91 450.7 91 436.2 91C421.7 91 407.3 91 392.8 91C378.3 91 363.7 91 349 91C334.3 91 319.7 91 305.2 91C290.7 91 276.3 91 261.8 91C247.3 91 232.7 91 218.2 91C203.7 91 189.3 91 174.8 91C160.3 91 145.7 91 131 91C116.3 91 101.7 91 87.2 91C72.7 91 58.3 91 43.8 91C29.3 91 14.7 91 7.3 91L0 91Z" fill="#3d1b4f"></path><path d="M0 74L7.3 71.3C14.7 68.7 29.3 63.3 43.8 60.8C58.3 58.3 72.7 58.7 87.2 58.7C101.7 58.7 116.3 58.3 131 58.2C145.7 58 160.3 58 174.8 59.8C189.3 61.7 203.7 65.3 218.2 66C232.7 66.7 247.3 64.3 261.8 64.5C276.3 64.7 290.7 67.3 305.2 67.3C319.7 67.3 334.3 64.7 349 64.8C363.7 65 378.3 68 392.8 69.8C407.3 71.7 421.7 72.3 436.2 71.3C450.7 70.3 465.3 67.7 480 67.3C494.7 67 509.3 69 523.8 69C538.3 69 552.7 67 567.2 65.8C581.7 64.7 596.3 64.3 611 63.8C625.7 63.3 640.3 62.7 654.8 62.3C669.3 62 683.7 62 698.2 63.3C712.7 64.7 727.3 67.3 741.8 69.3C756.3 71.3 770.7 72.7 785.2 73.3C799.7 74 814.3 74 829 72.8C843.7 71.7 858.3 69.3 872.8 66.8C887.3 64.3 901.7 61.7 916.2 61.2C930.7 60.7 945.3 62.3 952.7 63.2L960 64L960 91L952.7 91C945.3 91 930.7 91 916.2 91C901.7 91 887.3 91 872.8 91C858.3 91 843.7 91 829 91C814.3 91 799.7 91 785.2 91C770.7 91 756.3 91 741.8 91C727.3 91 712.7 91 698.2 91C683.7 91 669.3 91 654.8 91C640.3 91 625.7 91 611 91C596.3 91 581.7 91 567.2 91C552.7 91 538.3 91 523.8 91C509.3 91 494.7 91 480 91C465.3 91 450.7 91 436.2 91C421.7 91 407.3 91 392.8 91C378.3 91 363.7 91 349 91C334.3 91 319.7 91 305.2 91C290.7 91 276.3 91 261.8 91C247.3 91 232.7 91 218.2 91C203.7 91 189.3 91 174.8 91C160.3 91 145.7 91 131 91C116.3 91 101.7 91 87.2 91C72.7 91 58.3 91 43.8 91C29.3 91 14.7 91 7.3 91L0 91Z" fill="#361c4b"></path><path d="M0 66L7.3 66.8C14.7 67.7 29.3 69.3 43.8 69.3C58.3 69.3 72.7 67.7 87.2 68.7C101.7 69.7 116.3 73.3 131 73.2C145.7 73 160.3 69 174.8 67.7C189.3 66.3 203.7 67.7 218.2 69.5C232.7 71.3 247.3 73.7 261.8 74.2C276.3 74.7 290.7 73.3 305.2 71.5C319.7 69.7 334.3 67.3 349 66.8C363.7 66.3 378.3 67.7 392.8 68.2C407.3 68.7 421.7 68.3 436.2 69.5C450.7 70.7 465.3 73.3 480 72.7C494.7 72 509.3 68 523.8 66.5C538.3 65 552.7 66 567.2 67.3C581.7 68.7 596.3 70.3 611 71.5C625.7 72.7 640.3 73.3 654.8 72.2C669.3 71 683.7 68 698.2 66.8C712.7 65.7 727.3 66.3 741.8 68.2C756.3 70 770.7 73 785.2 74C799.7 75 814.3 74 829 73.8C843.7 73.7 858.3 74.3 872.8 73.8C887.3 73.3 901.7 71.7 916.2 71.7C930.7 71.7 945.3 73.3 952.7 74.2L960 75L960 91L952.7 91C945.3 91 930.7 91 916.2 91C901.7 91 887.3 91 872.8 91C858.3 91 843.7 91 829 91C814.3 91 799.7 91 785.2 91C770.7 91 756.3 91 741.8 91C727.3 91 712.7 91 698.2 91C683.7 91 669.3 91 654.8 91C640.3 91 625.7 91 611 91C596.3 91 581.7 91 567.2 91C552.7 91 538.3 91 523.8 91C509.3 91 494.7 91 480 91C465.3 91 450.7 91 436.2 91C421.7 91 407.3 91 392.8 91C378.3 91 363.7 91 349 91C334.3 91 319.7 91 305.2 91C290.7 91 276.3 91 261.8 91C247.3 91 232.7 91 218.2 91C203.7 91 189.3 91 174.8 91C160.3 91 145.7 91 131 91C116.3 91 101.7 91 87.2 91C72.7 91 58.3 91 43.8 91C29.3 91 14.7 91 7.3 91L0 91Z" fill="#2f1c47"></path><path d="M0 76L7.3 76.7C14.7 77.3 29.3 78.7 43.8 77.7C58.3 76.7 72.7 73.3 87.2 73.2C101.7 73 116.3 76 131 77.8C145.7 79.7 160.3 80.3 174.8 79.3C189.3 78.3 203.7 75.7 218.2 75.7C232.7 75.7 247.3 78.3 261.8 79.5C276.3 80.7 290.7 80.3 305.2 79.7C319.7 79 334.3 78 349 76.2C363.7 74.3 378.3 71.7 392.8 72.3C407.3 73 421.7 77 436.2 76.8C450.7 76.7 465.3 72.3 480 71.5C494.7 70.7 509.3 73.3 523.8 74.5C538.3 75.7 552.7 75.3 567.2 75.7C581.7 76 596.3 77 611 77C625.7 77 640.3 76 654.8 76.5C669.3 77 683.7 79 698.2 79C712.7 79 727.3 77 741.8 75.5C756.3 74 770.7 73 785.2 73.2C799.7 73.3 814.3 74.7 829 75.2C843.7 75.7 858.3 75.3 872.8 75.7C887.3 76 901.7 77 916.2 77.7C930.7 78.3 945.3 78.7 952.7 78.8L960 79L960 91L952.7 91C945.3 91 930.7 91 916.2 91C901.7 91 887.3 91 872.8 91C858.3 91 843.7 91 829 91C814.3 91 799.7 91 785.2 91C770.7 91 756.3 91 741.8 91C727.3 91 712.7 91 698.2 91C683.7 91 669.3 91 654.8 91C640.3 91 625.7 91 611 91C596.3 91 581.7 91 567.2 91C552.7 91 538.3 91 523.8 91C509.3 91 494.7 91 480 91C465.3 91 450.7 91 436.2 91C421.7 91 407.3 91 392.8 91C378.3 91 363.7 91 349 91C334.3 91 319.7 91 305.2 91C290.7 91 276.3 91 261.8 91C247.3 91 232.7 91 218.2 91C203.7 91 189.3 91 174.8 91C160.3 91 145.7 91 131 91C116.3 91 101.7 91 87.2 91C72.7 91 58.3 91 43.8 91C29.3 91 14.7 91 7.3 91L0 91Z" fill="#281c43"></path><path d="M0 76L7.3 75.7C14.7 75.3 29.3 74.7 43.8 75C58.3 75.3 72.7 76.7 87.2 77.7C101.7 78.7 116.3 79.3 131 79C145.7 78.7 160.3 77.3 174.8 78C189.3 78.7 203.7 81.3 218.2 81C232.7 80.7 247.3 77.3 261.8 77.3C276.3 77.3 290.7 80.7 305.2 81.7C319.7 82.7 334.3 81.3 349 79.7C363.7 78 378.3 76 392.8 75.2C407.3 74.3 421.7 74.7 436.2 74.8C450.7 75 465.3 75 480 76.5C494.7 78 509.3 81 523.8 82C538.3 83 552.7 82 567.2 81.5C581.7 81 596.3 81 611 80.2C625.7 79.3 640.3 77.7 654.8 76.7C669.3 75.7 683.7 75.3 698.2 75.8C712.7 76.3 727.3 77.7 741.8 79C756.3 80.3 770.7 81.7 785.2 82.5C799.7 83.3 814.3 83.7 829 83.2C843.7 82.7 858.3 81.3 872.8 80C887.3 78.7 901.7 77.3 916.2 77.8C930.7 78.3 945.3 80.7 952.7 81.8L960 83L960 91L952.7 91C945.3 91 930.7 91 916.2 91C901.7 91 887.3 91 872.8 91C858.3 91 843.7 91 829 91C814.3 91 799.7 91 785.2 91C770.7 91 756.3 91 741.8 91C727.3 91 712.7 91 698.2 91C683.7 91 669.3 91 654.8 91C640.3 91 625.7 91 611 91C596.3 91 581.7 91 567.2 91C552.7 91 538.3 91 523.8 91C509.3 91 494.7 91 480 91C465.3 91 450.7 91 436.2 91C421.7 91 407.3 91 392.8 91C378.3 91 363.7 91 349 91C334.3 91 319.7 91 305.2 91C290.7 91 276.3 91 261.8 91C247.3 91 232.7 91 218.2 91C203.7 91 189.3 91 174.8 91C160.3 91 145.7 91 131 91C116.3 91 101.7 91 87.2 91C72.7 91 58.3 91 43.8 91C29.3 91 14.7 91 7.3 91L0 91Z" fill="#221b3e"></path><path d="M0 87L7.3 86.2C14.7 85.3 29.3 83.7 43.8 82.8C58.3 82 72.7 82 87.2 82.8C101.7 83.7 116.3 85.3 131 85.5C145.7 85.7 160.3 84.3 174.8 83.5C189.3 82.7 203.7 82.3 218.2 81.7C232.7 81 247.3 80 261.8 80.8C276.3 81.7 290.7 84.3 305.2 84.7C319.7 85 334.3 83 349 81.8C363.7 80.7 378.3 80.3 392.8 80.5C407.3 80.7 421.7 81.3 436.2 82.7C450.7 84 465.3 86 480 85.7C494.7 85.3 509.3 82.7 523.8 81.8C538.3 81 552.7 82 567.2 83C581.7 84 596.3 85 611 85.5C625.7 86 640.3 86 654.8 85.5C669.3 85 683.7 84 698.2 83.3C712.7 82.7 727.3 82.3 741.8 81.7C756.3 81 770.7 80 785.2 80.8C799.7 81.7 814.3 84.3 829 85.2C843.7 86 858.3 85 872.8 84C887.3 83 901.7 82 916.2 82.3C930.7 82.7 945.3 84.3 952.7 85.2L960 86L960 91L952.7 91C945.3 91 930.7 91 916.2 91C901.7 91 887.3 91 872.8 91C858.3 91 843.7 91 829 91C814.3 91 799.7 91 785.2 91C770.7 91 756.3 91 741.8 91C727.3 91 712.7 91 698.2 91C683.7 91 669.3 91 654.8 91C640.3 91 625.7 91 611 91C596.3 91 581.7 91 567.2 91C552.7 91 538.3 91 523.8 91C509.3 91 494.7 91 480 91C465.3 91 450.7 91 436.2 91C421.7 91 407.3 91 392.8 91C378.3 91 363.7 91 349 91C334.3 91 319.7 91 305.2 91C290.7 91 276.3 91 261.8 91C247.3 91 232.7 91 218.2 91C203.7 91 189.3 91 174.8 91C160.3 91 145.7 91 131 91C116.3 91 101.7 91 87.2 91C72.7 91 58.3 91 43.8 91C29.3 91 14.7 91 7.3 91L0 91Z" fill="#1d1a39"></path></svg>