<svg id="visual" viewBox="0 0 900 50" width="900" height="50" xmlns="http://www.w3.org/2000/svg" xmlns:xlink="http://www.w3.org/1999/xlink" version="1.1"><path d="M285 50L191 50L191 45L323 45L323 40L335 40L335 35L195 35L195 30L234 30L234 25L266 25L266 20L257 20L257 15L352 15L352 10L377 10L377 5L309 5L309 0L900 0L900 5L900 5L900 10L900 10L900 15L900 15L900 20L900 20L900 25L900 25L900 30L900 30L900 35L900 35L900 40L900 40L900 45L900 45L900 50L900 50Z" fill="#f39f5a"></path><path d="M309 50L336 50L336 45L298 45L298 40L405 40L405 35L416 35L416 30L282 30L282 25L450 25L450 20L371 20L371 15L360 15L360 10L365 10L365 5L329 5L329 0L900 0L900 5L900 5L900 10L900 10L900 15L900 15L900 20L900 20L900 25L900 25L900 30L900 30L900 35L900 35L900 40L900 40L900 45L900 45L900 50L900 50Z" fill="#ed8967"></path><path d="M499 50L499 50L499 45L533 45L533 40L394 40L394 35L444 35L444 30L455 30L455 25L482 25L482 20L431 20L431 15L530 15L530 10L429 10L429 5L512 5L512 0L900 0L900 5L900 5L900 10L900 10L900 15L900 15L900 20L900 20L900 25L900 25L900 30L900 30L900 35L900 35L900 40L900 40L900 45L900 45L900 50L900 50Z" fill="#de7775"></path><path d="M596 50L526 50L526 45L507 45L507 40L565 40L565 35L547 35L547 30L528 30L528 25L584 25L584 20L519 20L519 15L507 15L507 10L530 10L530 5L558 5L558 0L900 0L900 5L900 5L900 10L900 10L900 15L900 15L900 20L900 20L900 25L900 25L900 30L900 30L900 35L900 35L900 40L900 40L900 45L900 45L900 50L900 50Z" fill="#c76b7f"></path><path d="M612 50L566 50L566 45L613 45L613 40L576 40L576 35L670 35L670 30L585 30L585 25L692 25L692 20L614 20L614 15L615 15L615 10L602 10L602 5L678 5L678 0L900 0L900 5L900 5L900 10L900 10L900 15L900 15L900 20L900 20L900 25L900 25L900 30L900 30L900 35L900 35L900 40L900 40L900 45L900 45L900 50L900 50Z" fill="#ab6384"></path><path d="M727 50L679 50L679 45L706 45L706 40L762 40L762 35L719 35L719 30L708 30L708 25L741 25L741 20L694 20L694 15L657 15L657 10L739 10L739 5L763 5L763 0L900 0L900 5L900 5L900 10L900 10L900 15L900 15L900 20L900 20L900 25L900 25L900 30L900 30L900 35L900 35L900 40L900 40L900 45L900 45L900 50L900 50Z" fill="#8b5c83"></path><path d="M756 50L790 50L790 45L792 45L792 40L802 40L802 35L838 35L838 30L757 30L757 25L780 25L780 20L781 20L781 15L825 15L825 10L772 10L772 5L771 5L771 0L900 0L900 5L900 5L900 10L900 10L900 15L900 15L900 20L900 20L900 25L900 25L900 30L900 30L900 35L900 35L900 40L900 40L900 45L900 45L900 50L900 50Z" fill="#6c567b"></path></svg>