<svg id="visual" viewBox="0 0 960 90" width="960" height="90" xmlns="http://www.w3.org/2000/svg" xmlns:xlink="http://www.w3.org/1999/xlink" version="1.1"><path d="M0 43L8 40.8C16 38.7 32 34.3 48 33.5C64 32.7 80 35.3 96 37.7C112 40 128 42 144 39C160 36 176 28 192 27.5C208 27 224 34 240 37.7C256 41.3 272 41.7 288 41.3C304 41 320 40 336 36.3C352 32.7 368 26.3 384 23.8C400 21.3 416 22.7 432 26.5C448 30.3 464 36.7 480 38.5C496 40.3 512 37.7 528 35C544 32.3 560 29.7 576 27C592 24.3 608 21.7 624 22.5C640 23.3 656 27.7 672 30.7C688 33.7 704 35.3 720 37C736 38.7 752 40.3 768 37.8C784 35.3 800 28.7 816 28.7C832 28.7 848 35.3 864 35.5C880 35.7 896 29.3 912 28.8C928 28.3 944 33.7 952 36.3L960 39L960 0L952 0C944 0 928 0 912 0C896 0 880 0 864 0C848 0 832 0 816 0C800 0 784 0 768 0C752 0 736 0 720 0C704 0 688 0 672 0C656 0 640 0 624 0C608 0 592 0 576 0C560 0 544 0 528 0C512 0 496 0 480 0C464 0 448 0 432 0C416 0 400 0 384 0C368 0 352 0 336 0C320 0 304 0 288 0C272 0 256 0 240 0C224 0 208 0 192 0C176 0 160 0 144 0C128 0 112 0 96 0C80 0 64 0 48 0C32 0 16 0 8 0L0 0Z" fill="#451952"></path><path d="M0 26L8 27.8C16 29.7 32 33.3 48 32.5C64 31.7 80 26.3 96 23.7C112 21 128 21 144 23C160 25 176 29 192 29.2C208 29.3 224 25.7 240 25.3C256 25 272 28 288 29.8C304 31.7 320 32.3 336 31.5C352 30.7 368 28.3 384 26.8C400 25.3 416 24.7 432 26.7C448 28.7 464 33.3 480 33.7C496 34 512 30 528 26.7C544 23.3 560 20.7 576 21.7C592 22.7 608 27.3 624 30.7C640 34 656 36 672 36.5C688 37 704 36 720 32.8C736 29.7 752 24.3 768 24.5C784 24.7 800 30.3 816 30.7C832 31 848 26 864 25C880 24 896 27 912 28.2C928 29.3 944 28.7 952 28.3L960 28L960 0L952 0C944 0 928 0 912 0C896 0 880 0 864 0C848 0 832 0 816 0C800 0 784 0 768 0C752 0 736 0 720 0C704 0 688 0 672 0C656 0 640 0 624 0C608 0 592 0 576 0C560 0 544 0 528 0C512 0 496 0 480 0C464 0 448 0 432 0C416 0 400 0 384 0C368 0 352 0 336 0C320 0 304 0 288 0C272 0 256 0 240 0C224 0 208 0 192 0C176 0 160 0 144 0C128 0 112 0 96 0C80 0 64 0 48 0C32 0 16 0 8 0L0 0Z" fill="#3d1b4f"></path><path d="M0 22L8 23.3C16 24.7 32 27.3 48 27.8C64 28.3 80 26.7 96 24.7C112 22.7 128 20.3 144 18.7C160 17 176 16 192 18.2C208 20.3 224 25.7 240 25.5C256 25.3 272 19.7 288 18.7C304 17.7 320 21.3 336 22.5C352 23.7 368 22.3 384 20.5C400 18.7 416 16.3 432 15.3C448 14.3 464 14.7 480 17.3C496 20 512 25 528 25C544 25 560 20 576 18.8C592 17.7 608 20.3 624 21.2C640 22 656 21 672 19C688 17 704 14 720 13.7C736 13.3 752 15.7 768 15.7C784 15.7 800 13.3 816 15.5C832 17.7 848 24.3 864 27.8C880 31.3 896 31.7 912 30.3C928 29 944 26 952 24.5L960 23L960 0L952 0C944 0 928 0 912 0C896 0 880 0 864 0C848 0 832 0 816 0C800 0 784 0 768 0C752 0 736 0 720 0C704 0 688 0 672 0C656 0 640 0 624 0C608 0 592 0 576 0C560 0 544 0 528 0C512 0 496 0 480 0C464 0 448 0 432 0C416 0 400 0 384 0C368 0 352 0 336 0C320 0 304 0 288 0C272 0 256 0 240 0C224 0 208 0 192 0C176 0 160 0 144 0C128 0 112 0 96 0C80 0 64 0 48 0C32 0 16 0 8 0L0 0Z" fill="#361c4b"></path><path d="M0 15L8 13.8C16 12.7 32 10.3 48 11.2C64 12 80 16 96 18.8C112 21.7 128 23.3 144 24C160 24.7 176 24.3 192 23.8C208 23.3 224 22.7 240 21.8C256 21 272 20 288 18.2C304 16.3 320 13.7 336 11.8C352 10 368 9 384 11.3C400 13.7 416 19.3 432 19.7C448 20 464 15 480 14C496 13 512 16 528 16.5C544 17 560 15 576 16.2C592 17.3 608 21.7 624 23.5C640 25.3 656 24.7 672 24.8C688 25 704 26 720 26C736 26 752 25 768 24.3C784 23.7 800 23.3 816 21.7C832 20 848 17 864 16.8C880 16.7 896 19.3 912 19.8C928 20.3 944 18.7 952 17.8L960 17L960 0L952 0C944 0 928 0 912 0C896 0 880 0 864 0C848 0 832 0 816 0C800 0 784 0 768 0C752 0 736 0 720 0C704 0 688 0 672 0C656 0 640 0 624 0C608 0 592 0 576 0C560 0 544 0 528 0C512 0 496 0 480 0C464 0 448 0 432 0C416 0 400 0 384 0C368 0 352 0 336 0C320 0 304 0 288 0C272 0 256 0 240 0C224 0 208 0 192 0C176 0 160 0 144 0C128 0 112 0 96 0C80 0 64 0 48 0C32 0 16 0 8 0L0 0Z" fill="#2f1c47"></path><path d="M0 17L8 16.2C16 15.3 32 13.7 48 12C64 10.3 80 8.7 96 9C112 9.3 128 11.7 144 13.5C160 15.3 176 16.7 192 15.7C208 14.7 224 11.3 240 9.7C256 8 272 8 288 10.2C304 12.3 320 16.7 336 16.8C352 17 368 13 384 10.8C400 8.7 416 8.3 432 10C448 11.7 464 15.3 480 17.5C496 19.7 512 20.3 528 18C544 15.7 560 10.3 576 10.3C592 10.3 608 15.7 624 16.7C640 17.7 656 14.3 672 12.7C688 11 704 11 720 10.2C736 9.3 752 7.7 768 7.7C784 7.7 800 9.3 816 11.3C832 13.3 848 15.7 864 15.7C880 15.7 896 13.3 912 11.5C928 9.7 944 8.3 952 7.7L960 7L960 0L952 0C944 0 928 0 912 0C896 0 880 0 864 0C848 0 832 0 816 0C800 0 784 0 768 0C752 0 736 0 720 0C704 0 688 0 672 0C656 0 640 0 624 0C608 0 592 0 576 0C560 0 544 0 528 0C512 0 496 0 480 0C464 0 448 0 432 0C416 0 400 0 384 0C368 0 352 0 336 0C320 0 304 0 288 0C272 0 256 0 240 0C224 0 208 0 192 0C176 0 160 0 144 0C128 0 112 0 96 0C80 0 64 0 48 0C32 0 16 0 8 0L0 0Z" fill="#281c43"></path><path d="M0 3L8 3.7C16 4.3 32 5.7 48 7.5C64 9.3 80 11.7 96 12.2C112 12.7 128 11.3 144 9.5C160 7.7 176 5.3 192 4.3C208 3.3 224 3.7 240 4.8C256 6 272 8 288 8C304 8 320 6 336 5.3C352 4.7 368 5.3 384 5.7C400 6 416 6 432 7.5C448 9 464 12 480 11.8C496 11.7 512 8.3 528 6.2C544 4 560 3 576 4.5C592 6 608 10 624 11.7C640 13.3 656 12.7 672 10.7C688 8.7 704 5.3 720 4.5C736 3.7 752 5.3 768 6.3C784 7.3 800 7.7 816 7.8C832 8 848 8 864 7.3C880 6.7 896 5.3 912 5.2C928 5 944 6 952 6.5L960 7L960 0L952 0C944 0 928 0 912 0C896 0 880 0 864 0C848 0 832 0 816 0C800 0 784 0 768 0C752 0 736 0 720 0C704 0 688 0 672 0C656 0 640 0 624 0C608 0 592 0 576 0C560 0 544 0 528 0C512 0 496 0 480 0C464 0 448 0 432 0C416 0 400 0 384 0C368 0 352 0 336 0C320 0 304 0 288 0C272 0 256 0 240 0C224 0 208 0 192 0C176 0 160 0 144 0C128 0 112 0 96 0C80 0 64 0 48 0C32 0 16 0 8 0L0 0Z" fill="#221b3e"></path><path d="M0 0L8 1C16 2 32 4 48 5.2C64 6.3 80 6.7 96 6C112 5.3 128 3.7 144 2.7C160 1.7 176 1.3 192 1.2C208 1 224 1 240 1C256 1 272 1 288 0.8C304 0.7 320 0.3 336 0.5C352 0.7 368 1.3 384 2.3C400 3.3 416 4.7 432 4.5C448 4.3 464 2.7 480 3.2C496 3.7 512 6.3 528 7C544 7.7 560 6.3 576 6.5C592 6.7 608 8.3 624 8.3C640 8.3 656 6.7 672 5C688 3.3 704 1.7 720 1.2C736 0.7 752 1.3 768 2C784 2.7 800 3.3 816 3C832 2.7 848 1.3 864 1.3C880 1.3 896 2.7 912 2.7C928 2.7 944 1.3 952 0.7L960 0L960 0L952 0C944 0 928 0 912 0C896 0 880 0 864 0C848 0 832 0 816 0C800 0 784 0 768 0C752 0 736 0 720 0C704 0 688 0 672 0C656 0 640 0 624 0C608 0 592 0 576 0C560 0 544 0 528 0C512 0 496 0 480 0C464 0 448 0 432 0C416 0 400 0 384 0C368 0 352 0 336 0C320 0 304 0 288 0C272 0 256 0 240 0C224 0 208 0 192 0C176 0 160 0 144 0C128 0 112 0 96 0C80 0 64 0 48 0C32 0 16 0 8 0L0 0Z" fill="#1d1a39"></path></svg>