<svg id="visual" viewBox="0 0 900 50" width="900" height="50" xmlns="http://www.w3.org/2000/svg" xmlns:xlink="http://www.w3.org/1999/xlink" version="1.1"><path d="M756 0L732 0L732 5L756 5L756 10L675 10L675 15L615 15L615 20L673 20L673 25L770 25L770 30L724 30L724 35L781 35L781 40L776 40L776 45L688 45L688 50L0 50L0 45L0 45L0 40L0 40L0 35L0 35L0 30L0 30L0 25L0 25L0 20L0 20L0 15L0 15L0 10L0 10L0 5L0 5L0 0L0 0Z" fill="#f39f5a"></path><path d="M666 0L530 0L530 5L658 5L658 10L686 10L686 15L626 15L626 20L576 20L576 25L524 25L524 30L541 30L541 35L671 35L671 40L550 40L550 45L631 45L631 50L0 50L0 45L0 45L0 40L0 40L0 35L0 35L0 30L0 30L0 25L0 25L0 20L0 20L0 15L0 15L0 10L0 10L0 5L0 5L0 0L0 0Z" fill="#ed8967"></path><path d="M511 0L449 0L449 5L441 5L441 10L554 10L554 15L536 15L536 20L479 20L479 25L517 25L517 30L432 30L432 35L501 35L501 40L492 40L492 45L533 45L533 50L0 50L0 45L0 45L0 40L0 40L0 35L0 35L0 30L0 30L0 25L0 25L0 20L0 20L0 15L0 15L0 10L0 10L0 5L0 5L0 0L0 0Z" fill="#de7775"></path><path d="M356 0L405 0L405 5L378 5L378 10L382 10L382 15L472 15L472 20L340 20L340 25L386 25L386 30L435 30L435 35L396 35L396 40L395 40L395 45L387 45L387 50L0 50L0 45L0 45L0 40L0 40L0 35L0 35L0 30L0 30L0 25L0 25L0 20L0 20L0 15L0 15L0 10L0 10L0 5L0 5L0 0L0 0Z" fill="#c76b7f"></path><path d="M346 0L357 0L357 5L298 5L298 10L291 10L291 15L353 15L353 20L293 20L293 25L313 25L313 30L354 30L354 35L277 35L277 40L263 40L263 45L330 45L330 50L0 50L0 45L0 45L0 40L0 40L0 35L0 35L0 30L0 30L0 25L0 25L0 20L0 20L0 15L0 15L0 10L0 10L0 5L0 5L0 0L0 0Z" fill="#ab6384"></path><path d="M271 0L153 0L153 5L225 5L225 10L207 10L207 15L241 15L241 20L178 20L178 25L238 25L238 30L195 30L195 35L209 35L209 40L167 40L167 45L145 45L145 50L0 50L0 45L0 45L0 40L0 40L0 35L0 35L0 30L0 30L0 25L0 25L0 20L0 20L0 15L0 15L0 10L0 10L0 5L0 5L0 0L0 0Z" fill="#8b5c83"></path><path d="M120 0L166 0L166 5L69 5L69 10L146 10L146 15L66 15L66 20L116 20L116 25L165 25L165 30L134 30L134 35L81 35L81 40L65 40L65 45L74 45L74 50L0 50L0 45L0 45L0 40L0 40L0 35L0 35L0 30L0 30L0 25L0 25L0 20L0 20L0 15L0 15L0 10L0 10L0 5L0 5L0 0L0 0Z" fill="#6c567b"></path></svg>