<svg id="visual" viewBox="0 0 960 90" width="960" height="90" xmlns="http://www.w3.org/2000/svg" xmlns:xlink="http://www.w3.org/1999/xlink" version="1.1"><path d="M0 35L10 34.7C20 34.3 40 33.7 60 31.2C80 28.7 100 24.3 120 23.7C140 23 160 26 180 27.8C200 29.7 220 30.3 240 30C260 29.7 280 28.3 300 27.3C320 26.3 340 25.7 360 26.8C380 28 400 31 420 33.3C440 35.7 460 37.3 480 38C500 38.7 520 38.3 540 35.2C560 32 580 26 600 25.2C620 24.3 640 28.7 660 30.3C680 32 700 31 720 31.7C740 32.3 760 34.7 780 33.7C800 32.7 820 28.3 840 25.8C860 23.3 880 22.7 900 25.3C920 28 940 34 950 37L960 40L960 0L950 0C940 0 920 0 900 0C880 0 860 0 840 0C820 0 800 0 780 0C760 0 740 0 720 0C700 0 680 0 660 0C640 0 620 0 600 0C580 0 560 0 540 0C520 0 500 0 480 0C460 0 440 0 420 0C400 0 380 0 360 0C340 0 320 0 300 0C280 0 260 0 240 0C220 0 200 0 180 0C160 0 140 0 120 0C100 0 80 0 60 0C40 0 20 0 10 0L0 0Z" fill="#451952"></path><path d="M0 33L10 33.3C20 33.7 40 34.3 60 32.7C80 31 100 27 120 24.2C140 21.3 160 19.7 180 20.5C200 21.3 220 24.7 240 27.3C260 30 280 32 300 30.8C320 29.7 340 25.3 360 25.3C380 25.3 400 29.7 420 29.7C440 29.7 460 25.3 480 23.8C500 22.3 520 23.7 540 24.5C560 25.3 580 25.7 600 26.5C620 27.3 640 28.7 660 27.5C680 26.3 700 22.7 720 22.5C740 22.3 760 25.7 780 27C800 28.3 820 27.7 840 26.8C860 26 880 25 900 24C920 23 940 22 950 21.5L960 21L960 0L950 0C940 0 920 0 900 0C880 0 860 0 840 0C820 0 800 0 780 0C760 0 740 0 720 0C700 0 680 0 660 0C640 0 620 0 600 0C580 0 560 0 540 0C520 0 500 0 480 0C460 0 440 0 420 0C400 0 380 0 360 0C340 0 320 0 300 0C280 0 260 0 240 0C220 0 200 0 180 0C160 0 140 0 120 0C100 0 80 0 60 0C40 0 20 0 10 0L0 0Z" fill="#3d1b4f"></path><path d="M0 27L10 26.8C20 26.7 40 26.3 60 25.2C80 24 100 22 120 20.5C140 19 160 18 180 19C200 20 220 23 240 25C260 27 280 28 300 26.5C320 25 340 21 360 20C380 19 400 21 420 21.2C440 21.3 460 19.7 480 18.5C500 17.3 520 16.7 540 16.2C560 15.7 580 15.3 600 15.8C620 16.3 640 17.7 660 20.2C680 22.7 700 26.3 720 25.3C740 24.3 760 18.7 780 15.8C800 13 820 13 840 15C860 17 880 21 900 21.5C920 22 940 19 950 17.5L960 16L960 0L950 0C940 0 920 0 900 0C880 0 860 0 840 0C820 0 800 0 780 0C760 0 740 0 720 0C700 0 680 0 660 0C640 0 620 0 600 0C580 0 560 0 540 0C520 0 500 0 480 0C460 0 440 0 420 0C400 0 380 0 360 0C340 0 320 0 300 0C280 0 260 0 240 0C220 0 200 0 180 0C160 0 140 0 120 0C100 0 80 0 60 0C40 0 20 0 10 0L0 0Z" fill="#361c4b"></path><path d="M0 19L10 19.5C20 20 40 21 60 19.7C80 18.3 100 14.7 120 14.8C140 15 160 19 180 19.8C200 20.7 220 18.3 240 17.2C260 16 280 16 300 17.3C320 18.7 340 21.3 360 22.5C380 23.7 400 23.3 420 22.8C440 22.3 460 21.7 480 20.8C500 20 520 19 540 19C560 19 580 20 600 19.2C620 18.3 640 15.7 660 15.8C680 16 700 19 720 20.5C740 22 760 22 780 22.2C800 22.3 820 22.7 840 20.8C860 19 880 15 900 15C920 15 940 19 950 21L960 23L960 0L950 0C940 0 920 0 900 0C880 0 860 0 840 0C820 0 800 0 780 0C760 0 740 0 720 0C700 0 680 0 660 0C640 0 620 0 600 0C580 0 560 0 540 0C520 0 500 0 480 0C460 0 440 0 420 0C400 0 380 0 360 0C340 0 320 0 300 0C280 0 260 0 240 0C220 0 200 0 180 0C160 0 140 0 120 0C100 0 80 0 60 0C40 0 20 0 10 0L0 0Z" fill="#2f1c47"></path><path d="M0 10L10 9.5C20 9 40 8 60 7.8C80 7.7 100 8.3 120 10.5C140 12.7 160 16.3 180 16.2C200 16 220 12 240 11.8C260 11.7 280 15.3 300 15.5C320 15.7 340 12.3 360 11.7C380 11 400 13 420 13.7C440 14.3 460 13.7 480 13C500 12.3 520 11.7 540 11.5C560 11.3 580 11.7 600 11.5C620 11.3 640 10.7 660 11.3C680 12 700 14 720 14.3C740 14.7 760 13.3 780 12C800 10.7 820 9.3 840 10.3C860 11.3 880 14.7 900 14.8C920 15 940 12 950 10.5L960 9L960 0L950 0C940 0 920 0 900 0C880 0 860 0 840 0C820 0 800 0 780 0C760 0 740 0 720 0C700 0 680 0 660 0C640 0 620 0 600 0C580 0 560 0 540 0C520 0 500 0 480 0C460 0 440 0 420 0C400 0 380 0 360 0C340 0 320 0 300 0C280 0 260 0 240 0C220 0 200 0 180 0C160 0 140 0 120 0C100 0 80 0 60 0C40 0 20 0 10 0L0 0Z" fill="#281c43"></path><path d="M0 10L10 10.7C20 11.3 40 12.7 60 11.7C80 10.7 100 7.3 120 6.8C140 6.3 160 8.7 180 10C200 11.3 220 11.7 240 10.7C260 9.7 280 7.3 300 7C320 6.7 340 8.3 360 9.8C380 11.3 400 12.7 420 13.2C440 13.7 460 13.3 480 13C500 12.7 520 12.3 540 12C560 11.7 580 11.3 600 11.2C620 11 640 11 660 11.2C680 11.3 700 11.7 720 11.8C740 12 760 12 780 10.8C800 9.7 820 7.3 840 7.5C860 7.7 880 10.3 900 11.5C920 12.7 940 12.3 950 12.2L960 12L960 0L950 0C940 0 920 0 900 0C880 0 860 0 840 0C820 0 800 0 780 0C760 0 740 0 720 0C700 0 680 0 660 0C640 0 620 0 600 0C580 0 560 0 540 0C520 0 500 0 480 0C460 0 440 0 420 0C400 0 380 0 360 0C340 0 320 0 300 0C280 0 260 0 240 0C220 0 200 0 180 0C160 0 140 0 120 0C100 0 80 0 60 0C40 0 20 0 10 0L0 0Z" fill="#221b3e"></path><path d="M0 9L10 7.7C20 6.3 40 3.7 60 2.3C80 1 100 1 120 1.8C140 2.7 160 4.3 180 4.7C200 5 220 4 240 3.3C260 2.7 280 2.3 300 3C320 3.7 340 5.3 360 5.8C380 6.3 400 5.7 420 5.7C440 5.7 460 6.3 480 5.7C500 5 520 3 540 3C560 3 580 5 600 6.3C620 7.7 640 8.3 660 8C680 7.7 700 6.3 720 6.3C740 6.3 760 7.7 780 8C800 8.3 820 7.7 840 7C860 6.3 880 5.7 900 4.8C920 4 940 3 950 2.5L960 2L960 0L950 0C940 0 920 0 900 0C880 0 860 0 840 0C820 0 800 0 780 0C760 0 740 0 720 0C700 0 680 0 660 0C640 0 620 0 600 0C580 0 560 0 540 0C520 0 500 0 480 0C460 0 440 0 420 0C400 0 380 0 360 0C340 0 320 0 300 0C280 0 260 0 240 0C220 0 200 0 180 0C160 0 140 0 120 0C100 0 80 0 60 0C40 0 20 0 10 0L0 0Z" fill="#1d1a39"></path></svg>