<svg id="visual" viewBox="0 0 960 90" width="960" height="90" xmlns="http://www.w3.org/2000/svg" xmlns:xlink="http://www.w3.org/1999/xlink" version="1.1"><path d="M0 54L7 47.2C14 40.3 28 26.7 41.8 27.7C55.7 28.7 69.3 44.3 83.2 48.2C97 52 111 44 125 44.5C139 45 153 54 167 49.2C181 44.3 195 25.7 208.8 25.8C222.7 26 236.3 45 250.2 55C264 65 278 66 292 62C306 58 320 49 334 48C348 47 362 54 375.8 57.7C389.7 61.3 403.3 61.7 417.2 59.5C431 57.3 445 52.7 459 48.7C473 44.7 487 41.3 501 43.3C515 45.3 529 52.7 542.8 48.7C556.7 44.7 570.3 29.3 584.2 21.8C598 14.3 612 14.7 626 22.8C640 31 654 47 668 51.3C682 55.7 696 48.3 709.8 40.5C723.7 32.7 737.3 24.3 751.2 25C765 25.7 779 35.3 793 43.7C807 52 821 59 835 60.3C849 61.7 863 57.3 876.8 53C890.7 48.7 904.3 44.3 918.2 43.7C932 43 946 46 953 47.5L960 49L960 91L953 91C946 91 932 91 918.2 91C904.3 91 890.7 91 876.8 91C863 91 849 91 835 91C821 91 807 91 793 91C779 91 765 91 751.2 91C737.3 91 723.7 91 709.8 91C696 91 682 91 668 91C654 91 640 91 626 91C612 91 598 91 584.2 91C570.3 91 556.7 91 542.8 91C529 91 515 91 501 91C487 91 473 91 459 91C445 91 431 91 417.2 91C403.3 91 389.7 91 375.8 91C362 91 348 91 334 91C320 91 306 91 292 91C278 91 264 91 250.2 91C236.3 91 222.7 91 208.8 91C195 91 181 91 167 91C153 91 139 91 125 91C111 91 97 91 83.2 91C69.3 91 55.7 91 41.8 91C28 91 14 91 7 91L0 91Z" fill="#6c567b"></path><path d="M0 17L7 25.5C14 34 28 51 41.8 58.7C55.7 66.3 69.3 64.7 83.2 58.2C97 51.7 111 40.3 125 39.5C139 38.7 153 48.3 167 51.7C181 55 195 52 208.8 47.5C222.7 43 236.3 37 250.2 38C264 39 278 47 292 49.8C306 52.7 320 50.3 334 43.7C348 37 362 26 375.8 24.5C389.7 23 403.3 31 417.2 37.2C431 43.3 445 47.7 459 46.5C473 45.3 487 38.7 501 34.7C515 30.7 529 29.3 542.8 32.3C556.7 35.3 570.3 42.7 584.2 42C598 41.3 612 32.7 626 35C640 37.3 654 50.7 668 57.8C682 65 696 66 709.8 64.7C723.7 63.3 737.3 59.7 751.2 56.8C765 54 779 52 793 52.3C807 52.7 821 55.3 835 50.2C849 45 863 32 876.8 30.2C890.7 28.3 904.3 37.7 918.2 37.8C932 38 946 29 953 24.5L960 20L960 91L953 91C946 91 932 91 918.2 91C904.3 91 890.7 91 876.8 91C863 91 849 91 835 91C821 91 807 91 793 91C779 91 765 91 751.2 91C737.3 91 723.7 91 709.8 91C696 91 682 91 668 91C654 91 640 91 626 91C612 91 598 91 584.2 91C570.3 91 556.7 91 542.8 91C529 91 515 91 501 91C487 91 473 91 459 91C445 91 431 91 417.2 91C403.3 91 389.7 91 375.8 91C362 91 348 91 334 91C320 91 306 91 292 91C278 91 264 91 250.2 91C236.3 91 222.7 91 208.8 91C195 91 181 91 167 91C153 91 139 91 125 91C111 91 97 91 83.2 91C69.3 91 55.7 91 41.8 91C28 91 14 91 7 91L0 91Z" fill="#614e6e"></path><path d="M0 27L7 31.2C14 35.3 28 43.7 41.8 49.8C55.7 56 69.3 60 83.2 60.7C97 61.3 111 58.7 125 59.2C139 59.7 153 63.3 167 63.8C181 64.3 195 61.7 208.8 58.7C222.7 55.7 236.3 52.3 250.2 52.5C264 52.7 278 56.3 292 54.5C306 52.7 320 45.3 334 42.5C348 39.7 362 41.3 375.8 43.3C389.7 45.3 403.3 47.7 417.2 46.5C431 45.3 445 40.7 459 43.8C473 47 487 58 501 57C515 56 529 43 542.8 42.8C556.7 42.7 570.3 55.3 584.2 59.8C598 64.3 612 60.7 626 55.7C640 50.7 654 44.3 668 43C682 41.7 696 45.3 709.8 43.2C723.7 41 737.3 33 751.2 31C765 29 779 33 793 35.8C807 38.7 821 40.3 835 45.7C849 51 863 60 876.8 64C890.7 68 904.3 67 918.2 59.2C932 51.3 946 36.7 953 29.3L960 22L960 91L953 91C946 91 932 91 918.2 91C904.3 91 890.7 91 876.8 91C863 91 849 91 835 91C821 91 807 91 793 91C779 91 765 91 751.2 91C737.3 91 723.7 91 709.8 91C696 91 682 91 668 91C654 91 640 91 626 91C612 91 598 91 584.2 91C570.3 91 556.7 91 542.8 91C529 91 515 91 501 91C487 91 473 91 459 91C445 91 431 91 417.2 91C403.3 91 389.7 91 375.8 91C362 91 348 91 334 91C320 91 306 91 292 91C278 91 264 91 250.2 91C236.3 91 222.7 91 208.8 91C195 91 181 91 167 91C153 91 139 91 125 91C111 91 97 91 83.2 91C69.3 91 55.7 91 41.8 91C28 91 14 91 7 91L0 91Z" fill="#574662"></path><path d="M0 35L7 37.2C14 39.3 28 43.7 41.8 47C55.7 50.3 69.3 52.7 83.2 54C97 55.3 111 55.7 125 58.2C139 60.7 153 65.3 167 65.5C181 65.7 195 61.3 208.8 56.8C222.7 52.3 236.3 47.7 250.2 48.8C264 50 278 57 292 57C306 57 320 50 334 46.8C348 43.7 362 44.3 375.8 48.8C389.7 53.3 403.3 61.7 417.2 66C431 70.3 445 70.7 459 64C473 57.3 487 43.7 501 44C515 44.3 529 58.7 542.8 62.7C556.7 66.7 570.3 60.3 584.2 55C598 49.7 612 45.3 626 43.7C640 42 654 43 668 42.3C682 41.7 696 39.3 709.8 40.8C723.7 42.3 737.3 47.7 751.2 48.7C765 49.7 779 46.3 793 43.5C807 40.7 821 38.3 835 36.3C849 34.3 863 32.7 876.8 35C890.7 37.3 904.3 43.7 918.2 44.8C932 46 946 42 953 40L960 38L960 91L953 91C946 91 932 91 918.2 91C904.3 91 890.7 91 876.8 91C863 91 849 91 835 91C821 91 807 91 793 91C779 91 765 91 751.2 91C737.3 91 723.7 91 709.8 91C696 91 682 91 668 91C654 91 640 91 626 91C612 91 598 91 584.2 91C570.3 91 556.7 91 542.8 91C529 91 515 91 501 91C487 91 473 91 459 91C445 91 431 91 417.2 91C403.3 91 389.7 91 375.8 91C362 91 348 91 334 91C320 91 306 91 292 91C278 91 264 91 250.2 91C236.3 91 222.7 91 208.8 91C195 91 181 91 167 91C153 91 139 91 125 91C111 91 97 91 83.2 91C69.3 91 55.7 91 41.8 91C28 91 14 91 7 91L0 91Z" fill="#4c3e56"></path><path d="M0 61L7 59.8C14 58.7 28 56.3 41.8 53.8C55.7 51.3 69.3 48.7 83.2 47.2C97 45.7 111 45.3 125 47C139 48.7 153 52.3 167 56.3C181 60.3 195 64.7 208.8 64.5C222.7 64.3 236.3 59.7 250.2 55.7C264 51.7 278 48.3 292 50.5C306 52.7 320 60.3 334 63.3C348 66.3 362 64.7 375.8 62C389.7 59.3 403.3 55.7 417.2 56.3C431 57 445 62 459 62C473 62 487 57 501 55.2C515 53.3 529 54.7 542.8 53C556.7 51.3 570.3 46.7 584.2 44.8C598 43 612 44 626 44.5C640 45 654 45 668 49.2C682 53.3 696 61.7 709.8 66.7C723.7 71.7 737.3 73.3 751.2 72.3C765 71.3 779 67.7 793 67.3C807 67 821 70 835 69C849 68 863 63 876.8 61.8C890.7 60.7 904.3 63.3 918.2 65.8C932 68.3 946 70.7 953 71.8L960 73L960 91L953 91C946 91 932 91 918.2 91C904.3 91 890.7 91 876.8 91C863 91 849 91 835 91C821 91 807 91 793 91C779 91 765 91 751.2 91C737.3 91 723.7 91 709.8 91C696 91 682 91 668 91C654 91 640 91 626 91C612 91 598 91 584.2 91C570.3 91 556.7 91 542.8 91C529 91 515 91 501 91C487 91 473 91 459 91C445 91 431 91 417.2 91C403.3 91 389.7 91 375.8 91C362 91 348 91 334 91C320 91 306 91 292 91C278 91 264 91 250.2 91C236.3 91 222.7 91 208.8 91C195 91 181 91 167 91C153 91 139 91 125 91C111 91 97 91 83.2 91C69.3 91 55.7 91 41.8 91C28 91 14 91 7 91L0 91Z" fill="#42374a"></path><path d="M0 57L7 56.3C14 55.7 28 54.3 41.8 52.8C55.7 51.3 69.3 49.7 83.2 53.8C97 58 111 68 125 67.8C139 67.7 153 57.3 167 54.5C181 51.7 195 56.3 208.8 58.5C222.7 60.7 236.3 60.3 250.2 59.5C264 58.7 278 57.3 292 58C306 58.7 320 61.3 334 62.2C348 63 362 62 375.8 60C389.7 58 403.3 55 417.2 57.5C431 60 445 68 459 68.8C473 69.7 487 63.3 501 63.3C515 63.3 529 69.7 542.8 67.8C556.7 66 570.3 56 584.2 54.3C598 52.7 612 59.3 626 61.7C640 64 654 62 668 63.8C682 65.7 696 71.3 709.8 72.2C723.7 73 737.3 69 751.2 66.7C765 64.3 779 63.7 793 65.7C807 67.7 821 72.3 835 71.8C849 71.3 863 65.7 876.8 61.5C890.7 57.3 904.3 54.7 918.2 56.8C932 59 946 66 953 69.5L960 73L960 91L953 91C946 91 932 91 918.2 91C904.3 91 890.7 91 876.8 91C863 91 849 91 835 91C821 91 807 91 793 91C779 91 765 91 751.2 91C737.3 91 723.7 91 709.8 91C696 91 682 91 668 91C654 91 640 91 626 91C612 91 598 91 584.2 91C570.3 91 556.7 91 542.8 91C529 91 515 91 501 91C487 91 473 91 459 91C445 91 431 91 417.2 91C403.3 91 389.7 91 375.8 91C362 91 348 91 334 91C320 91 306 91 292 91C278 91 264 91 250.2 91C236.3 91 222.7 91 208.8 91C195 91 181 91 167 91C153 91 139 91 125 91C111 91 97 91 83.2 91C69.3 91 55.7 91 41.8 91C28 91 14 91 7 91L0 91Z" fill="#382f3e"></path><path d="M0 57L7 56.3C14 55.7 28 54.3 41.8 55.2C55.7 56 69.3 59 83.2 60.8C97 62.7 111 63.3 125 63.7C139 64 153 64 167 63.3C181 62.7 195 61.3 208.8 61.3C222.7 61.3 236.3 62.7 250.2 64.2C264 65.7 278 67.3 292 66.2C306 65 320 61 334 61.8C348 62.7 362 68.3 375.8 70.3C389.7 72.3 403.3 70.7 417.2 71.2C431 71.7 445 74.3 459 75C473 75.7 487 74.3 501 70.2C515 66 529 59 542.8 59.3C556.7 59.7 570.3 67.3 584.2 69.2C598 71 612 67 626 66.8C640 66.7 654 70.3 668 72C682 73.7 696 73.3 709.8 73.5C723.7 73.7 737.3 74.3 751.2 71C765 67.7 779 60.3 793 57.5C807 54.7 821 56.3 835 59.7C849 63 863 68 876.8 69C890.7 70 904.3 67 918.2 64.5C932 62 946 60 953 59L960 58L960 91L953 91C946 91 932 91 918.2 91C904.3 91 890.7 91 876.8 91C863 91 849 91 835 91C821 91 807 91 793 91C779 91 765 91 751.2 91C737.3 91 723.7 91 709.8 91C696 91 682 91 668 91C654 91 640 91 626 91C612 91 598 91 584.2 91C570.3 91 556.7 91 542.8 91C529 91 515 91 501 91C487 91 473 91 459 91C445 91 431 91 417.2 91C403.3 91 389.7 91 375.8 91C362 91 348 91 334 91C320 91 306 91 292 91C278 91 264 91 250.2 91C236.3 91 222.7 91 208.8 91C195 91 181 91 167 91C153 91 139 91 125 91C111 91 97 91 83.2 91C69.3 91 55.7 91 41.8 91C28 91 14 91 7 91L0 91Z" fill="#2f2833"></path><path d="M0 75L7 73.8C14 72.7 28 70.3 41.8 69.3C55.7 68.3 69.3 68.7 83.2 69.2C97 69.7 111 70.3 125 71.3C139 72.3 153 73.7 167 74.5C181 75.3 195 75.7 208.8 76.5C222.7 77.3 236.3 78.7 250.2 76.5C264 74.3 278 68.7 292 68.7C306 68.7 320 74.3 334 73.8C348 73.3 362 66.7 375.8 67.2C389.7 67.7 403.3 75.3 417.2 79.2C431 83 445 83 459 82.7C473 82.3 487 81.7 501 80.7C515 79.7 529 78.3 542.8 76.5C556.7 74.7 570.3 72.3 584.2 69.8C598 67.3 612 64.7 626 64.2C640 63.7 654 65.3 668 68.7C682 72 696 77 709.8 79.2C723.7 81.3 737.3 80.7 751.2 80.7C765 80.7 779 81.3 793 77.8C807 74.3 821 66.7 835 66.7C849 66.7 863 74.3 876.8 77.7C890.7 81 904.3 80 918.2 77.7C932 75.3 946 71.7 953 69.8L960 68L960 91L953 91C946 91 932 91 918.2 91C904.3 91 890.7 91 876.8 91C863 91 849 91 835 91C821 91 807 91 793 91C779 91 765 91 751.2 91C737.3 91 723.7 91 709.8 91C696 91 682 91 668 91C654 91 640 91 626 91C612 91 598 91 584.2 91C570.3 91 556.7 91 542.8 91C529 91 515 91 501 91C487 91 473 91 459 91C445 91 431 91 417.2 91C403.3 91 389.7 91 375.8 91C362 91 348 91 334 91C320 91 306 91 292 91C278 91 264 91 250.2 91C236.3 91 222.7 91 208.8 91C195 91 181 91 167 91C153 91 139 91 125 91C111 91 97 91 83.2 91C69.3 91 55.7 91 41.8 91C28 91 14 91 7 91L0 91Z" fill="#252128"></path><path d="M0 81L7 81.3C14 81.7 28 82.3 41.8 80.3C55.7 78.3 69.3 73.7 83.2 72.3C97 71 111 73 125 74.3C139 75.7 153 76.3 167 75.5C181 74.7 195 72.3 208.8 71.3C222.7 70.3 236.3 70.7 250.2 71C264 71.3 278 71.7 292 71.8C306 72 320 72 334 71.7C348 71.3 362 70.7 375.8 70.8C389.7 71 403.3 72 417.2 72.8C431 73.7 445 74.3 459 75.7C473 77 487 79 501 79.5C515 80 529 79 542.8 77.2C556.7 75.3 570.3 72.7 584.2 72C598 71.3 612 72.7 626 72.8C640 73 654 72 668 73.5C682 75 696 79 709.8 80.5C723.7 82 737.3 81 751.2 78.8C765 76.7 779 73.3 793 71.8C807 70.3 821 70.7 835 72.2C849 73.7 863 76.3 876.8 76.7C890.7 77 904.3 75 918.2 75.8C932 76.7 946 80.3 953 82.2L960 84L960 91L953 91C946 91 932 91 918.2 91C904.3 91 890.7 91 876.8 91C863 91 849 91 835 91C821 91 807 91 793 91C779 91 765 91 751.2 91C737.3 91 723.7 91 709.8 91C696 91 682 91 668 91C654 91 640 91 626 91C612 91 598 91 584.2 91C570.3 91 556.7 91 542.8 91C529 91 515 91 501 91C487 91 473 91 459 91C445 91 431 91 417.2 91C403.3 91 389.7 91 375.8 91C362 91 348 91 334 91C320 91 306 91 292 91C278 91 264 91 250.2 91C236.3 91 222.7 91 208.8 91C195 91 181 91 167 91C153 91 139 91 125 91C111 91 97 91 83.2 91C69.3 91 55.7 91 41.8 91C28 91 14 91 7 91L0 91Z" fill="#1c1a1d"></path><path d="M0 84L7 83.3C14 82.7 28 81.3 41.8 80C55.7 78.7 69.3 77.3 83.2 76.3C97 75.3 111 74.7 125 75.8C139 77 153 80 167 81.3C181 82.7 195 82.3 208.8 82.3C222.7 82.3 236.3 82.7 250.2 83C264 83.3 278 83.7 292 84.2C306 84.7 320 85.3 334 85.3C348 85.3 362 84.7 375.8 82.8C389.7 81 403.3 78 417.2 76.5C431 75 445 75 459 76C473 77 487 79 501 80.3C515 81.7 529 82.3 542.8 81.8C556.7 81.3 570.3 79.7 584.2 78.7C598 77.7 612 77.3 626 77.2C640 77 654 77 668 77.5C682 78 696 79 709.8 79.8C723.7 80.7 737.3 81.3 751.2 80.7C765 80 779 78 793 78.3C807 78.7 821 81.3 835 81.7C849 82 863 80 876.8 78.8C890.7 77.7 904.3 77.3 918.2 78.8C932 80.3 946 83.7 953 85.3L960 87L960 91L953 91C946 91 932 91 918.2 91C904.3 91 890.7 91 876.8 91C863 91 849 91 835 91C821 91 807 91 793 91C779 91 765 91 751.2 91C737.3 91 723.7 91 709.8 91C696 91 682 91 668 91C654 91 640 91 626 91C612 91 598 91 584.2 91C570.3 91 556.7 91 542.8 91C529 91 515 91 501 91C487 91 473 91 459 91C445 91 431 91 417.2 91C403.3 91 389.7 91 375.8 91C362 91 348 91 334 91C320 91 306 91 292 91C278 91 264 91 250.2 91C236.3 91 222.7 91 208.8 91C195 91 181 91 167 91C153 91 139 91 125 91C111 91 97 91 83.2 91C69.3 91 55.7 91 41.8 91C28 91 14 91 7 91L0 91Z" fill="#131313"></path></svg>