<svg width="1920" height="1080" xmlns="http://www.w3.org/2000/svg" xmlns:xlink="http://www.w3.org/1999/xlink" version="1.1" style=""><rect id="backgroundrect" width="100%" height="100%" x="0" y="0" fill="none" stroke="none"/><defs><linearGradient id="grad1_0" x1="43.8%" y1="0%" x2="100%" y2="100%"><stop offset="14.444444444444446%" stop-color="#f39f5a" stop-opacity="1"/><stop offset="85.55555555555554%" stop-color="#f39f5a" stop-opacity="1"/></linearGradient></defs><defs><linearGradient id="grad1_1" x1="43.8%" y1="0%" x2="100%" y2="100%"><stop offset="14.444444444444446%" stop-color="#f39f5a" stop-opacity="1"/><stop offset="85.55555555555554%" stop-color="#e77f6e" stop-opacity="1"/></linearGradient></defs><defs><linearGradient id="grad1_2" x1="43.8%" y1="0%" x2="100%" y2="100%"><stop offset="14.444444444444446%" stop-color="#c76b7f" stop-opacity="1"/><stop offset="85.55555555555554%" stop-color="#e77f6e" stop-opacity="1"/></linearGradient></defs><defs><linearGradient id="grad1_3" x1="43.8%" y1="0%" x2="100%" y2="100%"><stop offset="14.444444444444446%" stop-color="#c76b7f" stop-opacity="1"/><stop offset="85.55555555555554%" stop-color="#9b5f85" stop-opacity="1"/></linearGradient></defs><defs><linearGradient id="grad1_4" x1="43.8%" y1="0%" x2="100%" y2="100%"><stop offset="14.444444444444446%" stop-color="#6c567b" stop-opacity="1"/><stop offset="85.55555555555554%" stop-color="#9b5f85" stop-opacity="1"/></linearGradient></defs><defs><linearGradient id="grad2_0" x1="0%" y1="0%" x2="56.3%" y2="100%"><stop offset="14.444444444444446%" stop-color="#f39f5a" stop-opacity="1"/><stop offset="85.55555555555554%" stop-color="#f39f5a" stop-opacity="1"/></linearGradient></defs><defs><linearGradient id="grad2_1" x1="0%" y1="0%" x2="56.3%" y2="100%"><stop offset="14.444444444444446%" stop-color="#e77f6e" stop-opacity="1"/><stop offset="85.55555555555554%" stop-color="#f39f5a" stop-opacity="1"/></linearGradient></defs><defs><linearGradient id="grad2_2" x1="0%" y1="0%" x2="56.3%" y2="100%"><stop offset="14.444444444444446%" stop-color="#e77f6e" stop-opacity="1"/><stop offset="85.55555555555554%" stop-color="#c76b7f" stop-opacity="1"/></linearGradient></defs><defs><linearGradient id="grad2_3" x1="0%" y1="0%" x2="56.3%" y2="100%"><stop offset="14.444444444444446%" stop-color="#9b5f85" stop-opacity="1"/><stop offset="85.55555555555554%" stop-color="#c76b7f" stop-opacity="1"/></linearGradient></defs><defs><linearGradient id="grad2_4" x1="0%" y1="0%" x2="56.3%" y2="100%"><stop offset="14.444444444444446%" stop-color="#9b5f85" stop-opacity="1"/><stop offset="85.55555555555554%" stop-color="#6c567b" stop-opacity="1"/></linearGradient></defs><g class="currentLayer" style=""><title>Layer 1</title><g class="" transform="rotate(-180, 960, 540)"><rect x="0" y="0" width="1920" height="1080" fill="#6C567B" id="svg_1" class=""/><g id="svg_2" class=""><path d="M1920,447 C1900.5,457.2 1881,467.5 1863.7,463.6 C1846.4,459.7 1831.2,441.8 1811.8,438.9 C1792.5,436 1769,448.1 1751.9,443.2 C1734.8,438.2 1724.2,416.2 1705.8,408.2 C1687.4,400.2 1661.3,406.3 1646.8,395.9 C1632.3,385.4 1629.3,358.3 1615.6,343.6 C1601.9,328.9 1577.4,326.5 1569.7,310.3 C1562,294.2 1571,264.2 1559.5,248.8 C1548.1,233.5 1516.2,232.7 1497.6,221.7 C1479,210.6 1473.7,189.2 1477.7,167.7 C1481.8,146.2 1495.3,124.6 1486,107 C1476.7,89.4 1444.5,75.7 1437.5,58.6 C1430.6,41.4 1448.8,20.7 1467,0 L1920,0 z" fill="#835b82" id="svg_3"/><path d="M1920,357.6 C1904.4,365.8 1888.8,374 1875,370.9 C1861.1,367.8 1848.9,353.4 1833.5,351.1 C1818,348.8 1799.2,358.5 1785.5,354.6 C1771.9,350.6 1763.3,332.9 1748.6,326.6 C1733.9,320.2 1713,325.1 1701.4,316.7 C1689.8,308.3 1687.5,286.6 1676.5,274.9 C1665.5,263.1 1646,261.2 1639.8,248.3 C1633.6,235.3 1640.8,211.3 1631.6,199 C1622.5,186.8 1597,186.2 1582.1,177.3 C1567.2,168.5 1562.9,151.4 1566.2,134.2 C1569.4,117 1580.3,99.7 1572.8,85.6 C1565.3,71.5 1539.6,60.6 1534,46.9 C1528.5,33.1 1543,16.6 1557.6,0 L1920,0 z" fill="#b26484" id="svg_4"/><path d="M1920,268.2 C1908.3,274.3 1896.6,280.5 1886.2,278.2 C1875.8,275.8 1866.7,265.1 1855.1,263.3 C1843.5,261.6 1829.4,268.9 1819.2,265.9 C1808.9,262.9 1802.5,249.7 1791.5,244.9 C1780.4,240.1 1764.8,243.8 1756.1,237.5 C1747.4,231.2 1745.6,215 1737.4,206.1 C1729.2,197.3 1714.5,195.9 1709.8,186.2 C1705.2,176.5 1710.6,158.5 1703.7,149.3 C1696.9,140.1 1677.7,139.6 1666.6,133 C1655.4,126.4 1652.2,113.5 1654.6,100.6 C1657.1,87.7 1665.2,74.8 1659.6,64.2 C1654,53.6 1634.7,45.4 1630.5,35.1 C1626.3,24.9 1637.3,12.4 1648.2,0 L1920,0 z" fill="#d97478" id="svg_5"/><path d="M1920,178.8 C1912.2,182.9 1904.4,187 1897.5,185.4 C1890.5,183.9 1884.5,176.7 1876.7,175.5 C1869,174.4 1859.6,179.3 1852.8,177.3 C1845.9,175.3 1841.7,166.5 1834.3,163.3 C1826.9,160.1 1816.5,162.5 1810.7,158.3 C1804.9,154.1 1803.7,143.3 1798.3,137.4 C1792.8,131.5 1783,130.6 1779.9,124.1 C1776.8,117.7 1780.4,105.7 1775.8,99.5 C1771.2,93.4 1758.5,93.1 1751.1,88.7 C1743.6,84.2 1741.5,75.7 1743.1,67.1 C1744.7,58.5 1750.1,49.8 1746.4,42.8 C1742.7,35.7 1729.8,30.3 1727,23.4 C1724.2,16.6 1731.5,8.3 1738.8,0 L1920,0 z" fill="#f08e64" id="svg_6"/><path d="M1920,89.4 C1916.1,91.4 1912.2,93.5 1908.7,92.7 C1905.3,91.9 1902.2,88.4 1898.4,87.8 C1894.5,87.2 1889.8,89.6 1886.4,88.6 C1883,87.6 1880.8,83.2 1877.2,81.6 C1873.5,80 1868.3,81.3 1865.4,79.2 C1862.5,77.1 1861.9,71.7 1859.1,68.7 C1856.4,65.8 1851.5,65.3 1849.9,62.1 C1848.4,58.8 1850.2,52.8 1847.9,49.8 C1845.6,46.7 1839.2,46.5 1835.5,44.3 C1831.8,42.1 1830.7,37.8 1831.5,33.5 C1832.4,29.2 1835.1,24.9 1833.2,21.4 C1831.3,17.9 1824.9,15.1 1823.5,11.7 C1822.1,8.3 1825.8,4.1 1829.4,0 L1920,0 z" fill="#f39f5a" id="svg_7"/></g><g id="svg_8" class=""><path d="M0,604 C19.6,600.6 39.3,597.2 58,602.5 C76.7,607.9 94.4,622 109.1,637.3 C123.9,652.5 135.6,669 155.7,669.5 C175.8,670 204.3,654.6 218,664.7 C231.6,674.9 230.4,710.6 249.4,718.7 C268.4,726.8 307.6,707.2 321,717.7 C334.3,728.2 321.7,768.7 327.1,790.2 C332.5,811.7 356,814.3 368.7,825.5 C381.4,836.7 383.5,856.7 399.3,870.4 C415.2,884.2 444.9,891.8 454.4,907.7 C464,923.6 453.4,947.7 454.4,968 C455.4,988.3 467.8,1004.6 472.5,1022.6 C477.2,1040.6 474.1,1060.3 471,1080 L0,1080 z" fill="#835b82" id="svg_9"/><path d="M0,699.2 C15.7,696.5 31.4,693.7 46.4,698 C61.3,702.3 75.5,713.6 87.3,725.8 C99.1,738 108.4,751.2 124.5,751.6 C140.6,752 163.4,739.7 174.4,747.8 C185.3,755.9 184.3,784.5 199.5,791 C214.7,797.4 246.1,781.8 256.8,790.2 C267.4,798.6 257.3,831 261.7,848.2 C266,865.4 284.8,867.4 295,876.4 C305.2,885.4 306.8,901.3 319.5,912.3 C332.2,923.3 355.9,929.4 363.5,942.1 C371.2,954.8 362.7,974.2 363.5,990.4 C364.3,1006.6 374.3,1019.7 378,1034.1 C381.8,1048.5 379.3,1064.3 376.8,1080 L0,1080 z" fill="#b26484" id="svg_10"/><path d="M0,794.4 C11.8,792.3 23.6,790.3 34.8,793.5 C46,796.7 56.6,805.2 65.5,814.4 C74.3,823.5 81.3,833.4 93.4,833.7 C105.5,834 122.6,824.7 130.8,830.8 C139,836.9 138.2,858.4 149.6,863.2 C161,868.1 184.6,856.3 192.6,862.6 C200.6,868.9 193,893.2 196.3,906.1 C199.5,919 213.6,920.6 221.2,927.3 C228.9,934 230.1,946 239.6,954.2 C249.1,962.5 266.9,967.1 272.7,976.6 C278.4,986.1 272.1,1000.6 272.6,1012.8 C273.2,1025 280.7,1034.8 283.5,1045.6 C286.3,1056.4 284.5,1068.2 282.6,1080 L0,1080 z" fill="#d97478" id="svg_11"/><path d="M0,889.6 C7.9,888.2 15.7,886.9 23.2,889 C30.7,891.1 37.8,896.8 43.7,902.9 C49.5,909 54.2,915.6 62.3,915.8 C70.3,916 81.7,909.8 87.2,913.9 C92.6,917.9 92.1,932.2 99.8,935.5 C107.4,938.7 123.1,930.9 128.4,935.1 C133.7,939.3 128.7,955.5 130.8,964.1 C133,972.7 142.4,973.7 147.5,978.2 C152.6,982.7 153.4,990.7 159.7,996.2 C166.1,1001.7 177.9,1004.7 181.8,1011.1 C185.6,1017.4 181.4,1027.1 181.8,1035.2 C182.1,1043.3 187.1,1049.8 189,1057 C190.9,1064.3 189.6,1072.1 188.4,1080 L0,1080 z" fill="#f08e64" id="svg_12"/><path d="M0,984.8 C3.9,984.1 7.9,983.4 11.6,984.5 C15.3,985.6 18.9,988.4 21.8,991.5 C24.8,994.5 27.1,997.8 31.1,997.9 C35.2,998 40.9,994.9 43.6,996.9 C46.3,999 46.1,1006.1 49.9,1007.7 C53.7,1009.4 61.5,1005.4 64.2,1007.5 C66.9,1009.6 64.3,1017.7 65.4,1022 C66.5,1026.3 71.2,1026.9 73.7,1029.1 C76.3,1031.3 76.7,1035.3 79.9,1038.1 C83,1040.8 89,1042.4 90.9,1045.5 C92.8,1048.7 90.7,1053.5 90.9,1057.6 C91.1,1061.7 93.6,1064.9 94.5,1068.5 C95.4,1072.1 94.8,1076.1 94.2,1080 L0,1080 z" fill="#f39f5a" id="svg_13"/></g></g></g></svg>